<ttFont>
    <TTGlyph name=".notdef" xMin="193" yMin="0" xMax="1034" yMax="1462">
      <contour>
        <pt x="1034" y="1462" on="1"/>
        <pt x="1034" y="0" on="1"/>
        <pt x="193" y="0" on="1"/>
        <pt x="193" y="1462" on="1"/>
      </contour>
      <contour>
        <pt x="930" y="104" on="1"/>
        <pt x="930" y="1358" on="1"/>
        <pt x="297" y="1358" on="1"/>
        <pt x="297" y="104" on="1"/>
      </contour>
    </TTGlyph>
    <TTGlyph name="A" xMin="-123" yMin="0" xMax="1163" yMax="1468">
      <contour>
        <pt x="369" y="348" on="1"/>
        <pt x="197" y="0" on="1"/>
        <pt x="-123" y="0" on="1"/>
        <pt x="643" y="1468" on="1"/>
        <pt x="1016" y="1468" on="1"/>
        <pt x="1163" y="0" on="1"/>
        <pt x="866" y="0" on="1"/>
        <pt x="842" y="348" on="1"/>
      </contour>
      <contour>
        <pt x="791" y="1211" on="1"/>
        <pt x="791" y="1247" on="1"/>
        <pt x="750" y="1133" on="0"/>
        <pt x="682" y="993" on="1"/>
        <pt x="494" y="608" on="1"/>
        <pt x="827" y="608" on="1"/>
        <pt x="801" y="958" on="1"/>
        <pt x="791" y="1082" on="0"/>
      </contour>
    </TTGlyph>
    <TTGlyph name="AE" xMin="-123" yMin="0" xMax="1903" yMax="1462">
      <contour>
        <pt x="776" y="0" on="1"/>
        <pt x="850" y="348" on="1"/>
        <pt x="424" y="348" on="1"/>
        <pt x="205" y="0" on="1"/>
        <pt x="-123" y="0" on="1"/>
        <pt x="799" y="1462" on="1"/>
        <pt x="1903" y="1462" on="1"/>
        <pt x="1849" y="1208" on="1"/>
        <pt x="1337" y="1208" on="1"/>
        <pt x="1270" y="887" on="1"/>
        <pt x="1747" y="887" on="1"/>
        <pt x="1692" y="633" on="1"/>
        <pt x="1214" y="633" on="1"/>
        <pt x="1135" y="256" on="1"/>
        <pt x="1647" y="256" on="1"/>
        <pt x="1593" y="0" on="1"/>
      </contour>
      <contour>
        <pt x="1032" y="1208" on="1"/>
        <pt x="952" y="1208" on="1"/>
        <pt x="588" y="608" on="1"/>
        <pt x="905" y="608" on="1"/>
      </contour>
    </TTGlyph>
    <TTGlyph name="Aacute" xMin="-123" yMin="0" xMax="1292" yMax="1907">
      <contour>
        <pt x="735" y="1579" on="1"/>
        <pt x="735" y="1604" on="1"/>
        <pt x="814" y="1692" on="0"/>
        <pt x="957" y="1907" on="1"/>
        <pt x="1292" y="1907" on="1"/>
        <pt x="1292" y="1890" on="1"/>
        <pt x="1244" y="1833" on="0"/>
        <pt x="1029" y="1640" on="0"/>
        <pt x="944" y="1579" on="1"/>
      </contour>
      <contour>
        <pt x="197" y="0" on="1"/>
        <pt x="-123" y="0" on="1"/>
        <pt x="643" y="1468" on="1"/>
        <pt x="1016" y="1468" on="1"/>
        <pt x="1163" y="0" on="1"/>
        <pt x="866" y="0" on="1"/>
        <pt x="842" y="348" on="1"/>
        <pt x="369" y="348" on="1"/>
      </contour>
      <contour>
        <pt x="791" y="1211" on="1"/>
        <pt x="791" y="1247" on="1"/>
        <pt x="750" y="1133" on="0"/>
        <pt x="682" y="993" on="1"/>
        <pt x="494" y="608" on="1"/>
        <pt x="827" y="608" on="1"/>
        <pt x="801" y="958" on="1"/>
        <pt x="791" y="1082" on="0"/>
      </contour>
    </TTGlyph>
    <TTGlyph name="Acircumflex" xMin="-123" yMin="0" xMax="1235" yMax="1907">
      <contour>
        <pt x="1059" y="1907" on="1"/>
        <pt x="1113" y="1779" on="0"/>
        <pt x="1235" y="1604" on="1"/>
        <pt x="1235" y="1579" on="1"/>
        <pt x="1037" y="1579" on="1"/>
        <pt x="974" y="1632" on="0"/>
        <pt x="875" y="1747" on="1"/>
        <pt x="769" y="1657" on="0"/>
        <pt x="643" y="1579" on="1"/>
        <pt x="426" y="1579" on="1"/>
        <pt x="426" y="1604" on="1"/>
        <pt x="489" y="1661" on="0"/>
        <pt x="667" y="1839" on="0"/>
        <pt x="721" y="1907" on="1"/>
      </contour>
      <contour>
        <pt x="197" y="0" on="1"/>
        <pt x="-123" y="0" on="1"/>
        <pt x="643" y="1468" on="1"/>
        <pt x="1016" y="1468" on="1"/>
        <pt x="1163" y="0" on="1"/>
        <pt x="866" y="0" on="1"/>
        <pt x="842" y="348" on="1"/>
        <pt x="369" y="348" on="1"/>
      </contour>
      <contour>
        <pt x="791" y="1211" on="1"/>
        <pt x="791" y="1247" on="1"/>
        <pt x="750" y="1133" on="0"/>
        <pt x="682" y="993" on="1"/>
        <pt x="494" y="608" on="1"/>
        <pt x="827" y="608" on="1"/>
        <pt x="801" y="958" on="1"/>
        <pt x="791" y="1082" on="0"/>
      </contour>
    </TTGlyph>
    <TTGlyph name="Adieresis" xMin="-123" yMin="0" xMax="1213" yMax="1878">
      <contour>
        <pt x="516" y="1720" on="1"/>
        <pt x="516" y="1797" on="0"/>
        <pt x="600" y="1878" on="0"/>
        <pt x="678" y="1878" on="1"/>
        <pt x="811" y="1878" on="0"/>
        <pt x="811" y="1770" on="1"/>
        <pt x="811" y="1695" on="0"/>
        <pt x="731" y="1610" on="0"/>
        <pt x="651" y="1610" on="1"/>
        <pt x="516" y="1610" on="0"/>
      </contour>
      <contour>
        <pt x="918" y="1720" on="1"/>
        <pt x="918" y="1798" on="0"/>
        <pt x="1002" y="1878" on="0"/>
        <pt x="1074" y="1878" on="1"/>
        <pt x="1213" y="1878" on="0"/>
        <pt x="1213" y="1770" on="1"/>
        <pt x="1213" y="1695" on="0"/>
        <pt x="1132" y="1610" on="0"/>
        <pt x="1053" y="1610" on="1"/>
        <pt x="918" y="1610" on="0"/>
      </contour>
      <contour>
        <pt x="197" y="0" on="1"/>
        <pt x="-123" y="0" on="1"/>
        <pt x="643" y="1468" on="1"/>
        <pt x="1016" y="1468" on="1"/>
        <pt x="1163" y="0" on="1"/>
        <pt x="866" y="0" on="1"/>
        <pt x="842" y="348" on="1"/>
        <pt x="369" y="348" on="1"/>
      </contour>
      <contour>
        <pt x="791" y="1211" on="1"/>
        <pt x="791" y="1247" on="1"/>
        <pt x="750" y="1133" on="0"/>
        <pt x="682" y="993" on="1"/>
        <pt x="494" y="608" on="1"/>
        <pt x="827" y="608" on="1"/>
        <pt x="801" y="958" on="1"/>
        <pt x="791" y="1082" on="0"/>
      </contour>
    </TTGlyph>
    <TTGlyph name="Agrave" xMin="-123" yMin="0" xMax="1163" yMax="1907">
      <contour>
        <pt x="781" y="1579" on="1"/>
        <pt x="612" y="1745" on="0"/>
        <pt x="539" y="1886" on="1"/>
        <pt x="539" y="1907" on="1"/>
        <pt x="850" y="1907" on="1"/>
        <pt x="886" y="1757" on="0"/>
        <pt x="965" y="1604" on="1"/>
        <pt x="965" y="1579" on="1"/>
      </contour>
      <contour>
        <pt x="197" y="0" on="1"/>
        <pt x="-123" y="0" on="1"/>
        <pt x="643" y="1468" on="1"/>
        <pt x="1016" y="1468" on="1"/>
        <pt x="1163" y="0" on="1"/>
        <pt x="866" y="0" on="1"/>
        <pt x="842" y="348" on="1"/>
        <pt x="369" y="348" on="1"/>
      </contour>
      <contour>
        <pt x="791" y="1211" on="1"/>
        <pt x="791" y="1247" on="1"/>
        <pt x="750" y="1133" on="0"/>
        <pt x="682" y="993" on="1"/>
        <pt x="494" y="608" on="1"/>
        <pt x="827" y="608" on="1"/>
        <pt x="801" y="958" on="1"/>
        <pt x="791" y="1082" on="0"/>
      </contour>
    </TTGlyph>
    <TTGlyph name="Aring" xMin="-123" yMin="0" xMax="1163" yMax="1802">
      <contour>
        <pt x="585" y="1565" on="1"/>
        <pt x="585" y="1673" on="0"/>
        <pt x="721" y="1802" on="0"/>
        <pt x="942" y="1802" on="0"/>
        <pt x="1087" y="1673" on="0"/>
        <pt x="1087" y="1464" on="0"/>
        <pt x="1023" y="1399" on="1"/>
        <pt x="1163" y="0" on="1"/>
        <pt x="866" y="0" on="1"/>
        <pt x="842" y="348" on="1"/>
        <pt x="369" y="348" on="1"/>
        <pt x="197" y="0" on="1"/>
        <pt x="-123" y="0" on="1"/>
        <pt x="622" y="1428" on="1"/>
        <pt x="585" y="1483" on="0"/>
      </contour>
      <contour>
        <pt x="876" y="1661" on="0"/>
        <pt x="790" y="1661" on="0"/>
        <pt x="737" y="1609" on="0"/>
        <pt x="737" y="1519" on="0"/>
        <pt x="786" y="1468" on="0"/>
        <pt x="876" y="1468" on="0"/>
        <pt x="930" y="1521" on="0"/>
        <pt x="930" y="1609" on="0"/>
      </contour>
      <contour>
        <pt x="791" y="1211" on="1"/>
        <pt x="791" y="1247" on="1"/>
        <pt x="750" y="1133" on="0"/>
        <pt x="682" y="993" on="1"/>
        <pt x="494" y="608" on="1"/>
        <pt x="827" y="608" on="1"/>
        <pt x="801" y="958" on="1"/>
        <pt x="791" y="1082" on="0"/>
      </contour>
    </TTGlyph>
    <TTGlyph name="Atilde" xMin="-123" yMin="0" xMax="1286" yMax="1888">
      <contour>
        <pt x="999" y="1579" on="1"/>
        <pt x="955" y="1579" on="0"/>
        <pt x="870" y="1612" on="0"/>
        <pt x="842" y="1632" on="1"/>
        <pt x="768" y="1684" on="0"/>
        <pt x="719" y="1684" on="1"/>
        <pt x="688" y="1684" on="0"/>
        <pt x="639" y="1628" on="0"/>
        <pt x="625" y="1577" on="1"/>
        <pt x="448" y="1577" on="1"/>
        <pt x="506" y="1886" on="0"/>
        <pt x="729" y="1886" on="1"/>
        <pt x="773" y="1886" on="0"/>
        <pt x="860" y="1854" on="0"/>
        <pt x="888" y="1834" on="1"/>
        <pt x="961" y="1782" on="0"/>
        <pt x="1010" y="1782" on="1"/>
        <pt x="1043" y="1782" on="0"/>
        <pt x="1092" y="1832" on="0"/>
        <pt x="1114" y="1888" on="1"/>
        <pt x="1286" y="1888" on="1"/>
        <pt x="1220" y="1579" on="0"/>
      </contour>
      <contour>
        <pt x="197" y="0" on="1"/>
        <pt x="-123" y="0" on="1"/>
        <pt x="643" y="1468" on="1"/>
        <pt x="1016" y="1468" on="1"/>
        <pt x="1163" y="0" on="1"/>
        <pt x="866" y="0" on="1"/>
        <pt x="842" y="348" on="1"/>
        <pt x="369" y="348" on="1"/>
      </contour>
      <contour>
        <pt x="791" y="1211" on="1"/>
        <pt x="791" y="1247" on="1"/>
        <pt x="750" y="1133" on="0"/>
        <pt x="682" y="993" on="1"/>
        <pt x="494" y="608" on="1"/>
        <pt x="827" y="608" on="1"/>
        <pt x="801" y="958" on="1"/>
        <pt x="791" y="1082" on="0"/>
      </contour>
    </TTGlyph>
    <TTGlyph name="B" xMin="53" yMin="0" xMax="1251" yMax="1462">
      <contour>
        <pt x="788" y="1462" on="1"/>
        <pt x="1251" y="1462" on="0"/>
        <pt x="1251" y="1137" on="1"/>
        <pt x="1251" y="987" on="0"/>
        <pt x="1085" y="792" on="0"/>
        <pt x="932" y="760" on="1"/>
        <pt x="932" y="754" on="1"/>
        <pt x="1034" y="727" on="0"/>
        <pt x="1151" y="585" on="0"/>
        <pt x="1151" y="477" on="1"/>
        <pt x="1151" y="248" on="0"/>
        <pt x="846" y="0" on="0"/>
        <pt x="575" y="0" on="1"/>
        <pt x="53" y="0" on="1"/>
        <pt x="362" y="1462" on="1"/>
      </contour>
      <contour>
        <pt x="694" y="883" on="1"/>
        <pt x="814" y="883" on="0"/>
        <pt x="936" y="979" on="0"/>
        <pt x="936" y="1071" on="1"/>
        <pt x="936" y="1208" on="0"/>
        <pt x="766" y="1208" on="1"/>
        <pt x="614" y="1208" on="1"/>
        <pt x="545" y="883" on="1"/>
      </contour>
      <contour>
        <pt x="592" y="256" on="1"/>
        <pt x="709" y="256" on="0"/>
        <pt x="842" y="372" on="0"/>
        <pt x="842" y="475" on="1"/>
        <pt x="842" y="637" on="0"/>
        <pt x="659" y="637" on="1"/>
        <pt x="494" y="637" on="1"/>
        <pt x="412" y="256" on="1"/>
      </contour>
    </TTGlyph>
    <TTGlyph name="C" xMin="123" yMin="-20" xMax="1335" yMax="1485">
      <contour>
        <pt x="905" y="1227" on="1"/>
        <pt x="774" y="1227" on="0"/>
        <pt x="563" y="1066" on="0"/>
        <pt x="434" y="751" on="0"/>
        <pt x="434" y="401" on="0"/>
        <pt x="572" y="240" on="0"/>
        <pt x="866" y="240" on="0"/>
        <pt x="1059" y="317" on="1"/>
        <pt x="1059" y="57" on="1"/>
        <pt x="858" y="-20" on="0"/>
        <pt x="659" y="-20" on="1"/>
        <pt x="405" y="-20" on="0"/>
        <pt x="123" y="279" on="0"/>
        <pt x="123" y="813" on="0"/>
        <pt x="331" y="1255" on="0"/>
        <pt x="678" y="1485" on="0"/>
        <pt x="905" y="1485" on="1"/>
        <pt x="1027" y="1485" on="0"/>
        <pt x="1225" y="1439" on="0"/>
        <pt x="1335" y="1380" on="1"/>
        <pt x="1217" y="1130" on="1"/>
        <pt x="1110" y="1189" on="0"/>
        <pt x="975" y="1227" on="0"/>
      </contour>
    </TTGlyph>
    <TTGlyph name="Ccedilla" xMin="123" yMin="-492" xMax="1335" yMax="1485">
      <contour>
        <pt x="905" y="1227" on="1"/>
        <pt x="774" y="1227" on="0"/>
        <pt x="563" y="1066" on="0"/>
        <pt x="434" y="751" on="0"/>
        <pt x="434" y="401" on="0"/>
        <pt x="572" y="240" on="0"/>
        <pt x="866" y="240" on="0"/>
        <pt x="1059" y="317" on="1"/>
        <pt x="1059" y="57" on="1"/>
        <pt x="883" y="-10" on="0"/>
        <pt x="713" y="-19" on="1"/>
        <pt x="684" y="-72" on="1"/>
        <pt x="825" y="-122" on="0"/>
        <pt x="825" y="-250" on="1"/>
        <pt x="825" y="-366" on="0"/>
        <pt x="659" y="-492" on="0"/>
        <pt x="508" y="-492" on="1"/>
        <pt x="423" y="-492" on="0"/>
        <pt x="356" y="-469" on="1"/>
        <pt x="356" y="-301" on="1"/>
        <pt x="420" y="-324" on="0"/>
        <pt x="481" y="-324" on="1"/>
        <pt x="583" y="-324" on="0"/>
        <pt x="583" y="-242" on="1"/>
        <pt x="583" y="-170" on="0"/>
        <pt x="442" y="-154" on="1"/>
        <pt x="532" y="-9" on="1"/>
        <pt x="367" y="20" on="0"/>
        <pt x="264" y="129" on="1"/>
        <pt x="123" y="279" on="0"/>
        <pt x="123" y="813" on="0"/>
        <pt x="331" y="1255" on="0"/>
        <pt x="678" y="1485" on="0"/>
        <pt x="905" y="1485" on="1"/>
        <pt x="1027" y="1485" on="0"/>
        <pt x="1225" y="1439" on="0"/>
        <pt x="1335" y="1380" on="1"/>
        <pt x="1217" y="1130" on="1"/>
        <pt x="1110" y="1189" on="0"/>
        <pt x="975" y="1227" on="0"/>
      </contour>
    </TTGlyph>
    <TTGlyph name="D" xMin="53" yMin="0" xMax="1323" yMax="1462">
      <contour>
        <pt x="758" y="1462" on="1"/>
        <pt x="1027" y="1462" on="0"/>
        <pt x="1323" y="1177" on="0"/>
        <pt x="1323" y="630" on="0"/>
        <pt x="1127" y="216" on="0"/>
        <pt x="757" y="0" on="0"/>
        <pt x="504" y="0" on="1"/>
        <pt x="53" y="0" on="1"/>
        <pt x="362" y="1462" on="1"/>
      </contour>
      <contour>
        <pt x="518" y="256" on="1"/>
        <pt x="667" y="256" on="0"/>
        <pt x="887" y="410" on="0"/>
        <pt x="1010" y="705" on="0"/>
        <pt x="1010" y="893" on="1"/>
        <pt x="1010" y="1046" on="0"/>
        <pt x="865" y="1208" on="0"/>
        <pt x="729" y="1208" on="1"/>
        <pt x="614" y="1208" on="1"/>
        <pt x="412" y="256" on="1"/>
      </contour>
    </TTGlyph>
    <TTGlyph name="E" xMin="53" yMin="0" xMax="1180" yMax="1462">
      <contour>
        <pt x="53" y="0" on="1"/>
        <pt x="362" y="1462" on="1"/>
        <pt x="1180" y="1462" on="1"/>
        <pt x="1126" y="1208" on="1"/>
        <pt x="614" y="1208" on="1"/>
        <pt x="547" y="887" on="1"/>
        <pt x="1024" y="887" on="1"/>
        <pt x="969" y="633" on="1"/>
        <pt x="492" y="633" on="1"/>
        <pt x="412" y="256" on="1"/>
        <pt x="924" y="256" on="1"/>
        <pt x="870" y="0" on="1"/>
      </contour>
    </TTGlyph>
    <TTGlyph name="Eacute" xMin="53" yMin="0" xMax="1180" yMax="1907">
      <contour>
        <pt x="608" y="1579" on="1"/>
        <pt x="608" y="1604" on="1"/>
        <pt x="688" y="1692" on="0"/>
        <pt x="830" y="1907" on="1"/>
        <pt x="1165" y="1907" on="1"/>
        <pt x="1165" y="1890" on="1"/>
        <pt x="1117" y="1833" on="0"/>
        <pt x="902" y="1640" on="0"/>
        <pt x="817" y="1579" on="1"/>
      </contour>
      <contour>
        <pt x="362" y="1462" on="1"/>
        <pt x="1180" y="1462" on="1"/>
        <pt x="1126" y="1208" on="1"/>
        <pt x="614" y="1208" on="1"/>
        <pt x="547" y="887" on="1"/>
        <pt x="1024" y="887" on="1"/>
        <pt x="969" y="633" on="1"/>
        <pt x="492" y="633" on="1"/>
        <pt x="412" y="256" on="1"/>
        <pt x="924" y="256" on="1"/>
        <pt x="870" y="0" on="1"/>
        <pt x="53" y="0" on="1"/>
      </contour>
    </TTGlyph>
    <TTGlyph name="Ecircumflex" xMin="53" yMin="0" xMax="1180" yMax="1907">
      <contour>
        <pt x="1001" y="1907" on="1"/>
        <pt x="1055" y="1779" on="0"/>
        <pt x="1177" y="1604" on="1"/>
        <pt x="1177" y="1579" on="1"/>
        <pt x="979" y="1579" on="1"/>
        <pt x="916" y="1632" on="0"/>
        <pt x="817" y="1747" on="1"/>
        <pt x="711" y="1657" on="0"/>
        <pt x="585" y="1579" on="1"/>
        <pt x="368" y="1579" on="1"/>
        <pt x="368" y="1604" on="1"/>
        <pt x="431" y="1661" on="0"/>
        <pt x="609" y="1839" on="0"/>
        <pt x="663" y="1907" on="1"/>
      </contour>
      <contour>
        <pt x="362" y="1462" on="1"/>
        <pt x="1180" y="1462" on="1"/>
        <pt x="1126" y="1208" on="1"/>
        <pt x="614" y="1208" on="1"/>
        <pt x="547" y="887" on="1"/>
        <pt x="1024" y="887" on="1"/>
        <pt x="969" y="633" on="1"/>
        <pt x="492" y="633" on="1"/>
        <pt x="412" y="256" on="1"/>
        <pt x="924" y="256" on="1"/>
        <pt x="870" y="0" on="1"/>
        <pt x="53" y="0" on="1"/>
      </contour>
    </TTGlyph>
    <TTGlyph name="Edieresis" xMin="53" yMin="0" xMax="1180" yMax="1878">
      <contour>
        <pt x="438" y="1720" on="1"/>
        <pt x="438" y="1797" on="0"/>
        <pt x="522" y="1878" on="0"/>
        <pt x="600" y="1878" on="1"/>
        <pt x="733" y="1878" on="0"/>
        <pt x="733" y="1770" on="1"/>
        <pt x="733" y="1695" on="0"/>
        <pt x="653" y="1610" on="0"/>
        <pt x="573" y="1610" on="1"/>
        <pt x="438" y="1610" on="0"/>
      </contour>
      <contour>
        <pt x="840" y="1720" on="1"/>
        <pt x="840" y="1798" on="0"/>
        <pt x="924" y="1878" on="0"/>
        <pt x="996" y="1878" on="1"/>
        <pt x="1135" y="1878" on="0"/>
        <pt x="1135" y="1770" on="1"/>
        <pt x="1135" y="1695" on="0"/>
        <pt x="1054" y="1610" on="0"/>
        <pt x="975" y="1610" on="1"/>
        <pt x="840" y="1610" on="0"/>
      </contour>
      <contour>
        <pt x="362" y="1462" on="1"/>
        <pt x="1180" y="1462" on="1"/>
        <pt x="1126" y="1208" on="1"/>
        <pt x="614" y="1208" on="1"/>
        <pt x="547" y="887" on="1"/>
        <pt x="1024" y="887" on="1"/>
        <pt x="969" y="633" on="1"/>
        <pt x="492" y="633" on="1"/>
        <pt x="412" y="256" on="1"/>
        <pt x="924" y="256" on="1"/>
        <pt x="870" y="0" on="1"/>
        <pt x="53" y="0" on="1"/>
      </contour>
    </TTGlyph>
    <TTGlyph name="Egrave" xMin="53" yMin="0" xMax="1180" yMax="1907">
      <contour>
        <pt x="722" y="1579" on="1"/>
        <pt x="553" y="1745" on="0"/>
        <pt x="480" y="1886" on="1"/>
        <pt x="480" y="1907" on="1"/>
        <pt x="791" y="1907" on="1"/>
        <pt x="827" y="1757" on="0"/>
        <pt x="906" y="1604" on="1"/>
        <pt x="906" y="1579" on="1"/>
      </contour>
      <contour>
        <pt x="362" y="1462" on="1"/>
        <pt x="1180" y="1462" on="1"/>
        <pt x="1126" y="1208" on="1"/>
        <pt x="614" y="1208" on="1"/>
        <pt x="547" y="887" on="1"/>
        <pt x="1024" y="887" on="1"/>
        <pt x="969" y="633" on="1"/>
        <pt x="492" y="633" on="1"/>
        <pt x="412" y="256" on="1"/>
        <pt x="924" y="256" on="1"/>
        <pt x="870" y="0" on="1"/>
        <pt x="53" y="0" on="1"/>
      </contour>
    </TTGlyph>
    <TTGlyph name="Euro" xMin="41" yMin="-20" xMax="1245" yMax="1485">
      <contour>
        <pt x="899" y="1237" on="1"/>
        <pt x="803" y="1237" on="0"/>
        <pt x="645" y="1089" on="0"/>
        <pt x="588" y="950" on="1"/>
        <pt x="936" y="950" on="1"/>
        <pt x="897" y="774" on="1"/>
        <pt x="537" y="774" on="1"/>
        <pt x="524" y="732" on="0"/>
        <pt x="512" y="659" on="1"/>
        <pt x="811" y="659" on="1"/>
        <pt x="774" y="481" on="1"/>
        <pt x="494" y="481" on="1"/>
        <pt x="494" y="358" on="0"/>
        <pt x="585" y="238" on="0"/>
        <pt x="686" y="238" on="1"/>
        <pt x="819" y="238" on="0"/>
        <pt x="969" y="301" on="1"/>
        <pt x="969" y="43" on="1"/>
        <pt x="843" y="-20" on="0"/>
        <pt x="639" y="-20" on="1"/>
        <pt x="193" y="-20" on="0"/>
        <pt x="193" y="481" on="1"/>
        <pt x="41" y="481" on="1"/>
        <pt x="78" y="659" on="1"/>
        <pt x="205" y="659" on="1"/>
        <pt x="214" y="729" on="0"/>
        <pt x="227" y="774" on="1"/>
        <pt x="102" y="774" on="1"/>
        <pt x="141" y="950" on="1"/>
        <pt x="276" y="950" on="1"/>
        <pt x="363" y="1203" on="0"/>
        <pt x="526" y="1343" on="1"/>
        <pt x="689" y="1485" on="0"/>
        <pt x="901" y="1485" on="1"/>
        <pt x="999" y="1485" on="0"/>
        <pt x="1158" y="1440" on="0"/>
        <pt x="1245" y="1382" on="1"/>
        <pt x="1120" y="1159" on="1"/>
        <pt x="1034" y="1208" on="0"/>
        <pt x="946" y="1237" on="0"/>
      </contour>
    </TTGlyph>
    <TTGlyph name="F" xMin="53" yMin="0" xMax="1176" yMax="1462">
      <contour>
        <pt x="53" y="0" on="1"/>
        <pt x="362" y="1462" on="1"/>
        <pt x="1176" y="1462" on="1"/>
        <pt x="1122" y="1208" on="1"/>
        <pt x="614" y="1208" on="1"/>
        <pt x="535" y="831" on="1"/>
        <pt x="1008" y="831" on="1"/>
        <pt x="952" y="578" on="1"/>
        <pt x="479" y="578" on="1"/>
        <pt x="358" y="0" on="1"/>
      </contour>
    </TTGlyph>
    <TTGlyph name="G" xMin="123" yMin="-20" xMax="1389" yMax="1485">
      <contour>
        <pt x="664" y="-20" on="1"/>
        <pt x="405" y="-20" on="0"/>
        <pt x="123" y="274" on="0"/>
        <pt x="123" y="816" on="0"/>
        <pt x="336" y="1249" on="0"/>
        <pt x="724" y="1485" on="0"/>
        <pt x="979" y="1485" on="1"/>
        <pt x="1197" y="1485" on="0"/>
        <pt x="1389" y="1386" on="1"/>
        <pt x="1274" y="1135" on="1"/>
        <pt x="1110" y="1223" on="0"/>
        <pt x="813" y="1223" on="0"/>
        <pt x="571" y="1058" on="0"/>
        <pt x="434" y="749" on="0"/>
        <pt x="434" y="402" on="0"/>
        <pt x="578" y="240" on="0"/>
        <pt x="729" y="240" on="1"/>
        <pt x="804" y="240" on="0"/>
        <pt x="899" y="264" on="1"/>
        <pt x="965" y="563" on="1"/>
        <pt x="698" y="563" on="1"/>
        <pt x="754" y="821" on="1"/>
        <pt x="1317" y="821" on="1"/>
        <pt x="1155" y="59" on="1"/>
        <pt x="1026" y="14" on="0"/>
        <pt x="789" y="-20" on="0"/>
      </contour>
    </TTGlyph>
    <TTGlyph name="H" xMin="53" yMin="0" xMax="1444" yMax="1462">
      <contour>
        <pt x="829" y="0" on="1"/>
        <pt x="963" y="631" on="1"/>
        <pt x="492" y="631" on="1"/>
        <pt x="358" y="0" on="1"/>
        <pt x="53" y="0" on="1"/>
        <pt x="362" y="1462" on="1"/>
        <pt x="668" y="1462" on="1"/>
        <pt x="547" y="889" on="1"/>
        <pt x="1018" y="889" on="1"/>
        <pt x="1139" y="1462" on="1"/>
        <pt x="1444" y="1462" on="1"/>
        <pt x="1135" y="0" on="1"/>
      </contour>
    </TTGlyph>
    <TTGlyph name="I" xMin="53" yMin="0" xMax="670" yMax="1462">
      <contour>
        <pt x="365" y="1462" on="1"/>
        <pt x="670" y="1462" on="1"/>
        <pt x="358" y="0" on="1"/>
        <pt x="53" y="0" on="1"/>
      </contour>
    </TTGlyph>
    <TTGlyph name="Iacute" xMin="53" yMin="0" xMax="971" yMax="1907">
      <contour>
        <pt x="414" y="1579" on="1"/>
        <pt x="414" y="1604" on="1"/>
        <pt x="494" y="1692" on="0"/>
        <pt x="636" y="1907" on="1"/>
        <pt x="971" y="1907" on="1"/>
        <pt x="971" y="1890" on="1"/>
        <pt x="923" y="1833" on="0"/>
        <pt x="708" y="1640" on="0"/>
        <pt x="623" y="1579" on="1"/>
      </contour>
      <contour>
        <pt x="670" y="1462" on="1"/>
        <pt x="358" y="0" on="1"/>
        <pt x="53" y="0" on="1"/>
        <pt x="365" y="1462" on="1"/>
      </contour>
    </TTGlyph>
    <TTGlyph name="Icircumflex" xMin="53" yMin="0" xMax="937" yMax="1907">
      <contour>
        <pt x="761" y="1907" on="1"/>
        <pt x="815" y="1779" on="0"/>
        <pt x="937" y="1604" on="1"/>
        <pt x="937" y="1579" on="1"/>
        <pt x="739" y="1579" on="1"/>
        <pt x="676" y="1632" on="0"/>
        <pt x="577" y="1747" on="1"/>
        <pt x="471" y="1657" on="0"/>
        <pt x="345" y="1579" on="1"/>
        <pt x="128" y="1579" on="1"/>
        <pt x="128" y="1604" on="1"/>
        <pt x="191" y="1661" on="0"/>
        <pt x="369" y="1839" on="0"/>
        <pt x="423" y="1907" on="1"/>
      </contour>
      <contour>
        <pt x="670" y="1462" on="1"/>
        <pt x="358" y="0" on="1"/>
        <pt x="53" y="0" on="1"/>
        <pt x="365" y="1462" on="1"/>
      </contour>
    </TTGlyph>
    <TTGlyph name="Idieresis" xMin="53" yMin="0" xMax="919" yMax="1878">
      <contour>
        <pt x="222" y="1720" on="1"/>
        <pt x="222" y="1797" on="0"/>
        <pt x="306" y="1878" on="0"/>
        <pt x="384" y="1878" on="1"/>
        <pt x="517" y="1878" on="0"/>
        <pt x="517" y="1770" on="1"/>
        <pt x="517" y="1695" on="0"/>
        <pt x="437" y="1610" on="0"/>
        <pt x="357" y="1610" on="1"/>
        <pt x="222" y="1610" on="0"/>
      </contour>
      <contour>
        <pt x="624" y="1720" on="1"/>
        <pt x="624" y="1798" on="0"/>
        <pt x="708" y="1878" on="0"/>
        <pt x="780" y="1878" on="1"/>
        <pt x="919" y="1878" on="0"/>
        <pt x="919" y="1770" on="1"/>
        <pt x="919" y="1695" on="0"/>
        <pt x="838" y="1610" on="0"/>
        <pt x="759" y="1610" on="1"/>
        <pt x="624" y="1610" on="0"/>
      </contour>
      <contour>
        <pt x="670" y="1462" on="1"/>
        <pt x="358" y="0" on="1"/>
        <pt x="53" y="0" on="1"/>
        <pt x="365" y="1462" on="1"/>
      </contour>
    </TTGlyph>
    <TTGlyph name="Igrave" xMin="53" yMin="0" xMax="670" yMax="1907">
      <contour>
        <pt x="483" y="1579" on="1"/>
        <pt x="314" y="1745" on="0"/>
        <pt x="241" y="1886" on="1"/>
        <pt x="241" y="1907" on="1"/>
        <pt x="552" y="1907" on="1"/>
        <pt x="588" y="1757" on="0"/>
        <pt x="667" y="1604" on="1"/>
        <pt x="667" y="1579" on="1"/>
      </contour>
      <contour>
        <pt x="670" y="1462" on="1"/>
        <pt x="358" y="0" on="1"/>
        <pt x="53" y="0" on="1"/>
        <pt x="365" y="1462" on="1"/>
      </contour>
    </TTGlyph>
    <TTGlyph name="J" xMin="-322" yMin="-430" xMax="690" yMax="1462">
      <contour>
        <pt x="-135" y="-430" on="1"/>
        <pt x="-229" y="-430" on="0"/>
        <pt x="-322" y="-403" on="1"/>
        <pt x="-322" y="-150" on="1"/>
        <pt x="-231" y="-170" on="0"/>
        <pt x="-158" y="-170" on="1"/>
        <pt x="-58" y="-170" on="0"/>
        <pt x="64" y="-48" on="0"/>
        <pt x="92" y="82" on="1"/>
        <pt x="385" y="1462" on="1"/>
        <pt x="690" y="1462" on="1"/>
        <pt x="387" y="39" on="1"/>
        <pt x="334" y="-207" on="0"/>
        <pt x="89" y="-430" on="0"/>
      </contour>
    </TTGlyph>
    <TTGlyph name="K" xMin="53" yMin="0" xMax="1444" yMax="1462">
      <contour>
        <pt x="803" y="0" on="1"/>
        <pt x="592" y="592" on="1"/>
        <pt x="467" y="522" on="1"/>
        <pt x="358" y="0" on="1"/>
        <pt x="53" y="0" on="1"/>
        <pt x="362" y="1462" on="1"/>
        <pt x="668" y="1462" on="1"/>
        <pt x="516" y="760" on="1"/>
        <pt x="674" y="965" on="1"/>
        <pt x="1083" y="1462" on="1"/>
        <pt x="1444" y="1462" on="1"/>
        <pt x="850" y="762" on="1"/>
        <pt x="1141" y="0" on="1"/>
      </contour>
    </TTGlyph>
    <TTGlyph name="L" xMin="53" yMin="0" xMax="924" yMax="1462">
      <contour>
        <pt x="362" y="1462" on="1"/>
        <pt x="668" y="1462" on="1"/>
        <pt x="412" y="256" on="1"/>
        <pt x="924" y="256" on="1"/>
        <pt x="870" y="0" on="1"/>
        <pt x="53" y="0" on="1"/>
      </contour>
    </TTGlyph>
    <TTGlyph name="M" xMin="53" yMin="0" xMax="1812" yMax="1462">
      <contour>
        <pt x="1389" y="1462" on="1"/>
        <pt x="1812" y="1462" on="1"/>
        <pt x="1503" y="0" on="1"/>
        <pt x="1223" y="0" on="1"/>
        <pt x="1368" y="692" on="1"/>
        <pt x="1420" y="940" on="0"/>
        <pt x="1473" y="1133" on="1"/>
        <pt x="1468" y="1133" on="1"/>
        <pt x="899" y="0" on="1"/>
        <pt x="618" y="0" on="1"/>
        <pt x="557" y="1133" on="1"/>
        <pt x="553" y="1133" on="1"/>
        <pt x="543" y="1052" on="0"/>
        <pt x="483" y="732" on="0"/>
        <pt x="328" y="0" on="1"/>
        <pt x="53" y="0" on="1"/>
        <pt x="362" y="1462" on="1"/>
        <pt x="766" y="1462" on="1"/>
        <pt x="834" y="369" on="1"/>
        <pt x="838" y="369" on="1"/>
      </contour>
    </TTGlyph>
    <TTGlyph name="N" xMin="53" yMin="0" xMax="1556" yMax="1462">
      <contour>
        <pt x="905" y="0" on="1"/>
        <pt x="549" y="1106" on="1"/>
        <pt x="543" y="1106" on="1"/>
        <pt x="539" y="1074" on="1"/>
        <pt x="507" y="856" on="0"/>
        <pt x="473" y="688" on="1"/>
        <pt x="328" y="0" on="1"/>
        <pt x="53" y="0" on="1"/>
        <pt x="362" y="1462" on="1"/>
        <pt x="719" y="1462" on="1"/>
        <pt x="1059" y="385" on="1"/>
        <pt x="1063" y="385" on="1"/>
        <pt x="1075" y="459" on="0"/>
        <pt x="1130" y="748" on="0"/>
        <pt x="1282" y="1462" on="1"/>
        <pt x="1556" y="1462" on="1"/>
        <pt x="1247" y="0" on="1"/>
      </contour>
    </TTGlyph>
    <TTGlyph name="Ntilde" xMin="53" yMin="0" xMax="1556" yMax="1888">
      <contour>
        <pt x="1114" y="1579" on="1"/>
        <pt x="1070" y="1579" on="0"/>
        <pt x="985" y="1612" on="0"/>
        <pt x="958" y="1632" on="1"/>
        <pt x="883" y="1684" on="0"/>
        <pt x="834" y="1684" on="1"/>
        <pt x="803" y="1684" on="0"/>
        <pt x="754" y="1628" on="0"/>
        <pt x="740" y="1577" on="1"/>
        <pt x="563" y="1577" on="1"/>
        <pt x="622" y="1886" on="0"/>
        <pt x="844" y="1886" on="1"/>
        <pt x="888" y="1886" on="0"/>
        <pt x="975" y="1854" on="0"/>
        <pt x="1003" y="1834" on="1"/>
        <pt x="1076" y="1782" on="0"/>
        <pt x="1125" y="1782" on="1"/>
        <pt x="1158" y="1782" on="0"/>
        <pt x="1207" y="1832" on="0"/>
        <pt x="1229" y="1888" on="1"/>
        <pt x="1401" y="1888" on="1"/>
        <pt x="1335" y="1579" on="0"/>
      </contour>
      <contour>
        <pt x="549" y="1106" on="1"/>
        <pt x="543" y="1106" on="1"/>
        <pt x="539" y="1074" on="1"/>
        <pt x="507" y="856" on="0"/>
        <pt x="473" y="688" on="1"/>
        <pt x="328" y="0" on="1"/>
        <pt x="53" y="0" on="1"/>
        <pt x="362" y="1462" on="1"/>
        <pt x="719" y="1462" on="1"/>
        <pt x="1059" y="385" on="1"/>
        <pt x="1063" y="385" on="1"/>
        <pt x="1075" y="459" on="0"/>
        <pt x="1130" y="748" on="0"/>
        <pt x="1282" y="1462" on="1"/>
        <pt x="1556" y="1462" on="1"/>
        <pt x="1247" y="0" on="1"/>
        <pt x="905" y="0" on="1"/>
      </contour>
    </TTGlyph>
    <TTGlyph name="O" xMin="123" yMin="-20" xMax="1432" yMax="1485">
      <contour>
        <pt x="1432" y="938" on="1"/>
        <pt x="1432" y="654" on="0"/>
        <pt x="1235" y="210" on="0"/>
        <pt x="892" y="-20" on="0"/>
        <pt x="666" y="-20" on="1"/>
        <pt x="410" y="-20" on="0"/>
        <pt x="266" y="127" on="1"/>
        <pt x="123" y="276" on="0"/>
        <pt x="123" y="802" on="0"/>
        <pt x="321" y="1247" on="0"/>
        <pt x="669" y="1485" on="0"/>
        <pt x="897" y="1485" on="1"/>
        <pt x="1152" y="1485" on="0"/>
        <pt x="1432" y="1196" on="0"/>
      </contour>
      <contour>
        <pt x="1120" y="1072" on="0"/>
        <pt x="990" y="1227" on="0"/>
        <pt x="751" y="1227" on="0"/>
        <pt x="549" y="1043" on="0"/>
        <pt x="434" y="724" on="0"/>
        <pt x="434" y="537" on="1"/>
        <pt x="434" y="391" on="0"/>
        <pt x="566" y="240" on="0"/>
        <pt x="809" y="240" on="0"/>
        <pt x="1008" y="414" on="0"/>
        <pt x="1120" y="733" on="0"/>
        <pt x="1120" y="930" on="1"/>
      </contour>
    </TTGlyph>
    <TTGlyph name="OE" xMin="123" yMin="-20" xMax="1915" yMax="1485">
      <contour>
        <pt x="666" y="-20" on="1"/>
        <pt x="410" y="-20" on="0"/>
        <pt x="266" y="127" on="1"/>
        <pt x="123" y="276" on="0"/>
        <pt x="123" y="802" on="0"/>
        <pt x="321" y="1247" on="0"/>
        <pt x="669" y="1485" on="0"/>
        <pt x="897" y="1485" on="1"/>
        <pt x="1035" y="1485" on="0"/>
        <pt x="1106" y="1462" on="1"/>
        <pt x="1915" y="1462" on="1"/>
        <pt x="1862" y="1208" on="1"/>
        <pt x="1350" y="1208" on="1"/>
        <pt x="1282" y="887" on="1"/>
        <pt x="1759" y="887" on="1"/>
        <pt x="1704" y="633" on="1"/>
        <pt x="1227" y="633" on="1"/>
        <pt x="1147" y="256" on="1"/>
        <pt x="1659" y="256" on="1"/>
        <pt x="1606" y="0" on="1"/>
        <pt x="846" y="0" on="1"/>
        <pt x="751" y="-20" on="0"/>
      </contour>
      <contour>
        <pt x="1040" y="1188" on="1"/>
        <pt x="978" y="1227" on="0"/>
        <pt x="751" y="1227" on="0"/>
        <pt x="549" y="1043" on="0"/>
        <pt x="434" y="724" on="0"/>
        <pt x="434" y="537" on="1"/>
        <pt x="434" y="391" on="0"/>
        <pt x="566" y="240" on="0"/>
        <pt x="688" y="240" on="1"/>
        <pt x="774" y="240" on="0"/>
        <pt x="846" y="272" on="1"/>
      </contour>
    </TTGlyph>
    <TTGlyph name="Oacute" xMin="123" yMin="-20" xMax="1432" yMax="1907">
      <contour>
        <pt x="753" y="1579" on="1"/>
        <pt x="753" y="1604" on="1"/>
        <pt x="832" y="1692" on="0"/>
        <pt x="975" y="1907" on="1"/>
        <pt x="1310" y="1907" on="1"/>
        <pt x="1310" y="1890" on="1"/>
        <pt x="1262" y="1833" on="0"/>
        <pt x="1047" y="1640" on="0"/>
        <pt x="962" y="1579" on="1"/>
      </contour>
      <contour>
        <pt x="1432" y="938" on="1"/>
        <pt x="1432" y="654" on="0"/>
        <pt x="1235" y="210" on="0"/>
        <pt x="892" y="-20" on="0"/>
        <pt x="666" y="-20" on="1"/>
        <pt x="410" y="-20" on="0"/>
        <pt x="266" y="127" on="1"/>
        <pt x="123" y="276" on="0"/>
        <pt x="123" y="802" on="0"/>
        <pt x="321" y="1247" on="0"/>
        <pt x="669" y="1485" on="0"/>
        <pt x="897" y="1485" on="1"/>
        <pt x="1152" y="1485" on="0"/>
        <pt x="1432" y="1196" on="0"/>
      </contour>
      <contour>
        <pt x="1120" y="1072" on="0"/>
        <pt x="990" y="1227" on="0"/>
        <pt x="751" y="1227" on="0"/>
        <pt x="549" y="1043" on="0"/>
        <pt x="434" y="724" on="0"/>
        <pt x="434" y="537" on="1"/>
        <pt x="434" y="391" on="0"/>
        <pt x="566" y="240" on="0"/>
        <pt x="809" y="240" on="0"/>
        <pt x="1008" y="414" on="0"/>
        <pt x="1120" y="733" on="0"/>
        <pt x="1120" y="930" on="1"/>
      </contour>
    </TTGlyph>
    <TTGlyph name="Ocircumflex" xMin="123" yMin="-20" xMax="1432" yMax="1907">
      <contour>
        <pt x="1132" y="1907" on="1"/>
        <pt x="1186" y="1779" on="0"/>
        <pt x="1308" y="1604" on="1"/>
        <pt x="1308" y="1579" on="1"/>
        <pt x="1110" y="1579" on="1"/>
        <pt x="1047" y="1632" on="0"/>
        <pt x="948" y="1747" on="1"/>
        <pt x="842" y="1657" on="0"/>
        <pt x="716" y="1579" on="1"/>
        <pt x="499" y="1579" on="1"/>
        <pt x="499" y="1604" on="1"/>
        <pt x="562" y="1661" on="0"/>
        <pt x="740" y="1839" on="0"/>
        <pt x="794" y="1907" on="1"/>
      </contour>
      <contour>
        <pt x="1432" y="938" on="1"/>
        <pt x="1432" y="654" on="0"/>
        <pt x="1235" y="210" on="0"/>
        <pt x="892" y="-20" on="0"/>
        <pt x="666" y="-20" on="1"/>
        <pt x="410" y="-20" on="0"/>
        <pt x="266" y="127" on="1"/>
        <pt x="123" y="276" on="0"/>
        <pt x="123" y="802" on="0"/>
        <pt x="321" y="1247" on="0"/>
        <pt x="669" y="1485" on="0"/>
        <pt x="897" y="1485" on="1"/>
        <pt x="1152" y="1485" on="0"/>
        <pt x="1432" y="1196" on="0"/>
      </contour>
      <contour>
        <pt x="1120" y="1072" on="0"/>
        <pt x="990" y="1227" on="0"/>
        <pt x="751" y="1227" on="0"/>
        <pt x="549" y="1043" on="0"/>
        <pt x="434" y="724" on="0"/>
        <pt x="434" y="537" on="1"/>
        <pt x="434" y="391" on="0"/>
        <pt x="566" y="240" on="0"/>
        <pt x="809" y="240" on="0"/>
        <pt x="1008" y="414" on="0"/>
        <pt x="1120" y="733" on="0"/>
        <pt x="1120" y="930" on="1"/>
      </contour>
    </TTGlyph>
    <TTGlyph name="Odieresis" xMin="123" yMin="-20" xMax="1432" yMax="1878">
      <contour>
        <pt x="585" y="1720" on="1"/>
        <pt x="585" y="1797" on="0"/>
        <pt x="669" y="1878" on="0"/>
        <pt x="747" y="1878" on="1"/>
        <pt x="880" y="1878" on="0"/>
        <pt x="880" y="1770" on="1"/>
        <pt x="880" y="1695" on="0"/>
        <pt x="800" y="1610" on="0"/>
        <pt x="720" y="1610" on="1"/>
        <pt x="585" y="1610" on="0"/>
      </contour>
      <contour>
        <pt x="987" y="1720" on="1"/>
        <pt x="987" y="1798" on="0"/>
        <pt x="1071" y="1878" on="0"/>
        <pt x="1142" y="1878" on="1"/>
        <pt x="1282" y="1878" on="0"/>
        <pt x="1282" y="1770" on="1"/>
        <pt x="1282" y="1695" on="0"/>
        <pt x="1201" y="1610" on="0"/>
        <pt x="1122" y="1610" on="1"/>
        <pt x="987" y="1610" on="0"/>
      </contour>
      <contour>
        <pt x="1432" y="938" on="1"/>
        <pt x="1432" y="654" on="0"/>
        <pt x="1235" y="210" on="0"/>
        <pt x="892" y="-20" on="0"/>
        <pt x="666" y="-20" on="1"/>
        <pt x="410" y="-20" on="0"/>
        <pt x="266" y="127" on="1"/>
        <pt x="123" y="276" on="0"/>
        <pt x="123" y="802" on="0"/>
        <pt x="321" y="1247" on="0"/>
        <pt x="669" y="1485" on="0"/>
        <pt x="897" y="1485" on="1"/>
        <pt x="1152" y="1485" on="0"/>
        <pt x="1432" y="1196" on="0"/>
      </contour>
      <contour>
        <pt x="1120" y="1072" on="0"/>
        <pt x="990" y="1227" on="0"/>
        <pt x="751" y="1227" on="0"/>
        <pt x="549" y="1043" on="0"/>
        <pt x="434" y="724" on="0"/>
        <pt x="434" y="537" on="1"/>
        <pt x="434" y="391" on="0"/>
        <pt x="566" y="240" on="0"/>
        <pt x="809" y="240" on="0"/>
        <pt x="1008" y="414" on="0"/>
        <pt x="1120" y="733" on="0"/>
        <pt x="1120" y="930" on="1"/>
      </contour>
    </TTGlyph>
    <TTGlyph name="Ograve" xMin="123" yMin="-20" xMax="1432" yMax="1907">
      <contour>
        <pt x="869" y="1579" on="1"/>
        <pt x="700" y="1745" on="0"/>
        <pt x="627" y="1886" on="1"/>
        <pt x="627" y="1907" on="1"/>
        <pt x="938" y="1907" on="1"/>
        <pt x="974" y="1757" on="0"/>
        <pt x="1053" y="1604" on="1"/>
        <pt x="1053" y="1579" on="1"/>
      </contour>
      <contour>
        <pt x="1432" y="938" on="1"/>
        <pt x="1432" y="654" on="0"/>
        <pt x="1235" y="210" on="0"/>
        <pt x="892" y="-20" on="0"/>
        <pt x="666" y="-20" on="1"/>
        <pt x="410" y="-20" on="0"/>
        <pt x="266" y="127" on="1"/>
        <pt x="123" y="276" on="0"/>
        <pt x="123" y="802" on="0"/>
        <pt x="321" y="1247" on="0"/>
        <pt x="669" y="1485" on="0"/>
        <pt x="897" y="1485" on="1"/>
        <pt x="1152" y="1485" on="0"/>
        <pt x="1432" y="1196" on="0"/>
      </contour>
      <contour>
        <pt x="1120" y="1072" on="0"/>
        <pt x="990" y="1227" on="0"/>
        <pt x="751" y="1227" on="0"/>
        <pt x="549" y="1043" on="0"/>
        <pt x="434" y="724" on="0"/>
        <pt x="434" y="537" on="1"/>
        <pt x="434" y="391" on="0"/>
        <pt x="566" y="240" on="0"/>
        <pt x="809" y="240" on="0"/>
        <pt x="1008" y="414" on="0"/>
        <pt x="1120" y="733" on="0"/>
        <pt x="1120" y="930" on="1"/>
      </contour>
    </TTGlyph>
    <TTGlyph name="Oslash" xMin="100" yMin="-86" xMax="1458" yMax="1540">
      <contour>
        <pt x="1432" y="938" on="1"/>
        <pt x="1432" y="654" on="0"/>
        <pt x="1235" y="210" on="0"/>
        <pt x="892" y="-20" on="0"/>
        <pt x="666" y="-20" on="1"/>
        <pt x="487" y="-20" on="0"/>
        <pt x="362" y="51" on="1"/>
        <pt x="254" y="-86" on="1"/>
        <pt x="100" y="29" on="1"/>
        <pt x="221" y="180" on="1"/>
        <pt x="123" y="319" on="0"/>
        <pt x="123" y="537" on="1"/>
        <pt x="123" y="802" on="0"/>
        <pt x="321" y="1247" on="0"/>
        <pt x="669" y="1485" on="0"/>
        <pt x="897" y="1485" on="1"/>
        <pt x="1080" y="1485" on="0"/>
        <pt x="1202" y="1409" on="1"/>
        <pt x="1307" y="1540" on="1"/>
        <pt x="1458" y="1423" on="1"/>
        <pt x="1341" y="1278" on="1"/>
        <pt x="1432" y="1145" on="0"/>
      </contour>
      <contour>
        <pt x="870" y="1233" on="1"/>
        <pt x="745" y="1233" on="0"/>
        <pt x="538" y="1050" on="0"/>
        <pt x="424" y="728" on="0"/>
        <pt x="424" y="537" on="1"/>
        <pt x="424" y="510" on="0"/>
        <pt x="432" y="436" on="1"/>
        <pt x="1028" y="1190" on="1"/>
        <pt x="960" y="1233" on="0"/>
      </contour>
      <contour>
        <pt x="697" y="233" on="1"/>
        <pt x="817" y="233" on="0"/>
        <pt x="1019" y="410" on="0"/>
        <pt x="1133" y="725" on="0"/>
        <pt x="1133" y="911" on="1"/>
        <pt x="1133" y="920" on="0"/>
        <pt x="1133" y="930" on="1"/>
        <pt x="1128" y="1010" on="1"/>
        <pt x="539" y="270" on="1"/>
        <pt x="597" y="233" on="0"/>
        <pt x="692" y="233" on="1"/>
        <pt x="695" y="233" on="0"/>
      </contour>
    </TTGlyph>
    <TTGlyph name="Otilde" xMin="123" yMin="-20" xMax="1432" yMax="1888">
      <contour>
        <pt x="1071" y="1579" on="1"/>
        <pt x="1027" y="1579" on="0"/>
        <pt x="942" y="1612" on="0"/>
        <pt x="914" y="1632" on="1"/>
        <pt x="840" y="1684" on="0"/>
        <pt x="791" y="1684" on="1"/>
        <pt x="760" y="1684" on="0"/>
        <pt x="711" y="1628" on="0"/>
        <pt x="697" y="1577" on="1"/>
        <pt x="520" y="1577" on="1"/>
        <pt x="578" y="1886" on="0"/>
        <pt x="801" y="1886" on="1"/>
        <pt x="845" y="1886" on="0"/>
        <pt x="932" y="1854" on="0"/>
        <pt x="960" y="1834" on="1"/>
        <pt x="1033" y="1782" on="0"/>
        <pt x="1082" y="1782" on="1"/>
        <pt x="1115" y="1782" on="0"/>
        <pt x="1164" y="1832" on="0"/>
        <pt x="1186" y="1888" on="1"/>
        <pt x="1358" y="1888" on="1"/>
        <pt x="1292" y="1579" on="0"/>
      </contour>
      <contour>
        <pt x="1432" y="938" on="1"/>
        <pt x="1432" y="654" on="0"/>
        <pt x="1235" y="210" on="0"/>
        <pt x="892" y="-20" on="0"/>
        <pt x="666" y="-20" on="1"/>
        <pt x="410" y="-20" on="0"/>
        <pt x="266" y="127" on="1"/>
        <pt x="123" y="276" on="0"/>
        <pt x="123" y="802" on="0"/>
        <pt x="321" y="1247" on="0"/>
        <pt x="669" y="1485" on="0"/>
        <pt x="897" y="1485" on="1"/>
        <pt x="1152" y="1485" on="0"/>
        <pt x="1432" y="1196" on="0"/>
      </contour>
      <contour>
        <pt x="1120" y="1072" on="0"/>
        <pt x="990" y="1227" on="0"/>
        <pt x="751" y="1227" on="0"/>
        <pt x="549" y="1043" on="0"/>
        <pt x="434" y="724" on="0"/>
        <pt x="434" y="537" on="1"/>
        <pt x="434" y="391" on="0"/>
        <pt x="566" y="240" on="0"/>
        <pt x="809" y="240" on="0"/>
        <pt x="1008" y="414" on="0"/>
        <pt x="1120" y="733" on="0"/>
        <pt x="1120" y="930" on="1"/>
      </contour>
    </TTGlyph>
    <TTGlyph name="P" xMin="53" yMin="0" xMax="1190" yMax="1462">
      <contour>
        <pt x="700" y="1462" on="1"/>
        <pt x="1190" y="1462" on="0"/>
        <pt x="1190" y="1036" on="1"/>
        <pt x="1190" y="795" on="0"/>
        <pt x="850" y="520" on="0"/>
        <pt x="553" y="520" on="1"/>
        <pt x="467" y="520" on="1"/>
        <pt x="358" y="0" on="1"/>
        <pt x="53" y="0" on="1"/>
        <pt x="362" y="1462" on="1"/>
      </contour>
      <contour>
        <pt x="578" y="774" on="1"/>
        <pt x="720" y="774" on="0"/>
        <pt x="883" y="912" on="0"/>
        <pt x="883" y="1028" on="1"/>
        <pt x="883" y="1208" on="0"/>
        <pt x="688" y="1208" on="1"/>
        <pt x="614" y="1208" on="1"/>
        <pt x="522" y="774" on="1"/>
      </contour>
    </TTGlyph>
    <TTGlyph name="Q" xMin="123" yMin="-348" xMax="1432" yMax="1485">
      <contour>
        <pt x="666" y="-20" on="1"/>
        <pt x="410" y="-20" on="0"/>
        <pt x="266" y="127" on="1"/>
        <pt x="123" y="276" on="0"/>
        <pt x="123" y="802" on="0"/>
        <pt x="321" y="1247" on="0"/>
        <pt x="669" y="1485" on="0"/>
        <pt x="897" y="1485" on="1"/>
        <pt x="1152" y="1485" on="0"/>
        <pt x="1432" y="1196" on="0"/>
        <pt x="1432" y="938" on="1"/>
        <pt x="1432" y="622" on="0"/>
        <pt x="1187" y="143" on="0"/>
        <pt x="975" y="45" on="1"/>
        <pt x="1229" y="-348" on="1"/>
        <pt x="870" y="-348" on="1"/>
        <pt x="692" y="-20" on="1"/>
      </contour>
      <contour>
        <pt x="1120" y="1072" on="0"/>
        <pt x="990" y="1227" on="0"/>
        <pt x="751" y="1227" on="0"/>
        <pt x="549" y="1043" on="0"/>
        <pt x="434" y="724" on="0"/>
        <pt x="434" y="537" on="1"/>
        <pt x="434" y="391" on="0"/>
        <pt x="566" y="240" on="0"/>
        <pt x="809" y="240" on="0"/>
        <pt x="1008" y="414" on="0"/>
        <pt x="1120" y="733" on="0"/>
        <pt x="1120" y="930" on="1"/>
      </contour>
    </TTGlyph>
    <TTGlyph name="R" xMin="53" yMin="0" xMax="1196" yMax="1462">
      <contour>
        <pt x="721" y="1462" on="1"/>
        <pt x="957" y="1462" on="0"/>
        <pt x="1196" y="1259" on="0"/>
        <pt x="1196" y="1061" on="1"/>
        <pt x="1196" y="903" on="0"/>
        <pt x="1030" y="676" on="0"/>
        <pt x="874" y="621" on="1"/>
        <pt x="1135" y="0" on="1"/>
        <pt x="803" y="0" on="1"/>
        <pt x="596" y="561" on="1"/>
        <pt x="477" y="561" on="1"/>
        <pt x="358" y="0" on="1"/>
        <pt x="53" y="0" on="1"/>
        <pt x="362" y="1462" on="1"/>
      </contour>
      <contour>
        <pt x="608" y="813" on="1"/>
        <pt x="742" y="813" on="0"/>
        <pt x="885" y="929" on="0"/>
        <pt x="885" y="1044" on="1"/>
        <pt x="885" y="1127" on="0"/>
        <pt x="789" y="1208" on="0"/>
        <pt x="688" y="1208" on="1"/>
        <pt x="614" y="1208" on="1"/>
        <pt x="530" y="813" on="1"/>
      </contour>
    </TTGlyph>
    <TTGlyph name="S" xMin="41" yMin="-20" xMax="1110" yMax="1483">
      <contour>
        <pt x="713" y="1225" on="1"/>
        <pt x="630" y="1225" on="0"/>
        <pt x="524" y="1135" on="0"/>
        <pt x="524" y="1001" on="0"/>
        <pt x="590" y="908" on="0"/>
        <pt x="705" y="834" on="1"/>
        <pt x="828" y="752" on="0"/>
        <pt x="946" y="559" on="0"/>
        <pt x="946" y="432" on="1"/>
        <pt x="946" y="222" on="0"/>
        <pt x="650" y="-20" on="0"/>
        <pt x="397" y="-20" on="1"/>
        <pt x="176" y="-20" on="0"/>
        <pt x="41" y="70" on="1"/>
        <pt x="41" y="344" on="1"/>
        <pt x="235" y="236" on="0"/>
        <pt x="399" y="236" on="1"/>
        <pt x="511" y="236" on="0"/>
        <pt x="637" y="321" on="0"/>
        <pt x="637" y="395" on="1"/>
        <pt x="637" y="472" on="0"/>
        <pt x="585" y="531" on="1"/>
        <pt x="559" y="561" on="0"/>
        <pt x="461" y="633" on="1"/>
        <pt x="322" y="733" on="0"/>
        <pt x="211" y="927" on="0"/>
        <pt x="211" y="1038" on="1"/>
        <pt x="211" y="1042" on="0"/>
        <pt x="211" y="1046" on="1"/>
        <pt x="211" y="1235" on="0"/>
        <pt x="488" y="1483" on="0"/>
        <pt x="703" y="1483" on="1"/>
        <pt x="708" y="1483" on="0"/>
        <pt x="713" y="1483" on="1"/>
        <pt x="930" y="1483" on="0"/>
        <pt x="1110" y="1384" on="1"/>
        <pt x="1001" y="1151" on="1"/>
        <pt x="844" y="1225" on="0"/>
      </contour>
    </TTGlyph>
    <TTGlyph name="T" xMin="168" yMin="0" xMax="1233" yMax="1462">
      <contour>
        <pt x="266" y="0" on="1"/>
        <pt x="520" y="1204" on="1"/>
        <pt x="168" y="1204" on="1"/>
        <pt x="223" y="1462" on="1"/>
        <pt x="1233" y="1462" on="1"/>
        <pt x="1178" y="1204" on="1"/>
        <pt x="825" y="1204" on="1"/>
        <pt x="571" y="0" on="1"/>
      </contour>
    </TTGlyph>
    <TTGlyph name="U" xMin="141" yMin="-20" xMax="1434" yMax="1462">
      <contour>
        <pt x="596" y="-20" on="1"/>
        <pt x="384" y="-20" on="0"/>
        <pt x="262" y="93" on="1"/>
        <pt x="141" y="207" on="0"/>
        <pt x="141" y="401" on="1"/>
        <pt x="141" y="473" on="0"/>
        <pt x="156" y="539" on="1"/>
        <pt x="352" y="1462" on="1"/>
        <pt x="657" y="1462" on="1"/>
        <pt x="463" y="543" on="1"/>
        <pt x="446" y="467" on="0"/>
        <pt x="446" y="418" on="1"/>
        <pt x="446" y="240" on="0"/>
        <pt x="635" y="240" on="1"/>
        <pt x="757" y="240" on="0"/>
        <pt x="901" y="391" on="0"/>
        <pt x="934" y="545" on="1"/>
        <pt x="1128" y="1462" on="1"/>
        <pt x="1434" y="1462" on="1"/>
        <pt x="1233" y="516" on="1"/>
        <pt x="1176" y="250" on="0"/>
        <pt x="854" y="-20" on="0"/>
      </contour>
    </TTGlyph>
    <TTGlyph name="Uacute" xMin="141" yMin="-20" xMax="1434" yMax="1907">
      <contour>
        <pt x="757" y="1579" on="1"/>
        <pt x="757" y="1604" on="1"/>
        <pt x="836" y="1692" on="0"/>
        <pt x="979" y="1907" on="1"/>
        <pt x="1314" y="1907" on="1"/>
        <pt x="1314" y="1890" on="1"/>
        <pt x="1266" y="1833" on="0"/>
        <pt x="1051" y="1640" on="0"/>
        <pt x="966" y="1579" on="1"/>
      </contour>
      <contour>
        <pt x="596" y="-20" on="1"/>
        <pt x="384" y="-20" on="0"/>
        <pt x="262" y="93" on="1"/>
        <pt x="141" y="207" on="0"/>
        <pt x="141" y="401" on="1"/>
        <pt x="141" y="473" on="0"/>
        <pt x="156" y="539" on="1"/>
        <pt x="352" y="1462" on="1"/>
        <pt x="657" y="1462" on="1"/>
        <pt x="463" y="543" on="1"/>
        <pt x="446" y="467" on="0"/>
        <pt x="446" y="418" on="1"/>
        <pt x="446" y="240" on="0"/>
        <pt x="635" y="240" on="1"/>
        <pt x="757" y="240" on="0"/>
        <pt x="901" y="391" on="0"/>
        <pt x="934" y="545" on="1"/>
        <pt x="1128" y="1462" on="1"/>
        <pt x="1434" y="1462" on="1"/>
        <pt x="1233" y="516" on="1"/>
        <pt x="1176" y="250" on="0"/>
        <pt x="854" y="-20" on="0"/>
      </contour>
    </TTGlyph>
    <TTGlyph name="Ucircumflex" xMin="141" yMin="-20" xMax="1434" yMax="1907">
      <contour>
        <pt x="1108" y="1907" on="1"/>
        <pt x="1162" y="1779" on="0"/>
        <pt x="1284" y="1604" on="1"/>
        <pt x="1284" y="1579" on="1"/>
        <pt x="1086" y="1579" on="1"/>
        <pt x="1023" y="1632" on="0"/>
        <pt x="924" y="1747" on="1"/>
        <pt x="818" y="1657" on="0"/>
        <pt x="692" y="1579" on="1"/>
        <pt x="475" y="1579" on="1"/>
        <pt x="475" y="1604" on="1"/>
        <pt x="538" y="1661" on="0"/>
        <pt x="716" y="1839" on="0"/>
        <pt x="770" y="1907" on="1"/>
      </contour>
      <contour>
        <pt x="596" y="-20" on="1"/>
        <pt x="384" y="-20" on="0"/>
        <pt x="262" y="93" on="1"/>
        <pt x="141" y="207" on="0"/>
        <pt x="141" y="401" on="1"/>
        <pt x="141" y="473" on="0"/>
        <pt x="156" y="539" on="1"/>
        <pt x="352" y="1462" on="1"/>
        <pt x="657" y="1462" on="1"/>
        <pt x="463" y="543" on="1"/>
        <pt x="446" y="467" on="0"/>
        <pt x="446" y="418" on="1"/>
        <pt x="446" y="240" on="0"/>
        <pt x="635" y="240" on="1"/>
        <pt x="757" y="240" on="0"/>
        <pt x="901" y="391" on="0"/>
        <pt x="934" y="545" on="1"/>
        <pt x="1128" y="1462" on="1"/>
        <pt x="1434" y="1462" on="1"/>
        <pt x="1233" y="516" on="1"/>
        <pt x="1176" y="250" on="0"/>
        <pt x="854" y="-20" on="0"/>
      </contour>
    </TTGlyph>
    <TTGlyph name="Udieresis" xMin="141" yMin="-20" xMax="1434" yMax="1878">
      <contour>
        <pt x="565" y="1720" on="1"/>
        <pt x="565" y="1797" on="0"/>
        <pt x="649" y="1878" on="0"/>
        <pt x="727" y="1878" on="1"/>
        <pt x="860" y="1878" on="0"/>
        <pt x="860" y="1770" on="1"/>
        <pt x="860" y="1695" on="0"/>
        <pt x="780" y="1610" on="0"/>
        <pt x="700" y="1610" on="1"/>
        <pt x="565" y="1610" on="0"/>
      </contour>
      <contour>
        <pt x="967" y="1720" on="1"/>
        <pt x="967" y="1798" on="0"/>
        <pt x="1051" y="1878" on="0"/>
        <pt x="1122" y="1878" on="1"/>
        <pt x="1262" y="1878" on="0"/>
        <pt x="1262" y="1770" on="1"/>
        <pt x="1262" y="1695" on="0"/>
        <pt x="1181" y="1610" on="0"/>
        <pt x="1102" y="1610" on="1"/>
        <pt x="967" y="1610" on="0"/>
      </contour>
      <contour>
        <pt x="596" y="-20" on="1"/>
        <pt x="384" y="-20" on="0"/>
        <pt x="262" y="93" on="1"/>
        <pt x="141" y="207" on="0"/>
        <pt x="141" y="401" on="1"/>
        <pt x="141" y="473" on="0"/>
        <pt x="156" y="539" on="1"/>
        <pt x="352" y="1462" on="1"/>
        <pt x="657" y="1462" on="1"/>
        <pt x="463" y="543" on="1"/>
        <pt x="446" y="467" on="0"/>
        <pt x="446" y="418" on="1"/>
        <pt x="446" y="240" on="0"/>
        <pt x="635" y="240" on="1"/>
        <pt x="757" y="240" on="0"/>
        <pt x="901" y="391" on="0"/>
        <pt x="934" y="545" on="1"/>
        <pt x="1128" y="1462" on="1"/>
        <pt x="1434" y="1462" on="1"/>
        <pt x="1233" y="516" on="1"/>
        <pt x="1176" y="250" on="0"/>
        <pt x="854" y="-20" on="0"/>
      </contour>
    </TTGlyph>
    <TTGlyph name="Ugrave" xMin="141" yMin="-20" xMax="1434" yMax="1907">
      <contour>
        <pt x="818" y="1579" on="1"/>
        <pt x="649" y="1745" on="0"/>
        <pt x="576" y="1886" on="1"/>
        <pt x="576" y="1907" on="1"/>
        <pt x="887" y="1907" on="1"/>
        <pt x="923" y="1757" on="0"/>
        <pt x="1002" y="1604" on="1"/>
        <pt x="1002" y="1579" on="1"/>
      </contour>
      <contour>
        <pt x="596" y="-20" on="1"/>
        <pt x="384" y="-20" on="0"/>
        <pt x="262" y="93" on="1"/>
        <pt x="141" y="207" on="0"/>
        <pt x="141" y="401" on="1"/>
        <pt x="141" y="473" on="0"/>
        <pt x="156" y="539" on="1"/>
        <pt x="352" y="1462" on="1"/>
        <pt x="657" y="1462" on="1"/>
        <pt x="463" y="543" on="1"/>
        <pt x="446" y="467" on="0"/>
        <pt x="446" y="418" on="1"/>
        <pt x="446" y="240" on="0"/>
        <pt x="635" y="240" on="1"/>
        <pt x="757" y="240" on="0"/>
        <pt x="901" y="391" on="0"/>
        <pt x="934" y="545" on="1"/>
        <pt x="1128" y="1462" on="1"/>
        <pt x="1434" y="1462" on="1"/>
        <pt x="1233" y="516" on="1"/>
        <pt x="1176" y="250" on="0"/>
        <pt x="854" y="-20" on="0"/>
      </contour>
    </TTGlyph>
    <TTGlyph name="V" xMin="184" yMin="0" xMax="1393" yMax="1462">
      <contour>
        <pt x="528" y="299" on="1"/>
        <pt x="535" y="299" on="1"/>
        <pt x="613" y="520" on="0"/>
        <pt x="645" y="582" on="1"/>
        <pt x="1077" y="1462" on="1"/>
        <pt x="1393" y="1462" on="1"/>
        <pt x="645" y="0" on="1"/>
        <pt x="311" y="0" on="1"/>
        <pt x="184" y="1462" on="1"/>
        <pt x="479" y="1462" on="1"/>
        <pt x="530" y="582" on="1"/>
        <pt x="534" y="542" on="0"/>
        <pt x="532" y="346" on="0"/>
      </contour>
    </TTGlyph>
    <TTGlyph name="W" xMin="184" yMin="0" xMax="2023" yMax="1462">
      <contour>
        <pt x="477" y="1462" on="1"/>
        <pt x="477" y="664" on="1"/>
        <pt x="477" y="599" on="0"/>
        <pt x="468" y="363" on="0"/>
        <pt x="463" y="317" on="1"/>
        <pt x="469" y="317" on="1"/>
        <pt x="496" y="394" on="0"/>
        <pt x="582" y="616" on="0"/>
        <pt x="596" y="643" on="1"/>
        <pt x="965" y="1462" on="1"/>
        <pt x="1235" y="1462" on="1"/>
        <pt x="1256" y="589" on="1"/>
        <pt x="1256" y="443" on="0"/>
        <pt x="1247" y="317" on="1"/>
        <pt x="1253" y="317" on="1"/>
        <pt x="1301" y="458" on="0"/>
        <pt x="1384" y="666" on="1"/>
        <pt x="1714" y="1462" on="1"/>
        <pt x="2023" y="1462" on="1"/>
        <pt x="1376" y="0" on="1"/>
        <pt x="1030" y="0" on="1"/>
        <pt x="1008" y="721" on="1"/>
        <pt x="1006" y="860" on="1"/>
        <pt x="1006" y="955" on="0"/>
        <pt x="1010" y="1018" on="1"/>
        <pt x="1006" y="1018" on="1"/>
        <pt x="958" y="867" on="0"/>
        <pt x="891" y="719" on="1"/>
        <pt x="567" y="0" on="1"/>
        <pt x="229" y="0" on="1"/>
        <pt x="184" y="1462" on="1"/>
      </contour>
    </TTGlyph>
    <TTGlyph name="X" xMin="-117" yMin="0" xMax="1401" yMax="1462">
      <contour>
        <pt x="793" y="0" on="1"/>
        <pt x="621" y="543" on="1"/>
        <pt x="225" y="0" on="1"/>
        <pt x="-117" y="0" on="1"/>
        <pt x="459" y="764" on="1"/>
        <pt x="221" y="1462" on="1"/>
        <pt x="541" y="1462" on="1"/>
        <pt x="694" y="944" on="1"/>
        <pt x="1057" y="1462" on="1"/>
        <pt x="1401" y="1462" on="1"/>
        <pt x="856" y="737" on="1"/>
        <pt x="1124" y="0" on="1"/>
      </contour>
    </TTGlyph>
    <TTGlyph name="Y" xMin="186" yMin="0" xMax="1343" yMax="1462">
      <contour>
        <pt x="1001" y="1462" on="1"/>
        <pt x="1343" y="1462" on="1"/>
        <pt x="725" y="559" on="1"/>
        <pt x="606" y="0" on="1"/>
        <pt x="303" y="0" on="1"/>
        <pt x="422" y="559" on="1"/>
        <pt x="186" y="1462" on="1"/>
        <pt x="498" y="1462" on="1"/>
        <pt x="627" y="870" on="1"/>
      </contour>
    </TTGlyph>
    <TTGlyph name="Ydieresis" xMin="186" yMin="0" xMax="1343" yMax="1878">
      <contour>
        <pt x="432" y="1720" on="1"/>
        <pt x="432" y="1797" on="0"/>
        <pt x="516" y="1878" on="0"/>
        <pt x="594" y="1878" on="1"/>
        <pt x="727" y="1878" on="0"/>
        <pt x="727" y="1770" on="1"/>
        <pt x="727" y="1695" on="0"/>
        <pt x="647" y="1610" on="0"/>
        <pt x="567" y="1610" on="1"/>
        <pt x="432" y="1610" on="0"/>
      </contour>
      <contour>
        <pt x="834" y="1720" on="1"/>
        <pt x="834" y="1798" on="0"/>
        <pt x="918" y="1878" on="0"/>
        <pt x="990" y="1878" on="1"/>
        <pt x="1129" y="1878" on="0"/>
        <pt x="1129" y="1770" on="1"/>
        <pt x="1129" y="1695" on="0"/>
        <pt x="1048" y="1610" on="0"/>
        <pt x="969" y="1610" on="1"/>
        <pt x="834" y="1610" on="0"/>
      </contour>
      <contour>
        <pt x="1343" y="1462" on="1"/>
        <pt x="725" y="559" on="1"/>
        <pt x="606" y="0" on="1"/>
        <pt x="303" y="0" on="1"/>
        <pt x="422" y="559" on="1"/>
        <pt x="186" y="1462" on="1"/>
        <pt x="498" y="1462" on="1"/>
        <pt x="627" y="870" on="1"/>
        <pt x="1001" y="1462" on="1"/>
      </contour>
    </TTGlyph>
    <TTGlyph name="Z" xMin="-61" yMin="0" xMax="1200" yMax="1462">
      <contour>
        <pt x="-61" y="0" on="1"/>
        <pt x="-23" y="201" on="1"/>
        <pt x="754" y="1206" on="1"/>
        <pt x="211" y="1206" on="1"/>
        <pt x="264" y="1462" on="1"/>
        <pt x="1200" y="1462" on="1"/>
        <pt x="1159" y="1260" on="1"/>
        <pt x="377" y="256" on="1"/>
        <pt x="973" y="256" on="1"/>
        <pt x="920" y="0" on="1"/>
      </contour>
    </TTGlyph>
    <TTGlyph name="a" xMin="90" yMin="-20" xMax="1182" yMax="1139">
      <contour>
        <pt x="406" y="-20" on="1"/>
        <pt x="259" y="-20" on="0"/>
        <pt x="174" y="86" on="1"/>
        <pt x="90" y="193" on="0"/>
        <pt x="90" y="584" on="0"/>
        <pt x="234" y="943" on="0"/>
        <pt x="351" y="1040" on="1"/>
        <pt x="468" y="1139" on="0"/>
        <pt x="608" y="1139" on="1"/>
        <pt x="805" y="1139" on="0"/>
        <pt x="885" y="975" on="1"/>
        <pt x="893" y="975" on="1"/>
        <pt x="950" y="1118" on="1"/>
        <pt x="1182" y="1118" on="1"/>
        <pt x="944" y="0" on="1"/>
        <pt x="715" y="0" on="1"/>
        <pt x="729" y="145" on="1"/>
        <pt x="725" y="145" on="1"/>
        <pt x="592" y="-20" on="0"/>
      </contour>
      <contour>
        <pt x="526" y="223" on="1"/>
        <pt x="593" y="223" on="0"/>
        <pt x="720" y="354" on="0"/>
        <pt x="799" y="587" on="0"/>
        <pt x="799" y="718" on="1"/>
        <pt x="799" y="725" on="0"/>
        <pt x="799" y="731" on="1"/>
        <pt x="799" y="802" on="0"/>
        <pt x="722" y="895" on="0"/>
        <pt x="590" y="895" on="0"/>
        <pt x="469" y="753" on="0"/>
        <pt x="395" y="514" on="0"/>
        <pt x="395" y="399" on="1"/>
        <pt x="395" y="223" on="0"/>
        <pt x="524" y="223" on="1"/>
        <pt x="525" y="223" on="0"/>
      </contour>
    </TTGlyph>
    <TTGlyph name="aacute" xMin="90" yMin="-20" xMax="1182" yMax="1569">
      <contour>
        <pt x="598" y="1241" on="1"/>
        <pt x="598" y="1266" on="1"/>
        <pt x="678" y="1354" on="0"/>
        <pt x="820" y="1569" on="1"/>
        <pt x="1155" y="1569" on="1"/>
        <pt x="1155" y="1552" on="1"/>
        <pt x="1107" y="1495" on="0"/>
        <pt x="892" y="1302" on="0"/>
        <pt x="807" y="1241" on="1"/>
      </contour>
      <contour>
        <pt x="406" y="-20" on="1"/>
        <pt x="259" y="-20" on="0"/>
        <pt x="174" y="86" on="1"/>
        <pt x="90" y="193" on="0"/>
        <pt x="90" y="584" on="0"/>
        <pt x="234" y="943" on="0"/>
        <pt x="351" y="1040" on="1"/>
        <pt x="468" y="1139" on="0"/>
        <pt x="608" y="1139" on="1"/>
        <pt x="805" y="1139" on="0"/>
        <pt x="885" y="975" on="1"/>
        <pt x="893" y="975" on="1"/>
        <pt x="950" y="1118" on="1"/>
        <pt x="1182" y="1118" on="1"/>
        <pt x="944" y="0" on="1"/>
        <pt x="715" y="0" on="1"/>
        <pt x="729" y="145" on="1"/>
        <pt x="725" y="145" on="1"/>
        <pt x="592" y="-20" on="0"/>
      </contour>
      <contour>
        <pt x="526" y="223" on="1"/>
        <pt x="593" y="223" on="0"/>
        <pt x="720" y="354" on="0"/>
        <pt x="799" y="587" on="0"/>
        <pt x="799" y="718" on="1"/>
        <pt x="799" y="725" on="0"/>
        <pt x="799" y="731" on="1"/>
        <pt x="799" y="802" on="0"/>
        <pt x="722" y="895" on="0"/>
        <pt x="590" y="895" on="0"/>
        <pt x="469" y="753" on="0"/>
        <pt x="395" y="514" on="0"/>
        <pt x="395" y="399" on="1"/>
        <pt x="395" y="223" on="0"/>
        <pt x="524" y="223" on="1"/>
        <pt x="525" y="223" on="0"/>
      </contour>
    </TTGlyph>
    <TTGlyph name="acircumflex" xMin="90" yMin="-20" xMax="1182" yMax="1568">
      <contour>
        <pt x="944" y="1568" on="1"/>
        <pt x="998" y="1440" on="0"/>
        <pt x="1120" y="1265" on="1"/>
        <pt x="1120" y="1240" on="1"/>
        <pt x="922" y="1240" on="1"/>
        <pt x="859" y="1292" on="0"/>
        <pt x="760" y="1408" on="1"/>
        <pt x="654" y="1318" on="0"/>
        <pt x="528" y="1240" on="1"/>
        <pt x="311" y="1240" on="1"/>
        <pt x="311" y="1265" on="1"/>
        <pt x="374" y="1322" on="0"/>
        <pt x="552" y="1500" on="0"/>
        <pt x="606" y="1568" on="1"/>
      </contour>
      <contour>
        <pt x="406" y="-20" on="1"/>
        <pt x="259" y="-20" on="0"/>
        <pt x="174" y="86" on="1"/>
        <pt x="90" y="193" on="0"/>
        <pt x="90" y="584" on="0"/>
        <pt x="234" y="943" on="0"/>
        <pt x="351" y="1040" on="1"/>
        <pt x="468" y="1139" on="0"/>
        <pt x="608" y="1139" on="1"/>
        <pt x="805" y="1139" on="0"/>
        <pt x="885" y="975" on="1"/>
        <pt x="893" y="975" on="1"/>
        <pt x="950" y="1118" on="1"/>
        <pt x="1182" y="1118" on="1"/>
        <pt x="944" y="0" on="1"/>
        <pt x="715" y="0" on="1"/>
        <pt x="729" y="145" on="1"/>
        <pt x="725" y="145" on="1"/>
        <pt x="592" y="-20" on="0"/>
      </contour>
      <contour>
        <pt x="526" y="223" on="1"/>
        <pt x="593" y="223" on="0"/>
        <pt x="720" y="354" on="0"/>
        <pt x="799" y="587" on="0"/>
        <pt x="799" y="718" on="1"/>
        <pt x="799" y="725" on="0"/>
        <pt x="799" y="731" on="1"/>
        <pt x="799" y="802" on="0"/>
        <pt x="722" y="895" on="0"/>
        <pt x="590" y="895" on="0"/>
        <pt x="469" y="753" on="0"/>
        <pt x="395" y="514" on="0"/>
        <pt x="395" y="399" on="1"/>
        <pt x="395" y="223" on="0"/>
        <pt x="524" y="223" on="1"/>
        <pt x="525" y="223" on="0"/>
      </contour>
    </TTGlyph>
    <TTGlyph name="acute" xMin="483" yMin="1241" xMax="1040" yMax="1569">
      <contour>
        <pt x="483" y="1241" on="1"/>
        <pt x="483" y="1266" on="1"/>
        <pt x="562" y="1354" on="0"/>
        <pt x="705" y="1569" on="1"/>
        <pt x="1040" y="1569" on="1"/>
        <pt x="1040" y="1552" on="1"/>
        <pt x="992" y="1495" on="0"/>
        <pt x="777" y="1302" on="0"/>
        <pt x="692" y="1241" on="1"/>
      </contour>
    </TTGlyph>
    <TTGlyph name="adieresis" xMin="90" yMin="-20" xMax="1182" yMax="1540">
      <contour>
        <pt x="397" y="1382" on="1"/>
        <pt x="397" y="1459" on="0"/>
        <pt x="481" y="1540" on="0"/>
        <pt x="559" y="1540" on="1"/>
        <pt x="692" y="1540" on="0"/>
        <pt x="692" y="1432" on="1"/>
        <pt x="692" y="1357" on="0"/>
        <pt x="612" y="1272" on="0"/>
        <pt x="532" y="1272" on="1"/>
        <pt x="397" y="1272" on="0"/>
      </contour>
      <contour>
        <pt x="799" y="1382" on="1"/>
        <pt x="799" y="1460" on="0"/>
        <pt x="883" y="1540" on="0"/>
        <pt x="954" y="1540" on="1"/>
        <pt x="1094" y="1540" on="0"/>
        <pt x="1094" y="1432" on="1"/>
        <pt x="1094" y="1357" on="0"/>
        <pt x="1013" y="1272" on="0"/>
        <pt x="934" y="1272" on="1"/>
        <pt x="799" y="1272" on="0"/>
      </contour>
      <contour>
        <pt x="406" y="-20" on="1"/>
        <pt x="259" y="-20" on="0"/>
        <pt x="174" y="86" on="1"/>
        <pt x="90" y="193" on="0"/>
        <pt x="90" y="584" on="0"/>
        <pt x="234" y="943" on="0"/>
        <pt x="351" y="1040" on="1"/>
        <pt x="468" y="1139" on="0"/>
        <pt x="608" y="1139" on="1"/>
        <pt x="805" y="1139" on="0"/>
        <pt x="885" y="975" on="1"/>
        <pt x="893" y="975" on="1"/>
        <pt x="950" y="1118" on="1"/>
        <pt x="1182" y="1118" on="1"/>
        <pt x="944" y="0" on="1"/>
        <pt x="715" y="0" on="1"/>
        <pt x="729" y="145" on="1"/>
        <pt x="725" y="145" on="1"/>
        <pt x="592" y="-20" on="0"/>
      </contour>
      <contour>
        <pt x="526" y="223" on="1"/>
        <pt x="593" y="223" on="0"/>
        <pt x="720" y="354" on="0"/>
        <pt x="799" y="587" on="0"/>
        <pt x="799" y="718" on="1"/>
        <pt x="799" y="725" on="0"/>
        <pt x="799" y="731" on="1"/>
        <pt x="799" y="802" on="0"/>
        <pt x="722" y="895" on="0"/>
        <pt x="590" y="895" on="0"/>
        <pt x="469" y="753" on="0"/>
        <pt x="395" y="514" on="0"/>
        <pt x="395" y="399" on="1"/>
        <pt x="395" y="223" on="0"/>
        <pt x="524" y="223" on="1"/>
        <pt x="525" y="223" on="0"/>
      </contour>
    </TTGlyph>
    <TTGlyph name="ae" xMin="90" yMin="-20" xMax="1735" yMax="1139">
      <contour>
        <pt x="1206" y="-20" on="1"/>
        <pt x="1097" y="-20" on="0"/>
        <pt x="956" y="34" on="0"/>
        <pt x="909" y="94" on="1"/>
        <pt x="893" y="0" on="1"/>
        <pt x="705" y="0" on="1"/>
        <pt x="719" y="145" on="1"/>
        <pt x="713" y="145" on="1"/>
        <pt x="642" y="58" on="0"/>
        <pt x="492" y="-20" on="0"/>
        <pt x="399" y="-20" on="1"/>
        <pt x="253" y="-20" on="0"/>
        <pt x="171" y="89" on="1"/>
        <pt x="90" y="199" on="0"/>
        <pt x="90" y="583" on="0"/>
        <pt x="227" y="936" on="0"/>
        <pt x="460" y="1139" on="0"/>
        <pt x="602" y="1139" on="1"/>
        <pt x="698" y="1139" on="0"/>
        <pt x="827" y="1062" on="0"/>
        <pt x="877" y="975" on="1"/>
        <pt x="883" y="975" on="1"/>
        <pt x="940" y="1118" on="1"/>
        <pt x="1128" y="1118" on="1"/>
        <pt x="1110" y="1028" on="1"/>
        <pt x="1156" y="1078" on="0"/>
        <pt x="1309" y="1139" on="0"/>
        <pt x="1399" y="1139" on="1"/>
        <pt x="1556" y="1139" on="0"/>
        <pt x="1645" y="1055" on="1"/>
        <pt x="1735" y="973" on="0"/>
        <pt x="1735" y="834" on="1"/>
        <pt x="1735" y="647" on="0"/>
        <pt x="1401" y="444" on="0"/>
        <pt x="1092" y="444" on="1"/>
        <pt x="1040" y="444" on="1"/>
        <pt x="1038" y="425" on="1"/>
        <pt x="1038" y="406" on="1"/>
        <pt x="1038" y="310" on="0"/>
        <pt x="1149" y="207" on="0"/>
        <pt x="1253" y="207" on="1"/>
        <pt x="1318" y="207" on="0"/>
        <pt x="1490" y="252" on="0"/>
        <pt x="1567" y="293" on="1"/>
        <pt x="1567" y="66" on="1"/>
        <pt x="1387" y="-20" on="0"/>
      </contour>
      <contour>
        <pt x="1118" y="647" on="1"/>
        <pt x="1272" y="647" on="0"/>
        <pt x="1446" y="743" on="0"/>
        <pt x="1446" y="827" on="1"/>
        <pt x="1446" y="922" on="0"/>
        <pt x="1341" y="922" on="1"/>
        <pt x="1253" y="922" on="0"/>
        <pt x="1097" y="762" on="0"/>
        <pt x="1073" y="647" on="1"/>
      </contour>
      <contour>
        <pt x="518" y="223" on="1"/>
        <pt x="590" y="223" on="0"/>
        <pt x="713" y="358" on="0"/>
        <pt x="788" y="590" on="0"/>
        <pt x="788" y="719" on="1"/>
        <pt x="788" y="802" on="0"/>
        <pt x="720" y="895" on="0"/>
        <pt x="585" y="895" on="0"/>
        <pt x="464" y="756" on="0"/>
        <pt x="395" y="523" on="0"/>
        <pt x="395" y="399" on="1"/>
        <pt x="395" y="315" on="0"/>
        <pt x="460" y="223" on="0"/>
      </contour>
    </TTGlyph>
    <TTGlyph name="agrave" xMin="90" yMin="-20" xMax="1182" yMax="1569">
      <contour>
        <pt x="685" y="1241" on="1"/>
        <pt x="516" y="1407" on="0"/>
        <pt x="443" y="1548" on="1"/>
        <pt x="443" y="1569" on="1"/>
        <pt x="754" y="1569" on="1"/>
        <pt x="790" y="1419" on="0"/>
        <pt x="869" y="1266" on="1"/>
        <pt x="869" y="1241" on="1"/>
      </contour>
      <contour>
        <pt x="406" y="-20" on="1"/>
        <pt x="259" y="-20" on="0"/>
        <pt x="174" y="86" on="1"/>
        <pt x="90" y="193" on="0"/>
        <pt x="90" y="584" on="0"/>
        <pt x="234" y="943" on="0"/>
        <pt x="351" y="1040" on="1"/>
        <pt x="468" y="1139" on="0"/>
        <pt x="608" y="1139" on="1"/>
        <pt x="805" y="1139" on="0"/>
        <pt x="885" y="975" on="1"/>
        <pt x="893" y="975" on="1"/>
        <pt x="950" y="1118" on="1"/>
        <pt x="1182" y="1118" on="1"/>
        <pt x="944" y="0" on="1"/>
        <pt x="715" y="0" on="1"/>
        <pt x="729" y="145" on="1"/>
        <pt x="725" y="145" on="1"/>
        <pt x="592" y="-20" on="0"/>
      </contour>
      <contour>
        <pt x="526" y="223" on="1"/>
        <pt x="593" y="223" on="0"/>
        <pt x="720" y="354" on="0"/>
        <pt x="799" y="587" on="0"/>
        <pt x="799" y="718" on="1"/>
        <pt x="799" y="725" on="0"/>
        <pt x="799" y="731" on="1"/>
        <pt x="799" y="802" on="0"/>
        <pt x="722" y="895" on="0"/>
        <pt x="590" y="895" on="0"/>
        <pt x="469" y="753" on="0"/>
        <pt x="395" y="514" on="0"/>
        <pt x="395" y="399" on="1"/>
        <pt x="395" y="223" on="0"/>
        <pt x="524" y="223" on="1"/>
        <pt x="525" y="223" on="0"/>
      </contour>
    </TTGlyph>
    <TTGlyph name="alefdageshhb" xMin="-20" yMin="0" xMax="1345" yMax="1290">
      <contour>
        <pt x="1345" y="1290" on="1"/>
        <pt x="1247" y="828" on="1"/>
        <pt x="1236" y="778" on="0"/>
        <pt x="1211" y="701" on="0"/>
        <pt x="1160" y="607" on="0"/>
        <pt x="1091" y="537" on="0"/>
        <pt x="979" y="472" on="0"/>
        <pt x="908" y="452" on="1"/>
        <pt x="1100" y="0" on="1"/>
        <pt x="753" y="0" on="1"/>
        <pt x="505" y="639" on="1"/>
        <pt x="454" y="619" on="0"/>
        <pt x="398" y="534" on="0"/>
        <pt x="384" y="464" on="1"/>
        <pt x="284" y="0" on="1"/>
        <pt x="-20" y="0" on="1"/>
        <pt x="78" y="461" on="1"/>
        <pt x="88" y="511" on="0"/>
        <pt x="113" y="588" on="0"/>
        <pt x="165" y="682" on="0"/>
        <pt x="235" y="753" on="0"/>
        <pt x="348" y="818" on="0"/>
        <pt x="420" y="838" on="1"/>
        <pt x="229" y="1290" on="1"/>
        <pt x="575" y="1290" on="1"/>
        <pt x="741" y="848" on="1"/>
        <pt x="824" y="651" on="1"/>
        <pt x="872" y="671" on="0"/>
        <pt x="927" y="756" on="0"/>
        <pt x="941" y="825" on="1"/>
        <pt x="1041" y="1290" on="1"/>
      </contour>
      <contour>
        <pt x="458" y="277" on="1"/>
        <pt x="488" y="300" on="0"/>
        <pt x="575" y="300" on="0"/>
        <pt x="611" y="259" on="0"/>
        <pt x="611" y="241" on="1"/>
        <pt x="611" y="182" on="0"/>
        <pt x="570" y="150" on="1"/>
        <pt x="539" y="127" on="0"/>
        <pt x="451" y="127" on="0"/>
        <pt x="417" y="165" on="0"/>
        <pt x="417" y="183" on="1"/>
        <pt x="417" y="246" on="0"/>
      </contour>
    </TTGlyph>
    <TTGlyph name="alefpatahhb" xMin="-20" yMin="-249" xMax="1345" yMax="1290">
      <contour>
        <pt x="1345" y="1290" on="1"/>
        <pt x="1247" y="828" on="1"/>
        <pt x="1236" y="778" on="0"/>
        <pt x="1211" y="701" on="0"/>
        <pt x="1160" y="607" on="0"/>
        <pt x="1091" y="537" on="0"/>
        <pt x="979" y="472" on="0"/>
        <pt x="908" y="452" on="1"/>
        <pt x="1100" y="0" on="1"/>
        <pt x="753" y="0" on="1"/>
        <pt x="505" y="639" on="1"/>
        <pt x="454" y="619" on="0"/>
        <pt x="398" y="534" on="0"/>
        <pt x="384" y="464" on="1"/>
        <pt x="284" y="0" on="1"/>
        <pt x="-20" y="0" on="1"/>
        <pt x="78" y="461" on="1"/>
        <pt x="88" y="511" on="0"/>
        <pt x="113" y="588" on="0"/>
        <pt x="165" y="682" on="0"/>
        <pt x="235" y="753" on="0"/>
        <pt x="348" y="818" on="0"/>
        <pt x="420" y="838" on="1"/>
        <pt x="229" y="1290" on="1"/>
        <pt x="575" y="1290" on="1"/>
        <pt x="741" y="848" on="1"/>
        <pt x="824" y="651" on="1"/>
        <pt x="872" y="671" on="0"/>
        <pt x="927" y="756" on="0"/>
        <pt x="941" y="825" on="1"/>
        <pt x="1041" y="1290" on="1"/>
      </contour>
      <contour>
        <pt x="673" y="-249" on="1"/>
        <pt x="280" y="-249" on="1"/>
        <pt x="304" y="-133" on="1"/>
        <pt x="697" y="-133" on="1"/>
      </contour>
    </TTGlyph>
    <TTGlyph name="alefqamatshb" xMin="-20" yMin="-472" xMax="1345" yMax="1290">
      <contour>
        <pt x="1345" y="1290" on="1"/>
        <pt x="1247" y="828" on="1"/>
        <pt x="1236" y="778" on="0"/>
        <pt x="1211" y="701" on="0"/>
        <pt x="1160" y="607" on="0"/>
        <pt x="1091" y="537" on="0"/>
        <pt x="979" y="472" on="0"/>
        <pt x="908" y="452" on="1"/>
        <pt x="1100" y="0" on="1"/>
        <pt x="753" y="0" on="1"/>
        <pt x="505" y="639" on="1"/>
        <pt x="454" y="619" on="0"/>
        <pt x="398" y="534" on="0"/>
        <pt x="384" y="464" on="1"/>
        <pt x="284" y="0" on="1"/>
        <pt x="-20" y="0" on="1"/>
        <pt x="78" y="461" on="1"/>
        <pt x="88" y="511" on="0"/>
        <pt x="113" y="588" on="0"/>
        <pt x="165" y="682" on="0"/>
        <pt x="235" y="753" on="0"/>
        <pt x="348" y="818" on="0"/>
        <pt x="420" y="838" on="1"/>
        <pt x="229" y="1290" on="1"/>
        <pt x="575" y="1290" on="1"/>
        <pt x="741" y="848" on="1"/>
        <pt x="824" y="651" on="1"/>
        <pt x="872" y="671" on="0"/>
        <pt x="927" y="756" on="0"/>
        <pt x="941" y="825" on="1"/>
        <pt x="1041" y="1290" on="1"/>
      </contour>
      <contour>
        <pt x="663" y="-270" on="1"/>
        <pt x="527" y="-270" on="1"/>
        <pt x="484" y="-472" on="1"/>
        <pt x="373" y="-472" on="1"/>
        <pt x="416" y="-270" on="1"/>
        <pt x="281" y="-270" on="1"/>
        <pt x="306" y="-153" on="1"/>
        <pt x="688" y="-153" on="1"/>
      </contour>
    </TTGlyph>
    <TTGlyph name="ampersand" xMin="68" yMin="-20" xMax="1430" yMax="1485">
      <contour>
        <pt x="903" y="98" on="1"/>
        <pt x="728" y="-20" on="0"/>
        <pt x="291" y="-20" on="0"/>
        <pt x="68" y="175" on="0"/>
        <pt x="68" y="358" on="1"/>
        <pt x="68" y="502" on="0"/>
        <pt x="146" y="606" on="1"/>
        <pt x="226" y="710" on="0"/>
        <pt x="420" y="807" on="1"/>
        <pt x="344" y="937" on="0"/>
        <pt x="344" y="1065" on="1"/>
        <pt x="344" y="1260" on="0"/>
        <pt x="580" y="1485" on="0"/>
        <pt x="778" y="1485" on="1"/>
        <pt x="946" y="1485" on="0"/>
        <pt x="1141" y="1320" on="0"/>
        <pt x="1141" y="1178" on="1"/>
        <pt x="1141" y="898" on="0"/>
        <pt x="776" y="752" on="1"/>
        <pt x="971" y="489" on="1"/>
        <pt x="1017" y="550" on="0"/>
        <pt x="1087" y="672" on="0"/>
        <pt x="1130" y="784" on="1"/>
        <pt x="1430" y="784" on="1"/>
        <pt x="1297" y="471" on="0"/>
        <pt x="1120" y="287" on="1"/>
        <pt x="1325" y="0" on="1"/>
        <pt x="975" y="0" on="1"/>
      </contour>
      <contour>
        <pt x="662" y="920" on="1"/>
        <pt x="775" y="979" on="0"/>
        <pt x="860" y="1083" on="0"/>
        <pt x="860" y="1197" on="0"/>
        <pt x="803" y="1251" on="0"/>
        <pt x="760" y="1251" on="1"/>
        <pt x="695" y="1251" on="0"/>
        <pt x="621" y="1159" on="0"/>
        <pt x="621" y="1085" on="1"/>
        <pt x="621" y="1040" on="0"/>
        <pt x="644" y="948" on="0"/>
      </contour>
      <contour>
        <pt x="541" y="623" on="1"/>
        <pt x="452" y="572" on="0"/>
        <pt x="383" y="465" on="0"/>
        <pt x="383" y="322" on="0"/>
        <pt x="428" y="279" on="1"/>
        <pt x="474" y="236" on="0"/>
        <pt x="545" y="236" on="1"/>
        <pt x="659" y="236" on="0"/>
        <pt x="766" y="295" on="1"/>
      </contour>
    </TTGlyph>
    <TTGlyph name="aring" xMin="90" yMin="-20" xMax="1182" yMax="1714">
      <contour>
        <pt x="953" y="1305" on="1"/>
        <pt x="882" y="1239" on="0"/>
        <pt x="659" y="1239" on="0"/>
        <pt x="521" y="1366" on="0"/>
        <pt x="521" y="1585" on="0"/>
        <pt x="657" y="1714" on="0"/>
        <pt x="878" y="1714" on="0"/>
        <pt x="1023" y="1584" on="0"/>
        <pt x="1023" y="1372" on="0"/>
      </contour>
      <contour>
        <pt x="866" y="1433" on="0"/>
        <pt x="866" y="1521" on="0"/>
        <pt x="812" y="1573" on="0"/>
        <pt x="726" y="1573" on="0"/>
        <pt x="673" y="1521" on="0"/>
        <pt x="673" y="1431" on="0"/>
        <pt x="722" y="1380" on="0"/>
        <pt x="812" y="1380" on="0"/>
      </contour>
      <contour>
        <pt x="406" y="-20" on="1"/>
        <pt x="259" y="-20" on="0"/>
        <pt x="174" y="86" on="1"/>
        <pt x="90" y="193" on="0"/>
        <pt x="90" y="584" on="0"/>
        <pt x="234" y="943" on="0"/>
        <pt x="351" y="1040" on="1"/>
        <pt x="468" y="1139" on="0"/>
        <pt x="608" y="1139" on="1"/>
        <pt x="805" y="1139" on="0"/>
        <pt x="885" y="975" on="1"/>
        <pt x="893" y="975" on="1"/>
        <pt x="950" y="1118" on="1"/>
        <pt x="1182" y="1118" on="1"/>
        <pt x="944" y="0" on="1"/>
        <pt x="715" y="0" on="1"/>
        <pt x="729" y="145" on="1"/>
        <pt x="725" y="145" on="1"/>
        <pt x="592" y="-20" on="0"/>
      </contour>
      <contour>
        <pt x="526" y="223" on="1"/>
        <pt x="593" y="223" on="0"/>
        <pt x="720" y="354" on="0"/>
        <pt x="799" y="587" on="0"/>
        <pt x="799" y="718" on="1"/>
        <pt x="799" y="725" on="0"/>
        <pt x="799" y="731" on="1"/>
        <pt x="799" y="802" on="0"/>
        <pt x="722" y="895" on="0"/>
        <pt x="590" y="895" on="0"/>
        <pt x="469" y="753" on="0"/>
        <pt x="395" y="514" on="0"/>
        <pt x="395" y="399" on="1"/>
        <pt x="395" y="223" on="0"/>
        <pt x="524" y="223" on="1"/>
        <pt x="525" y="223" on="0"/>
      </contour>
    </TTGlyph>
    <TTGlyph name="asciicircum" xMin="20" yMin="520" xMax="1063" yMax="1470">
      <contour>
        <pt x="639" y="1470" on="1"/>
        <pt x="786" y="1470" on="1"/>
        <pt x="1063" y="520" on="1"/>
        <pt x="840" y="520" on="1"/>
        <pt x="666" y="1153" on="1"/>
        <pt x="264" y="520" on="1"/>
        <pt x="20" y="520" on="1"/>
      </contour>
    </TTGlyph>
    <TTGlyph name="asciitilde" xMin="109" yMin="551" xMax="1061" yMax="893">
      <contour>
        <pt x="805" y="553" on="1"/>
        <pt x="748" y="553" on="0"/>
        <pt x="696" y="564" on="1"/>
        <pt x="644" y="577" on="0"/>
        <pt x="459" y="654" on="0"/>
        <pt x="384" y="672" on="0"/>
        <pt x="289" y="672" on="0"/>
        <pt x="164" y="606" on="0"/>
        <pt x="109" y="551" on="1"/>
        <pt x="109" y="782" on="1"/>
        <pt x="209" y="891" on="0"/>
        <pt x="365" y="891" on="1"/>
        <pt x="428" y="891" on="0"/>
        <pt x="534" y="864" on="0"/>
        <pt x="751" y="772" on="0"/>
        <pt x="827" y="772" on="1"/>
        <pt x="938" y="772" on="0"/>
        <pt x="1061" y="893" on="1"/>
        <pt x="1061" y="662" on="1"/>
        <pt x="958" y="553" on="0"/>
      </contour>
    </TTGlyph>
    <TTGlyph name="asterisk" xMin="172" yMin="578" xMax="1159" yMax="1573">
      <contour>
        <pt x="772" y="1169" on="1"/>
        <pt x="1159" y="1198" on="1"/>
        <pt x="1141" y="944" on="1"/>
        <pt x="803" y="987" on="1"/>
        <pt x="963" y="651" on="1"/>
        <pt x="717" y="578" on="1"/>
        <pt x="627" y="915" on="1"/>
        <pt x="430" y="637" on="1"/>
        <pt x="223" y="801" on="1"/>
        <pt x="498" y="1049" on="1"/>
        <pt x="172" y="1141" on="1"/>
        <pt x="258" y="1378" on="1"/>
        <pt x="596" y="1204" on="1"/>
        <pt x="629" y="1573" on="1"/>
        <pt x="885" y="1522" on="1"/>
      </contour>
    </TTGlyph>
    <TTGlyph name="at" xMin="92" yMin="-186" xMax="1733" yMax="1462">
      <contour>
        <pt x="791" y="-186" on="1"/>
        <pt x="583" y="-186" on="0"/>
        <pt x="262" y="-14" on="0"/>
        <pt x="92" y="295" on="0"/>
        <pt x="92" y="491" on="1"/>
        <pt x="92" y="495" on="0"/>
        <pt x="92" y="500" on="1"/>
        <pt x="92" y="780" on="0"/>
        <pt x="334" y="1216" on="0"/>
        <pt x="778" y="1462" on="0"/>
        <pt x="1053" y="1462" on="1"/>
        <pt x="1370" y="1462" on="0"/>
        <pt x="1733" y="1135" on="0"/>
        <pt x="1733" y="840" on="1"/>
        <pt x="1733" y="666" on="0"/>
        <pt x="1604" y="370" on="0"/>
        <pt x="1378" y="205" on="0"/>
        <pt x="1237" y="205" on="1"/>
        <pt x="1149" y="205" on="0"/>
        <pt x="1036" y="282" on="0"/>
        <pt x="1020" y="352" on="1"/>
        <pt x="1014" y="352" on="1"/>
        <pt x="964" y="275" on="0"/>
        <pt x="839" y="205" on="0"/>
        <pt x="754" y="205" on="1"/>
        <pt x="626" y="205" on="0"/>
        <pt x="485" y="365" on="0"/>
        <pt x="485" y="662" on="0"/>
        <pt x="619" y="919" on="0"/>
        <pt x="859" y="1071" on="0"/>
        <pt x="1008" y="1071" on="1"/>
        <pt x="1194" y="1071" on="0"/>
        <pt x="1335" y="1016" on="1"/>
        <pt x="1229" y="596" on="1"/>
        <pt x="1202" y="490" on="0"/>
        <pt x="1202" y="455" on="1"/>
        <pt x="1202" y="387" on="0"/>
        <pt x="1260" y="387" on="1"/>
        <pt x="1326" y="387" on="0"/>
        <pt x="1441" y="514" on="0"/>
        <pt x="1511" y="730" on="0"/>
        <pt x="1511" y="836" on="1"/>
        <pt x="1511" y="1049" on="0"/>
        <pt x="1264" y="1274" on="0"/>
        <pt x="1028" y="1274" on="1"/>
        <pt x="824" y="1274" on="0"/>
        <pt x="497" y="1085" on="0"/>
        <pt x="315" y="742" on="0"/>
        <pt x="315" y="522" on="1"/>
        <pt x="315" y="280" on="0"/>
        <pt x="449" y="141" on="1"/>
        <pt x="583" y="4" on="0"/>
        <pt x="825" y="4" on="1"/>
        <pt x="939" y="4" on="0"/>
        <pt x="1148" y="44" on="0"/>
        <pt x="1266" y="90" on="1"/>
        <pt x="1266" y="-96" on="1"/>
        <pt x="1036" y="-186" on="0"/>
        <pt x="801" y="-186" on="1"/>
        <pt x="796" y="-186" on="0"/>
      </contour>
      <contour>
        <pt x="995" y="889" on="1"/>
        <pt x="913" y="889" on="0"/>
        <pt x="787" y="787" on="0"/>
        <pt x="713" y="614" on="0"/>
        <pt x="713" y="537" on="1"/>
        <pt x="713" y="387" on="0"/>
        <pt x="807" y="387" on="1"/>
        <pt x="948" y="387" on="0"/>
        <pt x="1020" y="657" on="1"/>
        <pt x="1077" y="879" on="1"/>
        <pt x="1043" y="889" on="0"/>
      </contour>
    </TTGlyph>
    <TTGlyph name="atilde" xMin="90" yMin="-20" xMax="1182" yMax="1550">
      <contour>
        <pt x="884" y="1241" on="1"/>
        <pt x="840" y="1241" on="0"/>
        <pt x="755" y="1274" on="0"/>
        <pt x="728" y="1294" on="1"/>
        <pt x="653" y="1346" on="0"/>
        <pt x="604" y="1346" on="1"/>
        <pt x="573" y="1346" on="0"/>
        <pt x="524" y="1290" on="0"/>
        <pt x="510" y="1239" on="1"/>
        <pt x="333" y="1239" on="1"/>
        <pt x="392" y="1548" on="0"/>
        <pt x="614" y="1548" on="1"/>
        <pt x="658" y="1548" on="0"/>
        <pt x="745" y="1516" on="0"/>
        <pt x="773" y="1496" on="1"/>
        <pt x="846" y="1444" on="0"/>
        <pt x="895" y="1444" on="1"/>
        <pt x="928" y="1444" on="0"/>
        <pt x="977" y="1494" on="0"/>
        <pt x="999" y="1550" on="1"/>
        <pt x="1171" y="1550" on="1"/>
        <pt x="1105" y="1241" on="0"/>
      </contour>
      <contour>
        <pt x="406" y="-20" on="1"/>
        <pt x="259" y="-20" on="0"/>
        <pt x="174" y="86" on="1"/>
        <pt x="90" y="193" on="0"/>
        <pt x="90" y="584" on="0"/>
        <pt x="234" y="943" on="0"/>
        <pt x="351" y="1040" on="1"/>
        <pt x="468" y="1139" on="0"/>
        <pt x="608" y="1139" on="1"/>
        <pt x="805" y="1139" on="0"/>
        <pt x="885" y="975" on="1"/>
        <pt x="893" y="975" on="1"/>
        <pt x="950" y="1118" on="1"/>
        <pt x="1182" y="1118" on="1"/>
        <pt x="944" y="0" on="1"/>
        <pt x="715" y="0" on="1"/>
        <pt x="729" y="145" on="1"/>
        <pt x="725" y="145" on="1"/>
        <pt x="592" y="-20" on="0"/>
      </contour>
      <contour>
        <pt x="526" y="223" on="1"/>
        <pt x="593" y="223" on="0"/>
        <pt x="720" y="354" on="0"/>
        <pt x="799" y="587" on="0"/>
        <pt x="799" y="718" on="1"/>
        <pt x="799" y="725" on="0"/>
        <pt x="799" y="731" on="1"/>
        <pt x="799" y="802" on="0"/>
        <pt x="722" y="895" on="0"/>
        <pt x="590" y="895" on="0"/>
        <pt x="469" y="753" on="0"/>
        <pt x="395" y="514" on="0"/>
        <pt x="395" y="399" on="1"/>
        <pt x="395" y="223" on="0"/>
        <pt x="524" y="223" on="1"/>
        <pt x="525" y="223" on="0"/>
      </contour>
    </TTGlyph>
    <TTGlyph name="b" xMin="37" yMin="-20" xMax="1128" yMax="1556">
      <contour>
        <pt x="813" y="1139" on="1"/>
        <pt x="959" y="1139" on="0"/>
        <pt x="1128" y="924" on="0"/>
        <pt x="1128" y="545" on="0"/>
        <pt x="993" y="189" on="0"/>
        <pt x="754" y="-20" on="0"/>
        <pt x="610" y="-20" on="1"/>
        <pt x="416" y="-20" on="0"/>
        <pt x="334" y="143" on="1"/>
        <pt x="326" y="143" on="1"/>
        <pt x="268" y="0" on="1"/>
        <pt x="37" y="0" on="1"/>
        <pt x="367" y="1556" on="1"/>
        <pt x="668" y="1556" on="1"/>
        <pt x="606" y="1268" on="1"/>
        <pt x="565" y="1085" on="0"/>
        <pt x="522" y="969" on="1"/>
        <pt x="530" y="969" on="1"/>
        <pt x="609" y="1068" on="0"/>
        <pt x="736" y="1139" on="0"/>
      </contour>
      <contour>
        <pt x="692" y="895" on="1"/>
        <pt x="624" y="895" on="0"/>
        <pt x="501" y="766" on="0"/>
        <pt x="420" y="535" on="0"/>
        <pt x="420" y="399" on="1"/>
        <pt x="420" y="318" on="0"/>
        <pt x="494" y="223" on="0"/>
        <pt x="626" y="223" on="0"/>
        <pt x="747" y="359" on="0"/>
        <pt x="823" y="604" on="0"/>
        <pt x="823" y="719" on="1"/>
        <pt x="823" y="895" on="0"/>
      </contour>
    </TTGlyph>
    <TTGlyph name="backslash" xMin="221" yMin="0" xMax="705" yMax="1462">
      <contour>
        <pt x="705" y="0" on="1"/>
        <pt x="438" y="0" on="1"/>
        <pt x="221" y="1462" on="1"/>
        <pt x="481" y="1462" on="1"/>
      </contour>
    </TTGlyph>
    <TTGlyph name="bar" xMin="455" yMin="-465" xMax="674" yMax="1550">
      <contour>
        <pt x="674" y="1550" on="1"/>
        <pt x="674" y="-465" on="1"/>
        <pt x="455" y="-465" on="1"/>
        <pt x="455" y="1550" on="1"/>
      </contour>
    </TTGlyph>
    <TTGlyph name="betdageshhb" xMin="-37" yMin="0" xMax="1050" yMax="1310">
      <contour>
        <pt x="1026" y="843" on="1"/>
        <pt x="896" y="233" on="1"/>
        <pt x="1044" y="233" on="1"/>
        <pt x="995" y="0" on="1"/>
        <pt x="-37" y="0" on="1"/>
        <pt x="12" y="233" on="1"/>
        <pt x="591" y="233" on="1"/>
        <pt x="721" y="844" on="1"/>
        <pt x="729" y="882" on="0"/>
        <pt x="729" y="914" on="1"/>
        <pt x="729" y="1075" on="0"/>
        <pt x="516" y="1075" on="1"/>
        <pt x="388" y="1075" on="0"/>
        <pt x="236" y="1057" on="1"/>
        <pt x="186" y="1051" on="1"/>
        <pt x="237" y="1292" on="1"/>
        <pt x="388" y="1310" on="0"/>
        <pt x="776" y="1310" on="0"/>
        <pt x="973" y="1242" on="0"/>
        <pt x="1050" y="1119" on="0"/>
        <pt x="1050" y="959" on="0"/>
      </contour>
      <contour>
        <pt x="330" y="737" on="1"/>
        <pt x="360" y="760" on="0"/>
        <pt x="447" y="760" on="0"/>
        <pt x="483" y="719" on="0"/>
        <pt x="483" y="701" on="1"/>
        <pt x="483" y="642" on="0"/>
        <pt x="442" y="610" on="1"/>
        <pt x="411" y="587" on="0"/>
        <pt x="323" y="587" on="0"/>
        <pt x="289" y="625" on="0"/>
        <pt x="289" y="643" on="1"/>
        <pt x="289" y="706" on="0"/>
      </contour>
    </TTGlyph>
    <TTGlyph name="braceleft" xMin="-8" yMin="-324" xMax="868" yMax="1462">
      <contour>
        <pt x="201" y="319" on="1"/>
        <pt x="201" y="459" on="0"/>
        <pt x="-8" y="459" on="1"/>
        <pt x="37" y="688" on="1"/>
        <pt x="162" y="688" on="0"/>
        <pt x="301" y="773" on="0"/>
        <pt x="322" y="868" on="1"/>
        <pt x="383" y="1153" on="1"/>
        <pt x="421" y="1323" on="0"/>
        <pt x="606" y="1462" on="0"/>
        <pt x="784" y="1462" on="1"/>
        <pt x="868" y="1462" on="1"/>
        <pt x="819" y="1237" on="1"/>
        <pt x="730" y="1235" on="0"/>
        <pt x="648" y="1171" on="0"/>
        <pt x="633" y="1096" on="1"/>
        <pt x="567" y="799" on="1"/>
        <pt x="522" y="591" on="0"/>
        <pt x="291" y="563" on="1"/>
        <pt x="291" y="555" on="1"/>
        <pt x="459" y="503" on="0"/>
        <pt x="459" y="338" on="1"/>
        <pt x="459" y="294" on="0"/>
        <pt x="444" y="225" on="1"/>
        <pt x="408" y="47" on="1"/>
        <pt x="401" y="20" on="0"/>
        <pt x="401" y="-4" on="1"/>
        <pt x="401" y="-55" on="0"/>
        <pt x="464" y="-98" on="0"/>
        <pt x="526" y="-98" on="1"/>
        <pt x="526" y="-324" on="1"/>
        <pt x="473" y="-324" on="1"/>
        <pt x="306" y="-324" on="0"/>
        <pt x="133" y="-197" on="0"/>
        <pt x="133" y="-76" on="1"/>
        <pt x="133" y="-21" on="0"/>
        <pt x="147" y="49" on="1"/>
        <pt x="186" y="233" on="1"/>
        <pt x="201" y="302" on="0"/>
      </contour>
    </TTGlyph>
    <TTGlyph name="braceright" xMin="-100" yMin="-324" xMax="737" yMax="1462">
      <contour>
        <pt x="256" y="1462" on="1"/>
        <pt x="596" y="1462" on="0"/>
        <pt x="596" y="1214" on="1"/>
        <pt x="596" y="1160" on="0"/>
        <pt x="582" y="1090" on="1"/>
        <pt x="543" y="905" on="1"/>
        <pt x="528" y="836" on="0"/>
        <pt x="528" y="819" on="1"/>
        <pt x="528" y="680" on="0"/>
        <pt x="737" y="680" on="1"/>
        <pt x="692" y="451" on="1"/>
        <pt x="568" y="451" on="0"/>
        <pt x="429" y="365" on="0"/>
        <pt x="408" y="270" on="1"/>
        <pt x="346" y="-14" on="1"/>
        <pt x="308" y="-184" on="0"/>
        <pt x="123" y="-324" on="0"/>
        <pt x="-55" y="-324" on="1"/>
        <pt x="-100" y="-324" on="1"/>
        <pt x="-100" y="-98" on="1"/>
        <pt x="-8" y="-95" on="0"/>
        <pt x="81" y="-30" on="0"/>
        <pt x="96" y="43" on="1"/>
        <pt x="162" y="340" on="1"/>
        <pt x="186" y="448" on="0"/>
        <pt x="324" y="560" on="0"/>
        <pt x="438" y="575" on="1"/>
        <pt x="438" y="584" on="1"/>
        <pt x="270" y="635" on="0"/>
        <pt x="270" y="801" on="1"/>
        <pt x="270" y="844" on="0"/>
        <pt x="285" y="913" on="1"/>
        <pt x="322" y="1092" on="1"/>
        <pt x="328" y="1122" on="0"/>
        <pt x="328" y="1143" on="1"/>
        <pt x="328" y="1195" on="0"/>
        <pt x="258" y="1237" on="0"/>
        <pt x="182" y="1237" on="1"/>
        <pt x="223" y="1462" on="1"/>
      </contour>
    </TTGlyph>
    <TTGlyph name="bracketleft" xMin="-37" yMin="-324" xMax="817" yMax="1462">
      <contour>
        <pt x="-37" y="-324" on="1"/>
        <pt x="344" y="1462" on="1"/>
        <pt x="817" y="1462" on="1"/>
        <pt x="772" y="1251" on="1"/>
        <pt x="557" y="1251" on="1"/>
        <pt x="266" y="-113" on="1"/>
        <pt x="481" y="-113" on="1"/>
        <pt x="436" y="-324" on="1"/>
      </contour>
    </TTGlyph>
    <TTGlyph name="bracketright" xMin="-137" yMin="-324" xMax="715" yMax="1462">
      <contour>
        <pt x="121" y="-113" on="1"/>
        <pt x="412" y="1251" on="1"/>
        <pt x="197" y="1251" on="1"/>
        <pt x="242" y="1462" on="1"/>
        <pt x="715" y="1462" on="1"/>
        <pt x="334" y="-324" on="1"/>
        <pt x="-137" y="-324" on="1"/>
        <pt x="-92" y="-113" on="1"/>
      </contour>
    </TTGlyph>
    <TTGlyph name="breve" xMin="430" yMin="1241" xMax="1147" yMax="1579">
      <contour>
        <pt x="754" y="1241" on="1"/>
        <pt x="602" y="1241" on="0"/>
        <pt x="430" y="1386" on="0"/>
        <pt x="430" y="1513" on="1"/>
        <pt x="430" y="1550" on="0"/>
        <pt x="436" y="1579" on="1"/>
        <pt x="610" y="1579" on="1"/>
        <pt x="610" y="1514" on="0"/>
        <pt x="683" y="1454" on="0"/>
        <pt x="846" y="1454" on="0"/>
        <pt x="941" y="1511" on="0"/>
        <pt x="958" y="1579" on="1"/>
        <pt x="1147" y="1579" on="1"/>
        <pt x="1091" y="1241" on="0"/>
      </contour>
    </TTGlyph>
    <TTGlyph name="bullet" xMin="104" yMin="430" xMax="694" yMax="1065">
      <contour>
        <pt x="104" y="689" on="1"/>
        <pt x="104" y="851" on="0"/>
        <pt x="293" y="1065" on="0"/>
        <pt x="438" y="1065" on="1"/>
        <pt x="444" y="1065" on="0"/>
        <pt x="449" y="1065" on="1"/>
        <pt x="568" y="1065" on="0"/>
        <pt x="694" y="931" on="0"/>
        <pt x="694" y="807" on="1"/>
        <pt x="694" y="631" on="0"/>
        <pt x="511" y="430" on="0"/>
        <pt x="354" y="430" on="1"/>
        <pt x="236" y="430" on="0"/>
        <pt x="104" y="564" on="0"/>
      </contour>
    </TTGlyph>
    <TTGlyph name="c" xMin="90" yMin="-20" xMax="1010" yMax="1139">
      <contour>
        <pt x="842" y="59" on="1"/>
        <pt x="691" y="-20" on="0"/>
        <pt x="306" y="-20" on="0"/>
        <pt x="90" y="195" on="0"/>
        <pt x="90" y="602" on="0"/>
        <pt x="239" y="949" on="0"/>
        <pt x="374" y="1044" on="1"/>
        <pt x="510" y="1139" on="0"/>
        <pt x="864" y="1139" on="0"/>
        <pt x="1010" y="1067" on="1"/>
        <pt x="918" y="838" on="1"/>
        <pt x="873" y="857" on="0"/>
        <pt x="846" y="868" on="1"/>
        <pt x="773" y="895" on="0"/>
        <pt x="608" y="895" on="0"/>
        <pt x="471" y="765" on="0"/>
        <pt x="395" y="543" on="0"/>
        <pt x="395" y="416" on="1"/>
        <pt x="395" y="321" on="0"/>
        <pt x="485" y="223" on="0"/>
        <pt x="637" y="223" on="0"/>
        <pt x="762" y="264" on="0"/>
        <pt x="842" y="305" on="1"/>
      </contour>
    </TTGlyph>
    <TTGlyph name="caron" xMin="377" yMin="1241" xMax="1186" yMax="1569">
      <contour>
        <pt x="377" y="1569" on="1"/>
        <pt x="575" y="1569" on="1"/>
        <pt x="638" y="1516" on="0"/>
        <pt x="737" y="1401" on="1"/>
        <pt x="854" y="1497" on="0"/>
        <pt x="969" y="1569" on="1"/>
        <pt x="1186" y="1569" on="1"/>
        <pt x="1186" y="1544" on="1"/>
        <pt x="971" y="1342" on="0"/>
        <pt x="891" y="1241" on="1"/>
        <pt x="553" y="1241" on="1"/>
        <pt x="529" y="1299" on="0"/>
        <pt x="424" y="1475" on="0"/>
        <pt x="377" y="1544" on="1"/>
      </contour>
    </TTGlyph>
    <TTGlyph name="ccedilla" xMin="90" yMin="-492" xMax="1010" yMax="1139">
      <contour>
        <pt x="608" y="895" on="0"/>
        <pt x="471" y="765" on="0"/>
        <pt x="395" y="543" on="0"/>
        <pt x="395" y="416" on="1"/>
        <pt x="395" y="321" on="0"/>
        <pt x="485" y="223" on="0"/>
        <pt x="637" y="223" on="0"/>
        <pt x="762" y="264" on="0"/>
        <pt x="842" y="305" on="1"/>
        <pt x="842" y="59" on="1"/>
        <pt x="706" y="-13" on="0"/>
        <pt x="541" y="-19" on="1"/>
        <pt x="512" y="-72" on="1"/>
        <pt x="653" y="-122" on="0"/>
        <pt x="653" y="-250" on="1"/>
        <pt x="653" y="-366" on="0"/>
        <pt x="487" y="-492" on="0"/>
        <pt x="336" y="-492" on="1"/>
        <pt x="251" y="-492" on="0"/>
        <pt x="184" y="-469" on="1"/>
        <pt x="184" y="-301" on="1"/>
        <pt x="248" y="-324" on="0"/>
        <pt x="309" y="-324" on="1"/>
        <pt x="411" y="-324" on="0"/>
        <pt x="411" y="-242" on="1"/>
        <pt x="411" y="-170" on="0"/>
        <pt x="270" y="-154" on="1"/>
        <pt x="364" y="-3" on="1"/>
        <pt x="231" y="31" on="0"/>
        <pt x="90" y="233" on="0"/>
        <pt x="90" y="391" on="1"/>
        <pt x="90" y="602" on="0"/>
        <pt x="239" y="949" on="0"/>
        <pt x="374" y="1044" on="1"/>
        <pt x="510" y="1139" on="0"/>
        <pt x="864" y="1139" on="0"/>
        <pt x="1010" y="1067" on="1"/>
        <pt x="918" y="838" on="1"/>
        <pt x="873" y="857" on="0"/>
        <pt x="846" y="868" on="1"/>
        <pt x="773" y="895" on="0"/>
      </contour>
    </TTGlyph>
    <TTGlyph name="cedilla" xMin="-207" yMin="-492" xMax="262" yMax="0">
      <contour>
        <pt x="262" y="-250" on="1"/>
        <pt x="262" y="-366" on="0"/>
        <pt x="96" y="-492" on="0"/>
        <pt x="-55" y="-492" on="1"/>
        <pt x="-140" y="-492" on="0"/>
        <pt x="-207" y="-469" on="1"/>
        <pt x="-207" y="-301" on="1"/>
        <pt x="-143" y="-324" on="0"/>
        <pt x="-82" y="-324" on="1"/>
        <pt x="20" y="-324" on="0"/>
        <pt x="20" y="-242" on="1"/>
        <pt x="20" y="-170" on="0"/>
        <pt x="-121" y="-154" on="1"/>
        <pt x="-25" y="0" on="1"/>
        <pt x="160" y="0" on="1"/>
        <pt x="121" y="-72" on="1"/>
        <pt x="262" y="-122" on="0"/>
      </contour>
    </TTGlyph>
    <TTGlyph name="cent" xMin="164" yMin="-20" xMax="1083" yMax="1483">
      <contour>
        <pt x="164" y="584" on="1"/>
        <pt x="164" y="776" on="0"/>
        <pt x="289" y="1101" on="0"/>
        <pt x="520" y="1302" on="0"/>
        <pt x="672" y="1325" on="1"/>
        <pt x="705" y="1483" on="1"/>
        <pt x="893" y="1483" on="1"/>
        <pt x="858" y="1325" on="1"/>
        <pt x="975" y="1312" on="0"/>
        <pt x="1083" y="1260" on="1"/>
        <pt x="991" y="1030" on="1"/>
        <pt x="925" y="1059" on="0"/>
        <pt x="828" y="1087" on="0"/>
        <pt x="768" y="1087" on="1"/>
        <pt x="635" y="1087" on="0"/>
        <pt x="469" y="801" on="0"/>
        <pt x="469" y="608" on="1"/>
        <pt x="469" y="513" on="0"/>
        <pt x="558" y="416" on="0"/>
        <pt x="710" y="416" on="0"/>
        <pt x="835" y="457" on="0"/>
        <pt x="915" y="498" on="1"/>
        <pt x="915" y="252" on="1"/>
        <pt x="777" y="181" on="0"/>
        <pt x="616" y="172" on="1"/>
        <pt x="575" y="-20" on="1"/>
        <pt x="387" y="-20" on="1"/>
        <pt x="436" y="190" on="1"/>
        <pt x="302" y="226" on="0"/>
        <pt x="164" y="426" on="0"/>
      </contour>
    </TTGlyph>
    <TTGlyph name="circumflex" xMin="311" yMin="1241" xMax="1120" yMax="1569">
      <contour>
        <pt x="944" y="1569" on="1"/>
        <pt x="998" y="1441" on="0"/>
        <pt x="1120" y="1266" on="1"/>
        <pt x="1120" y="1241" on="1"/>
        <pt x="922" y="1241" on="1"/>
        <pt x="859" y="1294" on="0"/>
        <pt x="760" y="1409" on="1"/>
        <pt x="654" y="1319" on="0"/>
        <pt x="528" y="1241" on="1"/>
        <pt x="311" y="1241" on="1"/>
        <pt x="311" y="1266" on="1"/>
        <pt x="374" y="1323" on="0"/>
        <pt x="552" y="1501" on="0"/>
        <pt x="606" y="1569" on="1"/>
      </contour>
    </TTGlyph>
    <TTGlyph name="colon" xMin="25" yMin="-27" xMax="561" yMax="1139">
      <contour>
        <pt x="207" y="940" on="1"/>
        <pt x="207" y="1032" on="0"/>
        <pt x="318" y="1139" on="0"/>
        <pt x="412" y="1139" on="1"/>
        <pt x="481" y="1139" on="0"/>
        <pt x="561" y="1061" on="0"/>
        <pt x="561" y="993" on="1"/>
        <pt x="561" y="907" on="0"/>
        <pt x="452" y="799" on="0"/>
        <pt x="289" y="799" on="0"/>
        <pt x="207" y="872" on="0"/>
      </contour>
      <contour>
        <pt x="25" y="115" on="1"/>
        <pt x="25" y="206" on="0"/>
        <pt x="133" y="313" on="0"/>
        <pt x="229" y="313" on="1"/>
        <pt x="298" y="313" on="0"/>
        <pt x="379" y="236" on="0"/>
        <pt x="379" y="168" on="1"/>
        <pt x="379" y="81" on="0"/>
        <pt x="268" y="-27" on="0"/>
        <pt x="107" y="-27" on="0"/>
        <pt x="25" y="48" on="0"/>
      </contour>
    </TTGlyph>
    <TTGlyph name="comma" xMin="-102" yMin="-264" xMax="385" yMax="238">
      <contour>
        <pt x="377" y="238" on="1"/>
        <pt x="385" y="215" on="1"/>
        <pt x="264" y="-45" on="0"/>
        <pt x="123" y="-264" on="1"/>
        <pt x="-102" y="-264" on="1"/>
        <pt x="-28" y="-96" on="0"/>
        <pt x="92" y="238" on="1"/>
      </contour>
    </TTGlyph>
    <TTGlyph name="copyright" xMin="125" yMin="-20" xMax="1628" yMax="1483">
      <contour>
        <pt x="670" y="-20" on="0"/>
        <pt x="320" y="186" on="0"/>
        <pt x="125" y="532" on="0"/>
        <pt x="125" y="931" on="0"/>
        <pt x="326" y="1282" on="0"/>
        <pt x="676" y="1483" on="0"/>
        <pt x="1076" y="1483" on="0"/>
        <pt x="1426" y="1285" on="0"/>
        <pt x="1526" y="1108" on="1"/>
        <pt x="1628" y="932" on="0"/>
        <pt x="1628" y="532" on="0"/>
        <pt x="1529" y="358" on="1"/>
        <pt x="1432" y="184" on="0"/>
        <pt x="1083" y="-20" on="0"/>
      </contour>
      <contour>
        <pt x="428" y="1176" on="0"/>
        <pt x="266" y="894" on="0"/>
        <pt x="266" y="567" on="0"/>
        <pt x="347" y="426" on="1"/>
        <pt x="430" y="285" on="0"/>
        <pt x="713" y="121" on="0"/>
        <pt x="1043" y="121" on="0"/>
        <pt x="1326" y="286" on="0"/>
        <pt x="1406" y="427" on="1"/>
        <pt x="1487" y="568" on="0"/>
        <pt x="1487" y="894" on="0"/>
        <pt x="1406" y="1034" on="1"/>
        <pt x="1326" y="1176" on="0"/>
        <pt x="1042" y="1341" on="0"/>
        <pt x="713" y="1341" on="0"/>
      </contour>
      <contour>
        <pt x="932" y="1010" on="1"/>
        <pt x="717" y="1010" on="0"/>
        <pt x="717" y="723" on="1"/>
        <pt x="717" y="589" on="0"/>
        <pt x="827" y="451" on="0"/>
        <pt x="932" y="451" on="1"/>
        <pt x="976" y="451" on="0"/>
        <pt x="1111" y="484" on="0"/>
        <pt x="1165" y="510" on="1"/>
        <pt x="1165" y="319" on="1"/>
        <pt x="1034" y="262" on="0"/>
        <pt x="903" y="262" on="1"/>
        <pt x="707" y="262" on="0"/>
        <pt x="485" y="507" on="0"/>
        <pt x="485" y="946" on="0"/>
        <pt x="602" y="1072" on="1"/>
        <pt x="720" y="1198" on="0"/>
        <pt x="928" y="1198" on="1"/>
        <pt x="1070" y="1198" on="0"/>
        <pt x="1212" y="1126" on="1"/>
        <pt x="1137" y="952" on="1"/>
        <pt x="1024" y="1010" on="0"/>
      </contour>
    </TTGlyph>
    <TTGlyph name="d" xMin="90" yMin="-20" xMax="1274" yMax="1556">
      <contour>
        <pt x="406" y="-20" on="1"/>
        <pt x="260" y="-20" on="0"/>
        <pt x="90" y="194" on="0"/>
        <pt x="90" y="581" on="0"/>
        <pt x="233" y="940" on="0"/>
        <pt x="466" y="1139" on="0"/>
        <pt x="608" y="1139" on="1"/>
        <pt x="691" y="1139" on="0"/>
        <pt x="809" y="1064" on="0"/>
        <pt x="862" y="975" on="1"/>
        <pt x="870" y="975" on="1"/>
        <pt x="872" y="1003" on="1"/>
        <pt x="878" y="1115" on="0"/>
        <pt x="897" y="1198" on="1"/>
        <pt x="973" y="1556" on="1"/>
        <pt x="1274" y="1556" on="1"/>
        <pt x="944" y="0" on="1"/>
        <pt x="715" y="0" on="1"/>
        <pt x="729" y="145" on="1"/>
        <pt x="725" y="145" on="1"/>
        <pt x="654" y="59" on="0"/>
        <pt x="500" y="-20" on="0"/>
      </contour>
      <contour>
        <pt x="537" y="223" on="1"/>
        <pt x="600" y="223" on="0"/>
        <pt x="723" y="359" on="0"/>
        <pt x="799" y="588" on="0"/>
        <pt x="799" y="707" on="1"/>
        <pt x="799" y="713" on="0"/>
        <pt x="799" y="719" on="1"/>
        <pt x="799" y="800" on="0"/>
        <pt x="724" y="895" on="0"/>
        <pt x="590" y="895" on="0"/>
        <pt x="469" y="753" on="0"/>
        <pt x="395" y="514" on="0"/>
        <pt x="395" y="399" on="1"/>
        <pt x="395" y="223" on="0"/>
        <pt x="532" y="223" on="1"/>
        <pt x="535" y="223" on="0"/>
      </contour>
    </TTGlyph>
    <TTGlyph name="dagger" xMin="190" yMin="0" xMax="1036" yMax="1556">
      <contour>
        <pt x="674" y="958" on="1"/>
        <pt x="522" y="0" on="1"/>
        <pt x="240" y="0" on="1"/>
        <pt x="496" y="956" on="1"/>
        <pt x="190" y="928" on="1"/>
        <pt x="242" y="1169" on="1"/>
        <pt x="537" y="1141" on="1"/>
        <pt x="571" y="1556" on="1"/>
        <pt x="854" y="1556" on="1"/>
        <pt x="713" y="1141" on="1"/>
        <pt x="1036" y="1169" on="1"/>
        <pt x="985" y="928" on="1"/>
      </contour>
    </TTGlyph>
    <TTGlyph name="daggerdbl" xMin="59" yMin="0" xMax="1057" yMax="1556">
      <contour>
        <pt x="924" y="588" on="1"/>
        <pt x="872" y="346" on="1"/>
        <pt x="561" y="375" on="1"/>
        <pt x="535" y="0" on="1"/>
        <pt x="250" y="0" on="1"/>
        <pt x="383" y="375" on="1"/>
        <pt x="59" y="346" on="1"/>
        <pt x="111" y="588" on="1"/>
        <pt x="422" y="559" on="1"/>
        <pt x="426" y="786" on="1"/>
        <pt x="516" y="997" on="1"/>
        <pt x="193" y="969" on="1"/>
        <pt x="244" y="1210" on="1"/>
        <pt x="555" y="1182" on="1"/>
        <pt x="582" y="1556" on="1"/>
        <pt x="866" y="1556" on="1"/>
        <pt x="733" y="1182" on="1"/>
        <pt x="1057" y="1210" on="1"/>
        <pt x="1006" y="969" on="1"/>
        <pt x="694" y="997" on="1"/>
        <pt x="694" y="786" on="1"/>
        <pt x="600" y="559" on="1"/>
      </contour>
    </TTGlyph>
    <TTGlyph name="daletdageshhb" xMin="131" yMin="0" xMax="1211" yMax="1290">
      <contour>
        <pt x="1211" y="1290" on="1"/>
        <pt x="1164" y="1069" on="1"/>
        <pt x="1120" y="1053" on="0"/>
        <pt x="1066" y="1022" on="1"/>
        <pt x="1008" y="985" on="0"/>
        <pt x="948" y="883" on="0"/>
        <pt x="931" y="801" on="1"/>
        <pt x="761" y="0" on="1"/>
        <pt x="456" y="0" on="1"/>
        <pt x="628" y="808" on="1"/>
        <pt x="639" y="863" on="0"/>
        <pt x="690" y="953" on="0"/>
        <pt x="718" y="978" on="1"/>
        <pt x="776" y="1031" on="0"/>
        <pt x="813" y="1044" on="1"/>
        <pt x="830" y="1050" on="1"/>
        <pt x="832" y="1057" on="1"/>
        <pt x="131" y="1057" on="1"/>
        <pt x="180" y="1290" on="1"/>
      </contour>
      <contour>
        <pt x="308" y="737" on="1"/>
        <pt x="338" y="760" on="0"/>
        <pt x="425" y="760" on="0"/>
        <pt x="461" y="719" on="0"/>
        <pt x="461" y="701" on="1"/>
        <pt x="461" y="642" on="0"/>
        <pt x="420" y="610" on="1"/>
        <pt x="389" y="587" on="0"/>
        <pt x="301" y="587" on="0"/>
        <pt x="267" y="625" on="0"/>
        <pt x="267" y="643" on="1"/>
        <pt x="267" y="706" on="0"/>
      </contour>
    </TTGlyph>
    <TTGlyph name="degree" xMin="164" yMin="793" xMax="856" yMax="1483">
      <contour>
        <pt x="164" y="1147" on="1"/>
        <pt x="164" y="1280" on="0"/>
        <pt x="369" y="1483" on="0"/>
        <pt x="500" y="1483" on="1"/>
        <pt x="505" y="1483" on="0"/>
        <pt x="514" y="1483" on="0"/>
        <pt x="517" y="1483" on="1"/>
        <pt x="604" y="1483" on="0"/>
        <pt x="764" y="1389" on="0"/>
        <pt x="856" y="1230" on="0"/>
        <pt x="856" y="1144" on="1"/>
        <pt x="856" y="1141" on="0"/>
        <pt x="856" y="1132" on="0"/>
        <pt x="856" y="1127" on="1"/>
        <pt x="856" y="994" on="0"/>
        <pt x="654" y="793" on="0"/>
        <pt x="520" y="793" on="1"/>
        <pt x="510" y="793" on="0"/>
        <pt x="500" y="793" on="1"/>
        <pt x="367" y="793" on="0"/>
        <pt x="164" y="993" on="0"/>
        <pt x="164" y="1127" on="1"/>
        <pt x="164" y="1132" on="0"/>
        <pt x="164" y="1142" on="0"/>
      </contour>
      <contour>
        <pt x="399" y="1028" on="1"/>
        <pt x="446" y="983" on="0"/>
        <pt x="576" y="983" on="0"/>
        <pt x="666" y="1076" on="0"/>
        <pt x="666" y="1201" on="0"/>
        <pt x="575" y="1294" on="0"/>
        <pt x="446" y="1294" on="0"/>
        <pt x="354" y="1200" on="0"/>
        <pt x="354" y="1075" on="0"/>
      </contour>
    </TTGlyph>
    <TTGlyph name="dieresis" xMin="397" yMin="1272" xMax="1094" yMax="1540">
      <contour>
        <pt x="397" y="1382" on="1"/>
        <pt x="397" y="1459" on="0"/>
        <pt x="481" y="1540" on="0"/>
        <pt x="559" y="1540" on="1"/>
        <pt x="692" y="1540" on="0"/>
        <pt x="692" y="1432" on="1"/>
        <pt x="692" y="1357" on="0"/>
        <pt x="612" y="1272" on="0"/>
        <pt x="532" y="1272" on="1"/>
        <pt x="397" y="1272" on="0"/>
      </contour>
      <contour>
        <pt x="799" y="1382" on="1"/>
        <pt x="799" y="1460" on="0"/>
        <pt x="883" y="1540" on="0"/>
        <pt x="954" y="1540" on="1"/>
        <pt x="1094" y="1540" on="0"/>
        <pt x="1094" y="1432" on="1"/>
        <pt x="1094" y="1357" on="0"/>
        <pt x="1013" y="1272" on="0"/>
        <pt x="934" y="1272" on="1"/>
        <pt x="799" y="1272" on="0"/>
      </contour>
    </TTGlyph>
    <TTGlyph name="divide" xMin="109" yMin="221" xMax="1061" yMax="1223">
      <contour>
        <pt x="518" y="920" on="0"/>
        <pt x="444" y="999" on="0"/>
        <pt x="444" y="1145" on="0"/>
        <pt x="517" y="1223" on="0"/>
        <pt x="650" y="1223" on="0"/>
        <pt x="723" y="1143" on="0"/>
        <pt x="723" y="1001" on="0"/>
        <pt x="649" y="920" on="0"/>
      </contour>
      <contour>
        <pt x="109" y="831" on="1"/>
        <pt x="1061" y="831" on="1"/>
        <pt x="1061" y="612" on="1"/>
        <pt x="109" y="612" on="1"/>
      </contour>
      <contour>
        <pt x="518" y="221" on="0"/>
        <pt x="444" y="300" on="0"/>
        <pt x="444" y="448" on="0"/>
        <pt x="517" y="524" on="0"/>
        <pt x="650" y="524" on="0"/>
        <pt x="723" y="445" on="0"/>
        <pt x="723" y="303" on="0"/>
        <pt x="649" y="221" on="0"/>
      </contour>
    </TTGlyph>
    <TTGlyph name="dollar" xMin="51" yMin="-119" xMax="1120" yMax="1556">
      <contour>
        <pt x="1034" y="496" on="1"/>
        <pt x="1034" y="311" on="0"/>
        <pt x="782" y="97" on="0"/>
        <pt x="541" y="80" on="1"/>
        <pt x="502" y="-119" on="1"/>
        <pt x="362" y="-119" on="1"/>
        <pt x="406" y="82" on="1"/>
        <pt x="197" y="94" on="0"/>
        <pt x="51" y="168" on="1"/>
        <pt x="51" y="434" on="1"/>
        <pt x="249" y="328" on="0"/>
        <pt x="455" y="317" on="1"/>
        <pt x="526" y="639" on="1"/>
        <pt x="207" y="758" on="0"/>
        <pt x="207" y="1004" on="1"/>
        <pt x="207" y="1177" on="0"/>
        <pt x="462" y="1390" on="0"/>
        <pt x="684" y="1405" on="1"/>
        <pt x="719" y="1556" on="1"/>
        <pt x="858" y="1556" on="1"/>
        <pt x="825" y="1405" on="1"/>
        <pt x="991" y="1383" on="0"/>
        <pt x="1120" y="1315" on="1"/>
        <pt x="1014" y="1083" on="1"/>
        <pt x="881" y="1148" on="0"/>
        <pt x="772" y="1157" on="1"/>
        <pt x="709" y="858" on="1"/>
        <pt x="841" y="806" on="0"/>
        <pt x="904" y="758" on="1"/>
        <pt x="1034" y="660" on="0"/>
      </contour>
      <contour>
        <pt x="502" y="1022" on="1"/>
        <pt x="502" y="943" on="0"/>
        <pt x="582" y="911" on="1"/>
        <pt x="633" y="1157" on="1"/>
        <pt x="570" y="1150" on="0"/>
        <pt x="502" y="1081" on="0"/>
      </contour>
      <contour>
        <pt x="735" y="465" on="1"/>
        <pt x="735" y="550" on="0"/>
        <pt x="651" y="584" on="1"/>
        <pt x="594" y="322" on="1"/>
        <pt x="659" y="331" on="0"/>
        <pt x="735" y="404" on="0"/>
      </contour>
    </TTGlyph>
    <TTGlyph name="dotaccent" xMin="322" yMin="1257" xMax="653" yMax="1556">
      <contour>
        <pt x="322" y="1380" on="1"/>
        <pt x="322" y="1466" on="0"/>
        <pt x="416" y="1556" on="0"/>
        <pt x="496" y="1556" on="1"/>
        <pt x="653" y="1556" on="0"/>
        <pt x="653" y="1436" on="1"/>
        <pt x="653" y="1353" on="0"/>
        <pt x="563" y="1257" on="0"/>
        <pt x="473" y="1257" on="1"/>
        <pt x="322" y="1257" on="0"/>
      </contour>
    </TTGlyph>
    <TTGlyph name="dotlessi" xMin="37" yMin="0" xMax="575" yMax="1118">
      <contour>
        <pt x="37" y="0" on="1"/>
        <pt x="274" y="1118" on="1"/>
        <pt x="575" y="1118" on="1"/>
        <pt x="338" y="0" on="1"/>
      </contour>
    </TTGlyph>
    <TTGlyph name="e" xMin="90" yMin="-20" xMax="1090" yMax="1139">
      <contour>
        <pt x="922" y="66" on="1"/>
        <pt x="748" y="-20" on="0"/>
        <pt x="322" y="-20" on="0"/>
        <pt x="90" y="206" on="0"/>
        <pt x="90" y="621" on="0"/>
        <pt x="255" y="959" on="0"/>
        <pt x="536" y="1139" on="0"/>
        <pt x="893" y="1139" on="0"/>
        <pt x="1090" y="976" on="0"/>
        <pt x="1090" y="834" on="1"/>
        <pt x="1090" y="647" on="0"/>
        <pt x="756" y="444" on="0"/>
        <pt x="446" y="444" on="1"/>
        <pt x="395" y="444" on="1"/>
        <pt x="393" y="423" on="1"/>
        <pt x="393" y="403" on="1"/>
        <pt x="393" y="311" on="0"/>
        <pt x="497" y="207" on="0"/>
        <pt x="681" y="207" on="0"/>
        <pt x="825" y="247" on="0"/>
        <pt x="922" y="293" on="1"/>
      </contour>
      <contour>
        <pt x="473" y="647" on="1"/>
        <pt x="627" y="647" on="0"/>
        <pt x="801" y="743" on="0"/>
        <pt x="801" y="827" on="1"/>
        <pt x="801" y="922" on="0"/>
        <pt x="696" y="922" on="1"/>
        <pt x="608" y="922" on="0"/>
        <pt x="452" y="762" on="0"/>
        <pt x="428" y="647" on="1"/>
      </contour>
    </TTGlyph>
    <TTGlyph name="eacute" xMin="90" yMin="-20" xMax="1090" yMax="1569">
      <contour>
        <pt x="528" y="1241" on="1"/>
        <pt x="528" y="1266" on="1"/>
        <pt x="608" y="1354" on="0"/>
        <pt x="750" y="1569" on="1"/>
        <pt x="1085" y="1569" on="1"/>
        <pt x="1085" y="1552" on="1"/>
        <pt x="1037" y="1495" on="0"/>
        <pt x="822" y="1302" on="0"/>
        <pt x="737" y="1241" on="1"/>
      </contour>
      <contour>
        <pt x="922" y="66" on="1"/>
        <pt x="748" y="-20" on="0"/>
        <pt x="322" y="-20" on="0"/>
        <pt x="90" y="206" on="0"/>
        <pt x="90" y="621" on="0"/>
        <pt x="255" y="959" on="0"/>
        <pt x="536" y="1139" on="0"/>
        <pt x="893" y="1139" on="0"/>
        <pt x="1090" y="976" on="0"/>
        <pt x="1090" y="834" on="1"/>
        <pt x="1090" y="647" on="0"/>
        <pt x="756" y="444" on="0"/>
        <pt x="446" y="444" on="1"/>
        <pt x="395" y="444" on="1"/>
        <pt x="393" y="423" on="1"/>
        <pt x="393" y="403" on="1"/>
        <pt x="393" y="311" on="0"/>
        <pt x="497" y="207" on="0"/>
        <pt x="681" y="207" on="0"/>
        <pt x="825" y="247" on="0"/>
        <pt x="922" y="293" on="1"/>
      </contour>
      <contour>
        <pt x="473" y="647" on="1"/>
        <pt x="627" y="647" on="0"/>
        <pt x="801" y="743" on="0"/>
        <pt x="801" y="827" on="1"/>
        <pt x="801" y="922" on="0"/>
        <pt x="696" y="922" on="1"/>
        <pt x="608" y="922" on="0"/>
        <pt x="452" y="762" on="0"/>
        <pt x="428" y="647" on="1"/>
      </contour>
    </TTGlyph>
    <TTGlyph name="ecircumflex" xMin="90" yMin="-20" xMax="1101" yMax="1569">
      <contour>
        <pt x="925" y="1569" on="1"/>
        <pt x="979" y="1441" on="0"/>
        <pt x="1101" y="1266" on="1"/>
        <pt x="1101" y="1241" on="1"/>
        <pt x="903" y="1241" on="1"/>
        <pt x="840" y="1294" on="0"/>
        <pt x="741" y="1409" on="1"/>
        <pt x="635" y="1319" on="0"/>
        <pt x="509" y="1241" on="1"/>
        <pt x="292" y="1241" on="1"/>
        <pt x="292" y="1266" on="1"/>
        <pt x="355" y="1323" on="0"/>
        <pt x="533" y="1501" on="0"/>
        <pt x="587" y="1569" on="1"/>
      </contour>
      <contour>
        <pt x="922" y="66" on="1"/>
        <pt x="748" y="-20" on="0"/>
        <pt x="322" y="-20" on="0"/>
        <pt x="90" y="206" on="0"/>
        <pt x="90" y="621" on="0"/>
        <pt x="255" y="959" on="0"/>
        <pt x="536" y="1139" on="0"/>
        <pt x="893" y="1139" on="0"/>
        <pt x="1090" y="976" on="0"/>
        <pt x="1090" y="834" on="1"/>
        <pt x="1090" y="647" on="0"/>
        <pt x="756" y="444" on="0"/>
        <pt x="446" y="444" on="1"/>
        <pt x="395" y="444" on="1"/>
        <pt x="393" y="423" on="1"/>
        <pt x="393" y="403" on="1"/>
        <pt x="393" y="311" on="0"/>
        <pt x="497" y="207" on="0"/>
        <pt x="681" y="207" on="0"/>
        <pt x="825" y="247" on="0"/>
        <pt x="922" y="293" on="1"/>
      </contour>
      <contour>
        <pt x="473" y="647" on="1"/>
        <pt x="627" y="647" on="0"/>
        <pt x="801" y="743" on="0"/>
        <pt x="801" y="827" on="1"/>
        <pt x="801" y="922" on="0"/>
        <pt x="696" y="922" on="1"/>
        <pt x="608" y="922" on="0"/>
        <pt x="452" y="762" on="0"/>
        <pt x="428" y="647" on="1"/>
      </contour>
    </TTGlyph>
    <TTGlyph name="edieresis" xMin="90" yMin="-20" xMax="1090" yMax="1540">
      <contour>
        <pt x="365" y="1382" on="1"/>
        <pt x="365" y="1459" on="0"/>
        <pt x="449" y="1540" on="0"/>
        <pt x="527" y="1540" on="1"/>
        <pt x="660" y="1540" on="0"/>
        <pt x="660" y="1432" on="1"/>
        <pt x="660" y="1357" on="0"/>
        <pt x="580" y="1272" on="0"/>
        <pt x="500" y="1272" on="1"/>
        <pt x="365" y="1272" on="0"/>
      </contour>
      <contour>
        <pt x="767" y="1382" on="1"/>
        <pt x="767" y="1460" on="0"/>
        <pt x="851" y="1540" on="0"/>
        <pt x="922" y="1540" on="1"/>
        <pt x="1062" y="1540" on="0"/>
        <pt x="1062" y="1432" on="1"/>
        <pt x="1062" y="1357" on="0"/>
        <pt x="981" y="1272" on="0"/>
        <pt x="902" y="1272" on="1"/>
        <pt x="767" y="1272" on="0"/>
      </contour>
      <contour>
        <pt x="922" y="66" on="1"/>
        <pt x="748" y="-20" on="0"/>
        <pt x="322" y="-20" on="0"/>
        <pt x="90" y="206" on="0"/>
        <pt x="90" y="621" on="0"/>
        <pt x="255" y="959" on="0"/>
        <pt x="536" y="1139" on="0"/>
        <pt x="893" y="1139" on="0"/>
        <pt x="1090" y="976" on="0"/>
        <pt x="1090" y="834" on="1"/>
        <pt x="1090" y="647" on="0"/>
        <pt x="756" y="444" on="0"/>
        <pt x="446" y="444" on="1"/>
        <pt x="395" y="444" on="1"/>
        <pt x="393" y="423" on="1"/>
        <pt x="393" y="403" on="1"/>
        <pt x="393" y="311" on="0"/>
        <pt x="497" y="207" on="0"/>
        <pt x="681" y="207" on="0"/>
        <pt x="825" y="247" on="0"/>
        <pt x="922" y="293" on="1"/>
      </contour>
      <contour>
        <pt x="473" y="647" on="1"/>
        <pt x="627" y="647" on="0"/>
        <pt x="801" y="743" on="0"/>
        <pt x="801" y="827" on="1"/>
        <pt x="801" y="922" on="0"/>
        <pt x="696" y="922" on="1"/>
        <pt x="608" y="922" on="0"/>
        <pt x="452" y="762" on="0"/>
        <pt x="428" y="647" on="1"/>
      </contour>
    </TTGlyph>
    <TTGlyph name="egrave" xMin="90" yMin="-20" xMax="1090" yMax="1569">
      <contour>
        <pt x="665" y="1241" on="1"/>
        <pt x="496" y="1407" on="0"/>
        <pt x="423" y="1548" on="1"/>
        <pt x="423" y="1569" on="1"/>
        <pt x="734" y="1569" on="1"/>
        <pt x="770" y="1419" on="0"/>
        <pt x="849" y="1266" on="1"/>
        <pt x="849" y="1241" on="1"/>
      </contour>
      <contour>
        <pt x="922" y="66" on="1"/>
        <pt x="748" y="-20" on="0"/>
        <pt x="322" y="-20" on="0"/>
        <pt x="90" y="206" on="0"/>
        <pt x="90" y="621" on="0"/>
        <pt x="255" y="959" on="0"/>
        <pt x="536" y="1139" on="0"/>
        <pt x="893" y="1139" on="0"/>
        <pt x="1090" y="976" on="0"/>
        <pt x="1090" y="834" on="1"/>
        <pt x="1090" y="647" on="0"/>
        <pt x="756" y="444" on="0"/>
        <pt x="446" y="444" on="1"/>
        <pt x="395" y="444" on="1"/>
        <pt x="393" y="423" on="1"/>
        <pt x="393" y="403" on="1"/>
        <pt x="393" y="311" on="0"/>
        <pt x="497" y="207" on="0"/>
        <pt x="681" y="207" on="0"/>
        <pt x="825" y="247" on="0"/>
        <pt x="922" y="293" on="1"/>
      </contour>
      <contour>
        <pt x="473" y="647" on="1"/>
        <pt x="627" y="647" on="0"/>
        <pt x="801" y="743" on="0"/>
        <pt x="801" y="827" on="1"/>
        <pt x="801" y="922" on="0"/>
        <pt x="696" y="922" on="1"/>
        <pt x="608" y="922" on="0"/>
        <pt x="452" y="762" on="0"/>
        <pt x="428" y="647" on="1"/>
      </contour>
    </TTGlyph>
    <TTGlyph name="eight" xMin="55" yMin="-20" xMax="1126" yMax="1485">
      <contour>
        <pt x="729" y="1485" on="1"/>
        <pt x="906" y="1485" on="0"/>
        <pt x="1126" y="1301" on="0"/>
        <pt x="1126" y="1159" on="1"/>
        <pt x="1126" y="1155" on="0"/>
        <pt x="1126" y="1151" on="1"/>
        <pt x="1126" y="1017" on="0"/>
        <pt x="965" y="818" on="0"/>
        <pt x="815" y="766" on="1"/>
        <pt x="1032" y="625" on="0"/>
        <pt x="1032" y="401" on="1"/>
        <pt x="1032" y="397" on="0"/>
        <pt x="1032" y="394" on="1"/>
        <pt x="1032" y="214" on="0"/>
        <pt x="749" y="-20" on="0"/>
        <pt x="525" y="-20" on="1"/>
        <pt x="520" y="-20" on="0"/>
        <pt x="514" y="-20" on="1"/>
        <pt x="299" y="-20" on="0"/>
        <pt x="55" y="181" on="0"/>
        <pt x="55" y="350" on="1"/>
        <pt x="55" y="648" on="0"/>
        <pt x="403" y="776" on="1"/>
        <pt x="238" y="908" on="0"/>
        <pt x="238" y="1075" on="1"/>
        <pt x="238" y="1079" on="0"/>
        <pt x="238" y="1083" on="1"/>
        <pt x="238" y="1258" on="0"/>
        <pt x="500" y="1485" on="0"/>
        <pt x="710" y="1485" on="1"/>
        <pt x="716" y="1485" on="0"/>
        <pt x="725" y="1485" on="0"/>
      </contour>
      <contour>
        <pt x="836" y="1181" on="0"/>
        <pt x="758" y="1260" on="0"/>
        <pt x="619" y="1260" on="0"/>
        <pt x="528" y="1167" on="0"/>
        <pt x="528" y="1094" on="1"/>
        <pt x="528" y="962" on="0"/>
        <pt x="651" y="893" on="1"/>
        <pt x="836" y="965" on="0"/>
        <pt x="836" y="1114" on="1"/>
      </contour>
      <contour>
        <pt x="464" y="597" on="0"/>
        <pt x="352" y="473" on="0"/>
        <pt x="352" y="302" on="0"/>
        <pt x="452" y="207" on="0"/>
        <pt x="629" y="207" on="0"/>
        <pt x="739" y="314" on="0"/>
        <pt x="739" y="473" on="0"/>
        <pt x="665" y="590" on="0"/>
        <pt x="582" y="643" on="1"/>
      </contour>
    </TTGlyph>
    <TTGlyph name="ellipsis" xMin="25" yMin="-27" xMax="1501" yMax="313">
      <contour>
        <pt x="25" y="115" on="1"/>
        <pt x="25" y="206" on="0"/>
        <pt x="133" y="313" on="0"/>
        <pt x="229" y="313" on="1"/>
        <pt x="298" y="313" on="0"/>
        <pt x="379" y="236" on="0"/>
        <pt x="379" y="168" on="1"/>
        <pt x="379" y="81" on="0"/>
        <pt x="268" y="-27" on="0"/>
        <pt x="107" y="-27" on="0"/>
        <pt x="25" y="48" on="0"/>
      </contour>
      <contour>
        <pt x="586" y="115" on="1"/>
        <pt x="586" y="206" on="0"/>
        <pt x="694" y="313" on="0"/>
        <pt x="790" y="313" on="1"/>
        <pt x="859" y="313" on="0"/>
        <pt x="940" y="236" on="0"/>
        <pt x="940" y="168" on="1"/>
        <pt x="940" y="81" on="0"/>
        <pt x="830" y="-27" on="0"/>
        <pt x="668" y="-27" on="0"/>
        <pt x="586" y="48" on="0"/>
      </contour>
      <contour>
        <pt x="1147" y="115" on="1"/>
        <pt x="1147" y="206" on="0"/>
        <pt x="1255" y="313" on="0"/>
        <pt x="1351" y="313" on="1"/>
        <pt x="1420" y="313" on="0"/>
        <pt x="1501" y="236" on="0"/>
        <pt x="1501" y="168" on="1"/>
        <pt x="1501" y="81" on="0"/>
        <pt x="1390" y="-27" on="0"/>
        <pt x="1229" y="-27" on="0"/>
        <pt x="1147" y="48" on="0"/>
      </contour>
    </TTGlyph>
    <TTGlyph name="emdash" xMin="41" yMin="436" xMax="1925" yMax="666">
      <contour>
        <pt x="90" y="666" on="1"/>
        <pt x="1925" y="666" on="1"/>
        <pt x="1876" y="436" on="1"/>
        <pt x="41" y="436" on="1"/>
      </contour>
    </TTGlyph>
    <TTGlyph name="endash" xMin="41" yMin="436" xMax="942" yMax="666">
      <contour>
        <pt x="90" y="666" on="1"/>
        <pt x="942" y="666" on="1"/>
        <pt x="893" y="436" on="1"/>
        <pt x="41" y="436" on="1"/>
      </contour>
    </TTGlyph>
    <TTGlyph name="equal" xMin="109" yMin="418" xMax="1061" yMax="1024">
      <contour>
        <pt x="109" y="1024" on="1"/>
        <pt x="1061" y="1024" on="1"/>
        <pt x="1061" y="807" on="1"/>
        <pt x="109" y="807" on="1"/>
      </contour>
      <contour>
        <pt x="109" y="637" on="1"/>
        <pt x="1061" y="637" on="1"/>
        <pt x="1061" y="418" on="1"/>
        <pt x="109" y="418" on="1"/>
      </contour>
    </TTGlyph>
    <TTGlyph name="exclam" xMin="25" yMin="-27" xMax="647" yMax="1462">
      <contour>
        <pt x="150" y="485" on="1"/>
        <pt x="307" y="1462" on="1"/>
        <pt x="647" y="1462" on="1"/>
        <pt x="391" y="485" on="1"/>
      </contour>
      <contour>
        <pt x="25" y="115" on="1"/>
        <pt x="25" y="206" on="0"/>
        <pt x="133" y="313" on="0"/>
        <pt x="229" y="313" on="1"/>
        <pt x="298" y="313" on="0"/>
        <pt x="379" y="236" on="0"/>
        <pt x="379" y="168" on="1"/>
        <pt x="379" y="81" on="0"/>
        <pt x="268" y="-27" on="0"/>
        <pt x="107" y="-27" on="0"/>
        <pt x="25" y="48" on="0"/>
      </contour>
    </TTGlyph>
    <TTGlyph name="exclamdown" xMin="-74" yMin="-371" xMax="549" yMax="1118">
      <contour>
        <pt x="549" y="977" on="1"/>
        <pt x="549" y="885" on="0"/>
        <pt x="438" y="778" on="0"/>
        <pt x="344" y="778" on="1"/>
        <pt x="275" y="778" on="0"/>
        <pt x="195" y="855" on="0"/>
        <pt x="195" y="1009" on="0"/>
        <pt x="303" y="1118" on="0"/>
        <pt x="466" y="1118" on="0"/>
        <pt x="549" y="1044" on="0"/>
      </contour>
      <contour>
        <pt x="424" y="606" on="1"/>
        <pt x="266" y="-371" on="1"/>
        <pt x="-74" y="-371" on="1"/>
        <pt x="182" y="606" on="1"/>
      </contour>
    </TTGlyph>
    <TTGlyph name="f" xMin="-219" yMin="-492" xMax="987" yMax="1567">
      <contour>
        <pt x="-45" y="-492" on="1"/>
        <pt x="-150" y="-492" on="0"/>
        <pt x="-219" y="-467" on="1"/>
        <pt x="-219" y="-225" on="1"/>
        <pt x="-157" y="-246" on="0"/>
        <pt x="-40" y="-246" on="0"/>
        <pt x="50" y="-163" on="0"/>
        <pt x="68" y="-76" on="1"/>
        <pt x="272" y="889" on="1"/>
        <pt x="109" y="889" on="1"/>
        <pt x="139" y="1034" on="1"/>
        <pt x="322" y="1118" on="1"/>
        <pt x="340" y="1202" on="1"/>
        <pt x="381" y="1393" on="0"/>
        <pt x="577" y="1567" on="0"/>
        <pt x="752" y="1567" on="1"/>
        <pt x="885" y="1567" on="0"/>
        <pt x="987" y="1518" on="1"/>
        <pt x="907" y="1294" on="1"/>
        <pt x="839" y="1325" on="0"/>
        <pt x="719" y="1325" on="0"/>
        <pt x="647" y="1247" on="0"/>
        <pt x="635" y="1180" on="1"/>
        <pt x="623" y="1118" on="1"/>
        <pt x="842" y="1118" on="1"/>
        <pt x="793" y="889" on="1"/>
        <pt x="573" y="889" on="1"/>
        <pt x="358" y="-121" on="1"/>
        <pt x="281" y="-492" on="0"/>
      </contour>
    </TTGlyph>
    <TTGlyph name="finalkafdageshhb" xMin="139" yMin="-492" xMax="987" yMax="1310">
      <contour>
        <pt x="569" y="1310" on="1"/>
        <pt x="687" y="1310" on="0"/>
        <pt x="856" y="1242" on="0"/>
        <pt x="947" y="1130" on="0"/>
        <pt x="987" y="982" on="0"/>
        <pt x="987" y="910" on="1"/>
        <pt x="987" y="824" on="0"/>
        <pt x="964" y="719" on="1"/>
        <pt x="706" y="-492" on="1"/>
        <pt x="400" y="-492" on="1"/>
        <pt x="664" y="750" on="1"/>
        <pt x="680" y="823" on="0"/>
        <pt x="680" y="932" on="0"/>
        <pt x="645" y="1024" on="0"/>
        <pt x="553" y="1075" on="0"/>
        <pt x="480" y="1075" on="1"/>
        <pt x="352" y="1075" on="0"/>
        <pt x="139" y="1053" on="1"/>
        <pt x="189" y="1288" on="1"/>
        <pt x="371" y="1310" on="0"/>
      </contour>
      <contour>
        <pt x="274" y="737" on="1"/>
        <pt x="304" y="760" on="0"/>
        <pt x="391" y="760" on="0"/>
        <pt x="427" y="719" on="0"/>
        <pt x="427" y="701" on="1"/>
        <pt x="427" y="642" on="0"/>
        <pt x="386" y="610" on="1"/>
        <pt x="355" y="587" on="0"/>
        <pt x="267" y="587" on="0"/>
        <pt x="233" y="625" on="0"/>
        <pt x="233" y="643" on="1"/>
        <pt x="233" y="706" on="0"/>
      </contour>
    </TTGlyph>
    <TTGlyph name="finalpedageshhb" xMin="109" yMin="-492" xMax="1192" yMax="1312">
      <contour>
        <pt x="109" y="730" on="1"/>
        <pt x="109" y="786" on="0"/>
        <pt x="145" y="956" on="0"/>
        <pt x="246" y="1118" on="0"/>
        <pt x="375" y="1219" on="0"/>
        <pt x="455" y="1252" on="1"/>
        <pt x="597" y="1312" on="0"/>
        <pt x="764" y="1312" on="1"/>
        <pt x="954" y="1312" on="0"/>
        <pt x="1062" y="1225" on="1"/>
        <pt x="1101" y="1193" on="0"/>
        <pt x="1132" y="1141" on="1"/>
        <pt x="1192" y="1043" on="0"/>
        <pt x="1192" y="884" on="1"/>
        <pt x="1192" y="775" on="0"/>
        <pt x="1164" y="646" on="1"/>
        <pt x="922" y="-492" on="1"/>
        <pt x="611" y="-492" on="1"/>
        <pt x="853" y="646" on="1"/>
        <pt x="886" y="797" on="0"/>
        <pt x="886" y="875" on="1"/>
        <pt x="886" y="917" on="0"/>
        <pt x="864" y="998" on="0"/>
        <pt x="844" y="1018" on="1"/>
        <pt x="798" y="1067" on="0"/>
        <pt x="712" y="1067" on="1"/>
        <pt x="649" y="1067" on="0"/>
        <pt x="549" y="1030" on="0"/>
        <pt x="493" y="982" on="0"/>
        <pt x="472" y="950" on="1"/>
        <pt x="443" y="903" on="0"/>
        <pt x="430" y="839" on="0"/>
        <pt x="430" y="794" on="0"/>
        <pt x="447" y="734" on="0"/>
        <pt x="472" y="712" on="1"/>
        <pt x="517" y="670" on="0"/>
        <pt x="561" y="661" on="1"/>
        <pt x="598" y="654" on="1"/>
        <pt x="498" y="426" on="1"/>
        <pt x="447" y="433" on="1"/>
        <pt x="315" y="451" on="0"/>
        <pt x="251" y="482" on="1"/>
        <pt x="109" y="552" on="0"/>
      </contour>
      <contour>
        <pt x="615" y="937" on="1"/>
        <pt x="645" y="960" on="0"/>
        <pt x="732" y="960" on="0"/>
        <pt x="768" y="919" on="0"/>
        <pt x="768" y="901" on="1"/>
        <pt x="768" y="842" on="0"/>
        <pt x="727" y="810" on="1"/>
        <pt x="696" y="787" on="0"/>
        <pt x="608" y="787" on="0"/>
        <pt x="574" y="825" on="0"/>
        <pt x="574" y="843" on="1"/>
        <pt x="574" y="906" on="0"/>
      </contour>
    </TTGlyph>
    <TTGlyph name="five" xMin="27" yMin="-20" xMax="1128" yMax="1462">
      <contour>
        <pt x="623" y="922" on="1"/>
        <pt x="806" y="922" on="0"/>
        <pt x="1018" y="716" on="0"/>
        <pt x="1018" y="532" on="1"/>
        <pt x="1018" y="529" on="0"/>
        <pt x="1018" y="526" on="1"/>
        <pt x="1018" y="277" on="0"/>
        <pt x="697" y="-20" on="0"/>
        <pt x="419" y="-20" on="1"/>
        <pt x="414" y="-20" on="0"/>
        <pt x="408" y="-20" on="1"/>
        <pt x="293" y="-20" on="0"/>
        <pt x="91" y="25" on="0"/>
        <pt x="27" y="61" on="1"/>
        <pt x="27" y="330" on="1"/>
        <pt x="201" y="231" on="0"/>
        <pt x="379" y="231" on="1"/>
        <pt x="532" y="231" on="0"/>
        <pt x="707" y="372" on="0"/>
        <pt x="707" y="496" on="1"/>
        <pt x="707" y="589" on="0"/>
        <pt x="592" y="684" on="0"/>
        <pt x="381" y="684" on="0"/>
        <pt x="270" y="651" on="1"/>
        <pt x="166" y="729" on="1"/>
        <pt x="373" y="1462" on="1"/>
        <pt x="1128" y="1462" on="1"/>
        <pt x="1073" y="1200" on="1"/>
        <pt x="584" y="1200" on="1"/>
        <pt x="496" y="907" on="1"/>
        <pt x="568" y="922" on="0"/>
      </contour>
    </TTGlyph>
    <TTGlyph name="florin" xMin="-31" yMin="-492" xMax="1157" yMax="1483">
      <contour>
        <pt x="143" y="-492" on="1"/>
        <pt x="38" y="-492" on="0"/>
        <pt x="-31" y="-467" on="1"/>
        <pt x="-31" y="-225" on="1"/>
        <pt x="30" y="-246" on="0"/>
        <pt x="84" y="-246" on="1"/>
        <pt x="220" y="-246" on="0"/>
        <pt x="256" y="-76" on="1"/>
        <pt x="442" y="805" on="1"/>
        <pt x="274" y="805" on="1"/>
        <pt x="303" y="954" on="1"/>
        <pt x="492" y="1034" on="1"/>
        <pt x="510" y="1118" on="1"/>
        <pt x="551" y="1309" on="0"/>
        <pt x="747" y="1483" on="0"/>
        <pt x="922" y="1483" on="1"/>
        <pt x="1055" y="1483" on="0"/>
        <pt x="1157" y="1434" on="1"/>
        <pt x="1077" y="1210" on="1"/>
        <pt x="1009" y="1241" on="0"/>
        <pt x="889" y="1241" on="0"/>
        <pt x="817" y="1163" on="0"/>
        <pt x="805" y="1096" on="1"/>
        <pt x="793" y="1034" on="1"/>
        <pt x="1012" y="1034" on="1"/>
        <pt x="963" y="805" on="1"/>
        <pt x="743" y="805" on="1"/>
        <pt x="547" y="-121" on="1"/>
        <pt x="470" y="-492" on="0"/>
      </contour>
    </TTGlyph>
    <TTGlyph name="four" xMin="-25" yMin="0" xMax="1104" yMax="1462">
      <contour>
        <pt x="858" y="303" on="1"/>
        <pt x="795" y="0" on="1"/>
        <pt x="502" y="0" on="1"/>
        <pt x="565" y="303" on="1"/>
        <pt x="-25" y="303" on="1"/>
        <pt x="23" y="537" on="1"/>
        <pt x="793" y="1462" on="1"/>
        <pt x="1104" y="1462" on="1"/>
        <pt x="909" y="543" on="1"/>
        <pt x="1079" y="543" on="1"/>
        <pt x="1028" y="303" on="1"/>
      </contour>
      <contour>
        <pt x="616" y="543" on="1"/>
        <pt x="674" y="791" on="1"/>
        <pt x="687" y="853" on="0"/>
        <pt x="742" y="1062" on="0"/>
        <pt x="756" y="1096" on="1"/>
        <pt x="750" y="1096" on="1"/>
        <pt x="716" y="1034" on="0"/>
        <pt x="618" y="915" on="1"/>
        <pt x="305" y="543" on="1"/>
      </contour>
    </TTGlyph>
    <TTGlyph name="fraction" xMin="-532" yMin="0" xMax="791" yMax="1462">
      <contour>
        <pt x="-293" y="0" on="1"/>
        <pt x="-532" y="0" on="1"/>
        <pt x="555" y="1462" on="1"/>
        <pt x="791" y="1462" on="1"/>
      </contour>
    </TTGlyph>
    <TTGlyph name="g" xMin="-115" yMin="-492" xMax="1186" yMax="1139">
      <contour>
        <pt x="993" y="791" on="1"/>
        <pt x="993" y="596" on="0"/>
        <pt x="872" y="482" on="1"/>
        <pt x="750" y="369" on="0"/>
        <pt x="543" y="369" on="1"/>
        <pt x="483" y="369" on="0"/>
        <pt x="444" y="379" on="1"/>
        <pt x="360" y="352" on="0"/>
        <pt x="360" y="301" on="1"/>
        <pt x="360" y="269" on="0"/>
        <pt x="416" y="238" on="0"/>
        <pt x="479" y="229" on="1"/>
        <pt x="616" y="211" on="1"/>
        <pt x="779" y="190" on="0"/>
        <pt x="928" y="63" on="0"/>
        <pt x="928" y="-57" on="1"/>
        <pt x="928" y="-268" on="0"/>
        <pt x="617" y="-492" on="0"/>
        <pt x="326" y="-492" on="1"/>
        <pt x="117" y="-492" on="0"/>
        <pt x="-115" y="-341" on="0"/>
        <pt x="-115" y="-209" on="1"/>
        <pt x="-115" y="-106" on="0"/>
        <pt x="23" y="40" on="0"/>
        <pt x="168" y="88" on="1"/>
        <pt x="94" y="135" on="0"/>
        <pt x="94" y="221" on="1"/>
        <pt x="94" y="292" on="0"/>
        <pt x="183" y="395" on="0"/>
        <pt x="285" y="442" on="1"/>
        <pt x="219" y="491" on="0"/>
        <pt x="158" y="618" on="0"/>
        <pt x="158" y="707" on="1"/>
        <pt x="158" y="906" on="0"/>
        <pt x="409" y="1139" on="0"/>
        <pt x="625" y="1139" on="1"/>
        <pt x="707" y="1139" on="0"/>
        <pt x="791" y="1116" on="1"/>
        <pt x="1186" y="1116" on="1"/>
        <pt x="1151" y="950" on="1"/>
        <pt x="977" y="909" on="1"/>
        <pt x="993" y="858" on="0"/>
      </contour>
      <contour>
        <pt x="614" y="948" on="1"/>
        <pt x="537" y="948" on="0"/>
        <pt x="442" y="794" on="0"/>
        <pt x="442" y="561" on="0"/>
        <pt x="545" y="561" on="1"/>
        <pt x="620" y="561" on="0"/>
        <pt x="713" y="714" on="0"/>
        <pt x="713" y="948" on="0"/>
      </contour>
      <contour>
        <pt x="150" y="-172" on="1"/>
        <pt x="150" y="-287" on="0"/>
        <pt x="344" y="-287" on="1"/>
        <pt x="493" y="-287" on="0"/>
        <pt x="649" y="-198" on="0"/>
        <pt x="649" y="-115" on="1"/>
        <pt x="649" y="-76" on="0"/>
        <pt x="584" y="-33" on="0"/>
        <pt x="479" y="-20" on="1"/>
        <pt x="365" y="-6" on="1"/>
        <pt x="260" y="-20" on="0"/>
        <pt x="150" y="-106" on="0"/>
      </contour>
    </TTGlyph>
    <TTGlyph name="gereshhb" xMin="84" yMin="789" xMax="572" yMax="1290">
      <contour>
        <pt x="564" y="1290" on="1"/>
        <pt x="572" y="1268" on="1"/>
        <pt x="466" y="1037" on="0"/>
        <pt x="310" y="789" on="1"/>
        <pt x="84" y="789" on="1"/>
        <pt x="172" y="994" on="0"/>
        <pt x="279" y="1290" on="1"/>
      </contour>
    </TTGlyph>
    <TTGlyph name="germandbls" xMin="-260" yMin="-492" xMax="1300" yMax="1567">
      <contour>
        <pt x="846" y="1567" on="1"/>
        <pt x="1054" y="1567" on="0"/>
        <pt x="1300" y="1387" on="0"/>
        <pt x="1300" y="1237" on="1"/>
        <pt x="1300" y="1122" on="0"/>
        <pt x="1201" y="966" on="0"/>
        <pt x="1073" y="893" on="1"/>
        <pt x="1000" y="851" on="0"/>
        <pt x="954" y="798" on="0"/>
        <pt x="954" y="746" on="0"/>
        <pt x="999" y="693" on="0"/>
        <pt x="1055" y="651" on="1"/>
        <pt x="1161" y="569" on="0"/>
        <pt x="1237" y="432" on="0"/>
        <pt x="1237" y="350" on="1"/>
        <pt x="1237" y="180" on="0"/>
        <pt x="991" y="-20" on="0"/>
        <pt x="776" y="-20" on="1"/>
        <pt x="588" y="-20" on="0"/>
        <pt x="479" y="41" on="1"/>
        <pt x="479" y="281" on="1"/>
        <pt x="606" y="203" on="0"/>
        <pt x="737" y="203" on="1"/>
        <pt x="835" y="203" on="0"/>
        <pt x="932" y="267" on="0"/>
        <pt x="932" y="322" on="1"/>
        <pt x="932" y="362" on="0"/>
        <pt x="905" y="397" on="1"/>
        <pt x="878" y="434" on="0"/>
        <pt x="702" y="566" on="0"/>
        <pt x="633" y="683" on="0"/>
        <pt x="633" y="834" on="0"/>
        <pt x="722" y="956" on="0"/>
        <pt x="840" y="1022" on="1"/>
        <pt x="912" y="1062" on="0"/>
        <pt x="983" y="1140" on="0"/>
        <pt x="983" y="1258" on="0"/>
        <pt x="902" y="1329" on="0"/>
        <pt x="721" y="1329" on="0"/>
        <pt x="602" y="1223" on="0"/>
        <pt x="578" y="1106" on="1"/>
        <pt x="324" y="-113" on="1"/>
        <pt x="282" y="-309" on="0"/>
        <pt x="75" y="-492" on="0"/>
        <pt x="-100" y="-492" on="1"/>
        <pt x="-191" y="-492" on="0"/>
        <pt x="-260" y="-467" on="1"/>
        <pt x="-260" y="-225" on="1"/>
        <pt x="-198" y="-246" on="0"/>
        <pt x="-145" y="-246" on="1"/>
        <pt x="-12" y="-246" on="0"/>
        <pt x="25" y="-68" on="1"/>
        <pt x="279" y="1139" on="1"/>
        <pt x="326" y="1363" on="0"/>
        <pt x="596" y="1567" on="0"/>
      </contour>
    </TTGlyph>
    <TTGlyph name="gershayimhb" xMin="106" yMin="789" xMax="1040" yMax="1290">
      <contour>
        <pt x="586" y="1290" on="1"/>
        <pt x="594" y="1268" on="1"/>
        <pt x="488" y="1037" on="0"/>
        <pt x="332" y="789" on="1"/>
        <pt x="106" y="789" on="1"/>
        <pt x="194" y="994" on="0"/>
        <pt x="301" y="1290" on="1"/>
      </contour>
      <contour>
        <pt x="553" y="789" on="1"/>
        <pt x="611" y="924" on="0"/>
        <pt x="748" y="1290" on="1"/>
        <pt x="1032" y="1290" on="1"/>
        <pt x="1040" y="1268" on="1"/>
        <pt x="934" y="1037" on="0"/>
        <pt x="778" y="789" on="1"/>
      </contour>
    </TTGlyph>
    <TTGlyph name="gimeldageshhb" xMin="-69" yMin="-20" xMax="874" yMax="1310">
      <contour>
        <pt x="523" y="1055" on="1"/>
        <pt x="501" y="1069" on="0"/>
        <pt x="462" y="1069" on="1"/>
        <pt x="378" y="1069" on="0"/>
        <pt x="308" y="1052" on="1"/>
        <pt x="284" y="1046" on="1"/>
        <pt x="335" y="1287" on="1"/>
        <pt x="428" y="1310" on="0"/>
        <pt x="650" y="1310" on="0"/>
        <pt x="784" y="1268" on="0"/>
        <pt x="818" y="1234" on="1"/>
        <pt x="874" y="1179" on="0"/>
        <pt x="874" y="1064" on="1"/>
        <pt x="874" y="1006" on="0"/>
        <pt x="853" y="908" on="1"/>
        <pt x="660" y="0" on="1"/>
        <pt x="429" y="0" on="1"/>
        <pt x="424" y="188" on="1"/>
        <pt x="409" y="188" on="1"/>
        <pt x="403" y="180" on="0"/>
        <pt x="381" y="151" on="0"/>
        <pt x="305" y="80" on="0"/>
        <pt x="223" y="25" on="0"/>
        <pt x="95" y="-20" on="0"/>
        <pt x="30" y="-20" on="1"/>
        <pt x="-10" y="-20" on="0"/>
        <pt x="-69" y="-9" on="1"/>
        <pt x="13" y="274" on="1"/>
        <pt x="15" y="272" on="0"/>
        <pt x="59" y="265" on="0"/>
        <pt x="106" y="265" on="0"/>
        <pt x="185" y="268" on="0"/>
        <pt x="245" y="286" on="1"/>
        <pt x="329" y="311" on="0"/>
        <pt x="451" y="451" on="0"/>
        <pt x="471" y="544" on="1"/>
        <pt x="548" y="908" on="1"/>
        <pt x="573" y="1023" on="0"/>
      </contour>
      <contour>
        <pt x="256" y="737" on="1"/>
        <pt x="286" y="760" on="0"/>
        <pt x="373" y="760" on="0"/>
        <pt x="409" y="719" on="0"/>
        <pt x="409" y="701" on="1"/>
        <pt x="409" y="642" on="0"/>
        <pt x="368" y="610" on="1"/>
        <pt x="337" y="587" on="0"/>
        <pt x="249" y="587" on="0"/>
        <pt x="215" y="625" on="0"/>
        <pt x="215" y="643" on="1"/>
        <pt x="215" y="706" on="0"/>
      </contour>
    </TTGlyph>
    <TTGlyph name="grave" xMin="508" yMin="1241" xMax="934" yMax="1569">
      <contour>
        <pt x="750" y="1241" on="1"/>
        <pt x="581" y="1407" on="0"/>
        <pt x="508" y="1548" on="1"/>
        <pt x="508" y="1569" on="1"/>
        <pt x="819" y="1569" on="1"/>
        <pt x="855" y="1419" on="0"/>
        <pt x="934" y="1266" on="1"/>
        <pt x="934" y="1241" on="1"/>
      </contour>
    </TTGlyph>
    <TTGlyph name="greater" xMin="109" yMin="203" xMax="1061" yMax="1280">
      <contour>
        <pt x="752" y="723" on="1"/>
        <pt x="109" y="1040" on="1"/>
        <pt x="109" y="1280" on="1"/>
        <pt x="1061" y="784" on="1"/>
        <pt x="1061" y="641" on="1"/>
        <pt x="109" y="203" on="1"/>
        <pt x="109" y="442" on="1"/>
      </contour>
    </TTGlyph>
    <TTGlyph name="guillemotleft" xMin="72" yMin="90" xMax="1151" yMax="1032">
      <contour>
        <pt x="473" y="1032" on="1"/>
        <pt x="664" y="877" on="1"/>
        <pt x="385" y="543" on="1"/>
        <pt x="520" y="193" on="1"/>
        <pt x="274" y="90" on="1"/>
        <pt x="72" y="551" on="1"/>
        <pt x="72" y="569" on="1"/>
      </contour>
      <contour>
        <pt x="961" y="1032" on="1"/>
        <pt x="1151" y="877" on="1"/>
        <pt x="872" y="543" on="1"/>
        <pt x="1008" y="193" on="1"/>
        <pt x="762" y="90" on="1"/>
        <pt x="559" y="551" on="1"/>
        <pt x="559" y="569" on="1"/>
      </contour>
    </TTGlyph>
    <TTGlyph name="guillemotright" xMin="0" yMin="72" xMax="1079" yMax="1014">
      <contour>
        <pt x="190" y="72" on="1"/>
        <pt x="0" y="227" on="1"/>
        <pt x="279" y="561" on="1"/>
        <pt x="143" y="911" on="1"/>
        <pt x="389" y="1014" on="1"/>
        <pt x="592" y="553" on="1"/>
        <pt x="592" y="535" on="1"/>
      </contour>
      <contour>
        <pt x="678" y="72" on="1"/>
        <pt x="487" y="227" on="1"/>
        <pt x="766" y="561" on="1"/>
        <pt x="631" y="911" on="1"/>
        <pt x="877" y="1014" on="1"/>
        <pt x="1079" y="553" on="1"/>
        <pt x="1079" y="535" on="1"/>
      </contour>
    </TTGlyph>
    <TTGlyph name="guilsinglleft" xMin="72" yMin="90" xMax="664" yMax="1032">
      <contour>
        <pt x="473" y="1032" on="1"/>
        <pt x="664" y="877" on="1"/>
        <pt x="385" y="543" on="1"/>
        <pt x="520" y="193" on="1"/>
        <pt x="274" y="90" on="1"/>
        <pt x="72" y="551" on="1"/>
        <pt x="72" y="569" on="1"/>
      </contour>
    </TTGlyph>
    <TTGlyph name="guilsinglright" xMin="0" yMin="72" xMax="592" yMax="1014">
      <contour>
        <pt x="190" y="72" on="1"/>
        <pt x="0" y="227" on="1"/>
        <pt x="279" y="561" on="1"/>
        <pt x="143" y="911" on="1"/>
        <pt x="389" y="1014" on="1"/>
        <pt x="592" y="553" on="1"/>
        <pt x="592" y="535" on="1"/>
      </contour>
    </TTGlyph>
    <TTGlyph name="h" xMin="37" yMin="0" xMax="1133" yMax="1556">
      <contour>
        <pt x="829" y="772" on="1"/>
        <pt x="829" y="895" on="0"/>
        <pt x="721" y="895" on="1"/>
        <pt x="629" y="895" on="0"/>
        <pt x="480" y="668" on="0"/>
        <pt x="436" y="463" on="1"/>
        <pt x="338" y="0" on="1"/>
        <pt x="37" y="0" on="1"/>
        <pt x="367" y="1556" on="1"/>
        <pt x="668" y="1556" on="1"/>
        <pt x="608" y="1278" on="1"/>
        <pt x="588" y="1186" on="0"/>
        <pt x="522" y="969" on="1"/>
        <pt x="530" y="969" on="1"/>
        <pt x="667" y="1139" on="0"/>
        <pt x="844" y="1139" on="1"/>
        <pt x="982" y="1139" on="0"/>
        <pt x="1133" y="972" on="0"/>
        <pt x="1133" y="817" on="1"/>
        <pt x="1133" y="746" on="0"/>
        <pt x="1110" y="637" on="1"/>
        <pt x="977" y="0" on="1"/>
        <pt x="676" y="0" on="1"/>
        <pt x="813" y="653" on="1"/>
        <pt x="829" y="718" on="0"/>
      </contour>
    </TTGlyph>
    <TTGlyph name="hedageshhb" xMin="21" yMin="0" xMax="1255" yMax="1310">
      <contour>
        <pt x="1214" y="1186" on="1"/>
        <pt x="1255" y="1120" on="0"/>
        <pt x="1255" y="941" on="0"/>
        <pt x="1231" y="843" on="1"/>
        <pt x="1052" y="0" on="1"/>
        <pt x="746" y="0" on="1"/>
        <pt x="925" y="844" on="1"/>
        <pt x="933" y="882" on="0"/>
        <pt x="933" y="914" on="1"/>
        <pt x="933" y="1075" on="0"/>
        <pt x="720" y="1075" on="1"/>
        <pt x="630" y="1075" on="0"/>
        <pt x="390" y="1056" on="0"/>
        <pt x="316" y="1046" on="1"/>
        <pt x="241" y="1036" on="1"/>
        <pt x="290" y="1267" on="1"/>
        <pt x="505" y="1310" on="0"/>
        <pt x="1134" y="1310" on="0"/>
      </contour>
      <contour>
        <pt x="21" y="0" on="1"/>
        <pt x="196" y="823" on="1"/>
        <pt x="502" y="823" on="1"/>
        <pt x="327" y="0" on="1"/>
      </contour>
      <contour>
        <pt x="621" y="737" on="1"/>
        <pt x="651" y="760" on="0"/>
        <pt x="738" y="760" on="0"/>
        <pt x="774" y="719" on="0"/>
        <pt x="774" y="701" on="1"/>
        <pt x="774" y="642" on="0"/>
        <pt x="733" y="610" on="1"/>
        <pt x="702" y="587" on="0"/>
        <pt x="614" y="587" on="0"/>
        <pt x="580" y="625" on="0"/>
        <pt x="580" y="643" on="1"/>
        <pt x="580" y="706" on="0"/>
      </contour>
    </TTGlyph>
    <TTGlyph name="hungarumlaut" xMin="279" yMin="1241" xMax="1212" yMax="1569">
      <contour>
        <pt x="279" y="1241" on="1"/>
        <pt x="279" y="1266" on="1"/>
        <pt x="393" y="1394" on="0"/>
        <pt x="510" y="1569" on="1"/>
        <pt x="815" y="1569" on="1"/>
        <pt x="815" y="1552" on="1"/>
        <pt x="769" y="1496" on="0"/>
        <pt x="553" y="1310" on="0"/>
        <pt x="457" y="1241" on="1"/>
      </contour>
      <contour>
        <pt x="676" y="1241" on="1"/>
        <pt x="676" y="1266" on="1"/>
        <pt x="790" y="1394" on="0"/>
        <pt x="907" y="1569" on="1"/>
        <pt x="1212" y="1569" on="1"/>
        <pt x="1212" y="1552" on="1"/>
        <pt x="1166" y="1496" on="0"/>
        <pt x="950" y="1310" on="0"/>
        <pt x="854" y="1241" on="1"/>
      </contour>
    </TTGlyph>
    <TTGlyph name="hyphen" xMin="41" yMin="424" xMax="618" yMax="674">
      <contour>
        <pt x="94" y="674" on="1"/>
        <pt x="618" y="674" on="1"/>
        <pt x="565" y="424" on="1"/>
        <pt x="41" y="424" on="1"/>
      </contour>
    </TTGlyph>
    <TTGlyph name="i" xMin="37" yMin="0" xMax="653" yMax="1556">
      <contour>
        <pt x="322" y="1380" on="1"/>
        <pt x="322" y="1466" on="0"/>
        <pt x="416" y="1556" on="0"/>
        <pt x="496" y="1556" on="1"/>
        <pt x="653" y="1556" on="0"/>
        <pt x="653" y="1436" on="1"/>
        <pt x="653" y="1353" on="0"/>
        <pt x="563" y="1257" on="0"/>
        <pt x="473" y="1257" on="1"/>
        <pt x="322" y="1257" on="0"/>
      </contour>
      <contour>
        <pt x="37" y="0" on="1"/>
        <pt x="274" y="1118" on="1"/>
        <pt x="575" y="1118" on="1"/>
        <pt x="338" y="0" on="1"/>
      </contour>
    </TTGlyph>
    <TTGlyph name="iacute" xMin="37" yMin="0" xMax="848" yMax="1569">
      <contour>
        <pt x="291" y="1241" on="1"/>
        <pt x="291" y="1266" on="1"/>
        <pt x="370" y="1354" on="0"/>
        <pt x="513" y="1569" on="1"/>
        <pt x="848" y="1569" on="1"/>
        <pt x="848" y="1552" on="1"/>
        <pt x="800" y="1495" on="0"/>
        <pt x="585" y="1302" on="0"/>
        <pt x="500" y="1241" on="1"/>
      </contour>
      <contour>
        <pt x="274" y="1118" on="1"/>
        <pt x="575" y="1118" on="1"/>
        <pt x="338" y="0" on="1"/>
        <pt x="37" y="0" on="1"/>
      </contour>
    </TTGlyph>
    <TTGlyph name="icircumflex" xMin="36" yMin="0" xMax="845" yMax="1569">
      <contour>
        <pt x="669" y="1569" on="1"/>
        <pt x="723" y="1441" on="0"/>
        <pt x="845" y="1266" on="1"/>
        <pt x="845" y="1241" on="1"/>
        <pt x="647" y="1241" on="1"/>
        <pt x="584" y="1294" on="0"/>
        <pt x="485" y="1409" on="1"/>
        <pt x="379" y="1319" on="0"/>
        <pt x="253" y="1241" on="1"/>
        <pt x="36" y="1241" on="1"/>
        <pt x="36" y="1266" on="1"/>
        <pt x="99" y="1323" on="0"/>
        <pt x="277" y="1501" on="0"/>
        <pt x="331" y="1569" on="1"/>
      </contour>
      <contour>
        <pt x="274" y="1118" on="1"/>
        <pt x="575" y="1118" on="1"/>
        <pt x="338" y="0" on="1"/>
        <pt x="37" y="0" on="1"/>
      </contour>
    </TTGlyph>
    <TTGlyph name="idieresis" xMin="37" yMin="0" xMax="823" yMax="1540">
      <contour>
        <pt x="126" y="1382" on="1"/>
        <pt x="126" y="1459" on="0"/>
        <pt x="210" y="1540" on="0"/>
        <pt x="288" y="1540" on="1"/>
        <pt x="421" y="1540" on="0"/>
        <pt x="421" y="1432" on="1"/>
        <pt x="421" y="1357" on="0"/>
        <pt x="341" y="1272" on="0"/>
        <pt x="261" y="1272" on="1"/>
        <pt x="126" y="1272" on="0"/>
      </contour>
      <contour>
        <pt x="528" y="1382" on="1"/>
        <pt x="528" y="1460" on="0"/>
        <pt x="612" y="1540" on="0"/>
        <pt x="684" y="1540" on="1"/>
        <pt x="823" y="1540" on="0"/>
        <pt x="823" y="1432" on="1"/>
        <pt x="823" y="1357" on="0"/>
        <pt x="742" y="1272" on="0"/>
        <pt x="663" y="1272" on="1"/>
        <pt x="528" y="1272" on="0"/>
      </contour>
      <contour>
        <pt x="274" y="1118" on="1"/>
        <pt x="575" y="1118" on="1"/>
        <pt x="338" y="0" on="1"/>
        <pt x="37" y="0" on="1"/>
      </contour>
    </TTGlyph>
    <TTGlyph name="igrave" xMin="37" yMin="0" xMax="579" yMax="1569">
      <contour>
        <pt x="395" y="1241" on="1"/>
        <pt x="226" y="1407" on="0"/>
        <pt x="153" y="1548" on="1"/>
        <pt x="153" y="1569" on="1"/>
        <pt x="464" y="1569" on="1"/>
        <pt x="500" y="1419" on="0"/>
        <pt x="579" y="1266" on="1"/>
        <pt x="579" y="1241" on="1"/>
      </contour>
      <contour>
        <pt x="37" y="0" on="1"/>
        <pt x="274" y="1118" on="1"/>
        <pt x="575" y="1118" on="1"/>
        <pt x="338" y="0" on="1"/>
      </contour>
    </TTGlyph>
    <TTGlyph name="integral" xMin="0" yMin="-492" xMax="844" yMax="1556">
      <contour>
        <pt x="844" y="1262" on="1"/>
        <pt x="754" y="1300" on="0"/>
        <pt x="635" y="1300" on="0"/>
        <pt x="575" y="1228" on="0"/>
        <pt x="575" y="1163" on="1"/>
        <pt x="575" y="-113" on="1"/>
        <pt x="575" y="-299" on="0"/>
        <pt x="380" y="-492" on="0"/>
        <pt x="195" y="-492" on="1"/>
        <pt x="87" y="-492" on="0"/>
        <pt x="0" y="-451" on="1"/>
        <pt x="0" y="-197" on="1"/>
        <pt x="92" y="-236" on="0"/>
        <pt x="158" y="-236" on="1"/>
        <pt x="268" y="-236" on="0"/>
        <pt x="268" y="-94" on="1"/>
        <pt x="268" y="1178" on="1"/>
        <pt x="268" y="1363" on="0"/>
        <pt x="462" y="1556" on="0"/>
        <pt x="649" y="1556" on="1"/>
        <pt x="760" y="1556" on="0"/>
        <pt x="844" y="1516" on="1"/>
      </contour>
    </TTGlyph>
    <TTGlyph name="j" xMin="-264" yMin="-492" xMax="655" yMax="1556">
      <contour>
        <pt x="324" y="1380" on="1"/>
        <pt x="324" y="1466" on="0"/>
        <pt x="418" y="1556" on="0"/>
        <pt x="498" y="1556" on="1"/>
        <pt x="655" y="1556" on="0"/>
        <pt x="655" y="1436" on="1"/>
        <pt x="655" y="1353" on="0"/>
        <pt x="565" y="1257" on="0"/>
        <pt x="475" y="1257" on="1"/>
        <pt x="324" y="1257" on="0"/>
      </contour>
      <contour>
        <pt x="-90" y="-492" on="1"/>
        <pt x="-195" y="-492" on="0"/>
        <pt x="-264" y="-467" on="1"/>
        <pt x="-264" y="-225" on="1"/>
        <pt x="-202" y="-246" on="0"/>
        <pt x="-150" y="-246" on="1"/>
        <pt x="-13" y="-246" on="0"/>
        <pt x="23" y="-76" on="1"/>
        <pt x="276" y="1118" on="1"/>
        <pt x="578" y="1118" on="1"/>
        <pt x="313" y="-121" on="1"/>
        <pt x="236" y="-492" on="0"/>
      </contour>
    </TTGlyph>
    <TTGlyph name="k" xMin="37" yMin="0" xMax="1264" yMax="1556">
      <contour>
        <pt x="1264" y="1118" on="1"/>
        <pt x="766" y="614" on="1"/>
        <pt x="1051" y="0" on="1"/>
        <pt x="715" y="0" on="1"/>
        <pt x="532" y="420" on="1"/>
        <pt x="412" y="348" on="1"/>
        <pt x="338" y="0" on="1"/>
        <pt x="37" y="0" on="1"/>
        <pt x="367" y="1556" on="1"/>
        <pt x="668" y="1556" on="1"/>
        <pt x="520" y="862" on="1"/>
        <pt x="514" y="827" on="0"/>
        <pt x="491" y="745" on="1"/>
        <pt x="463" y="643" on="1"/>
        <pt x="467" y="643" on="1"/>
        <pt x="920" y="1118" on="1"/>
      </contour>
    </TTGlyph>
    <TTGlyph name="kafdageshhb" xMin="-69" yMin="-20" xMax="1001" yMax="1310">
      <contour>
        <pt x="582" y="1310" on="1"/>
        <pt x="700" y="1310" on="0"/>
        <pt x="869" y="1242" on="0"/>
        <pt x="961" y="1130" on="0"/>
        <pt x="1001" y="982" on="0"/>
        <pt x="1001" y="910" on="1"/>
        <pt x="1001" y="824" on="0"/>
        <pt x="978" y="719" on="1"/>
        <pt x="946" y="571" on="1"/>
        <pt x="863" y="173" on="0"/>
        <pt x="608" y="46" on="1"/>
        <pt x="476" y="-20" on="0"/>
        <pt x="300" y="-20" on="1"/>
        <pt x="71" y="-20" on="0"/>
        <pt x="-69" y="8" on="1"/>
        <pt x="-19" y="246" on="1"/>
        <pt x="139" y="226" on="0"/>
        <pt x="313" y="226" on="1"/>
        <pt x="460" y="226" on="0"/>
        <pt x="536" y="318" on="1"/>
        <pt x="604" y="399" on="0"/>
        <pt x="634" y="540" on="1"/>
        <pt x="678" y="750" on="1"/>
        <pt x="693" y="820" on="0"/>
        <pt x="693" y="875" on="1"/>
        <pt x="693" y="1075" on="0"/>
        <pt x="493" y="1075" on="1"/>
        <pt x="366" y="1075" on="0"/>
        <pt x="153" y="1053" on="1"/>
        <pt x="203" y="1288" on="1"/>
        <pt x="385" y="1310" on="0"/>
      </contour>
      <contour>
        <pt x="298" y="737" on="1"/>
        <pt x="328" y="760" on="0"/>
        <pt x="415" y="760" on="0"/>
        <pt x="451" y="719" on="0"/>
        <pt x="451" y="701" on="1"/>
        <pt x="451" y="642" on="0"/>
        <pt x="410" y="610" on="1"/>
        <pt x="379" y="587" on="0"/>
        <pt x="291" y="587" on="0"/>
        <pt x="257" y="625" on="0"/>
        <pt x="257" y="643" on="1"/>
        <pt x="257" y="706" on="0"/>
      </contour>
    </TTGlyph>
    <TTGlyph name="l" xMin="37" yMin="0" xMax="668" yMax="1556">
      <contour>
        <pt x="37" y="0" on="1"/>
        <pt x="367" y="1556" on="1"/>
        <pt x="668" y="1556" on="1"/>
        <pt x="338" y="0" on="1"/>
      </contour>
    </TTGlyph>
    <TTGlyph name="lameddageshhb" xMin="161" yMin="0" xMax="1195" yMax="1556">
      <contour>
        <pt x="1195" y="1290" on="1"/>
        <pt x="1153" y="1092" on="1"/>
        <pt x="847" y="479" on="1"/>
        <pt x="638" y="0" on="1"/>
        <pt x="341" y="0" on="1"/>
        <pt x="550" y="479" on="1"/>
        <pt x="838" y="1057" on="1"/>
        <pt x="161" y="1057" on="1"/>
        <pt x="267" y="1556" on="1"/>
        <pt x="572" y="1556" on="1"/>
        <pt x="516" y="1290" on="1"/>
      </contour>
      <contour>
        <pt x="263" y="737" on="1"/>
        <pt x="293" y="760" on="0"/>
        <pt x="380" y="760" on="0"/>
        <pt x="416" y="719" on="0"/>
        <pt x="416" y="701" on="1"/>
        <pt x="416" y="642" on="0"/>
        <pt x="375" y="610" on="1"/>
        <pt x="344" y="587" on="0"/>
        <pt x="256" y="587" on="0"/>
        <pt x="222" y="625" on="0"/>
        <pt x="222" y="643" on="1"/>
        <pt x="222" y="706" on="0"/>
      </contour>
    </TTGlyph>
    <TTGlyph name="less" xMin="109" yMin="203" xMax="1061" yMax="1280">
      <contour>
        <pt x="109" y="641" on="1"/>
        <pt x="109" y="784" on="1"/>
        <pt x="1061" y="1280" on="1"/>
        <pt x="1061" y="1040" on="1"/>
        <pt x="418" y="723" on="1"/>
        <pt x="1061" y="442" on="1"/>
        <pt x="1061" y="203" on="1"/>
      </contour>
    </TTGlyph>
    <TTGlyph name="logicalnot" xMin="109" yMin="248" xMax="1061" yMax="831">
      <contour>
        <pt x="842" y="248" on="1"/>
        <pt x="842" y="612" on="1"/>
        <pt x="109" y="612" on="1"/>
        <pt x="109" y="831" on="1"/>
        <pt x="1061" y="831" on="1"/>
        <pt x="1061" y="248" on="1"/>
      </contour>
    </TTGlyph>
    <TTGlyph name="lozenge" xMin="113" yMin="0" xMax="1128" yMax="1473">
      <contour>
        <pt x="678" y="0" on="1"/>
        <pt x="563" y="0" on="1"/>
        <pt x="113" y="735" on="1"/>
        <pt x="563" y="1473" on="1"/>
        <pt x="678" y="1473" on="1"/>
        <pt x="1128" y="735" on="1"/>
      </contour>
      <contour>
        <pt x="621" y="1145" on="1"/>
        <pt x="377" y="735" on="1"/>
        <pt x="621" y="326" on="1"/>
        <pt x="864" y="735" on="1"/>
      </contour>
    </TTGlyph>
    <TTGlyph name="m" xMin="37" yMin="0" xMax="1749" yMax="1139">
      <contour>
        <pt x="489" y="911" on="1"/>
        <pt x="634" y="1139" on="0"/>
        <pt x="1062" y="1139" on="0"/>
        <pt x="1106" y="911" on="1"/>
        <pt x="1112" y="911" on="1"/>
        <pt x="1180" y="1021" on="0"/>
        <pt x="1365" y="1139" on="0"/>
        <pt x="1470" y="1139" on="1"/>
        <pt x="1605" y="1139" on="0"/>
        <pt x="1749" y="970" on="0"/>
        <pt x="1749" y="817" on="1"/>
        <pt x="1749" y="743" on="0"/>
        <pt x="1726" y="637" on="1"/>
        <pt x="1593" y="0" on="1"/>
        <pt x="1292" y="0" on="1"/>
        <pt x="1430" y="653" on="1"/>
        <pt x="1446" y="718" on="0"/>
        <pt x="1446" y="772" on="1"/>
        <pt x="1446" y="895" on="0"/>
        <pt x="1348" y="895" on="1"/>
        <pt x="1256" y="895" on="0"/>
        <pt x="1107" y="671" on="0"/>
        <pt x="1063" y="465" on="1"/>
        <pt x="967" y="0" on="1"/>
        <pt x="666" y="0" on="1"/>
        <pt x="803" y="653" on="1"/>
        <pt x="819" y="718" on="0"/>
        <pt x="819" y="772" on="1"/>
        <pt x="819" y="895" on="0"/>
        <pt x="721" y="895" on="1"/>
        <pt x="629" y="895" on="0"/>
        <pt x="480" y="668" on="0"/>
        <pt x="436" y="463" on="1"/>
        <pt x="338" y="0" on="1"/>
        <pt x="37" y="0" on="1"/>
        <pt x="274" y="1118" on="1"/>
        <pt x="504" y="1118" on="1"/>
        <pt x="483" y="911" on="1"/>
      </contour>
    </TTGlyph>
    <TTGlyph name="memdageshhb" xMin="-37" yMin="0" xMax="1304" yMax="1310">
      <contour>
        <pt x="257" y="1110" on="1"/>
        <pt x="257" y="1143" on="0"/>
        <pt x="253" y="1199" on="0"/>
        <pt x="250" y="1239" on="0"/>
        <pt x="247" y="1264" on="0"/>
        <pt x="244" y="1282" on="0"/>
        <pt x="243" y="1291" on="1"/>
        <pt x="535" y="1291" on="1"/>
        <pt x="542" y="1252" on="0"/>
        <pt x="546" y="1200" on="1"/>
        <pt x="550" y="1093" on="1"/>
        <pt x="569" y="1093" on="1"/>
        <pt x="588" y="1122" on="0"/>
        <pt x="678" y="1206" on="0"/>
        <pt x="770" y="1263" on="0"/>
        <pt x="919" y="1310" on="0"/>
        <pt x="1092" y="1310" on="0"/>
        <pt x="1220" y="1244" on="0"/>
        <pt x="1252" y="1190" on="1"/>
        <pt x="1304" y="1105" on="0"/>
        <pt x="1304" y="960" on="1"/>
        <pt x="1304" y="864" on="0"/>
        <pt x="1275" y="730" on="1"/>
        <pt x="1120" y="0" on="1"/>
        <pt x="568" y="0" on="1"/>
        <pt x="617" y="233" on="1"/>
        <pt x="857" y="233" on="1"/>
        <pt x="956" y="695" on="1"/>
        <pt x="981" y="810" on="0"/>
        <pt x="981" y="886" on="1"/>
        <pt x="981" y="931" on="0"/>
        <pt x="958" y="1005" on="0"/>
        <pt x="940" y="1024" on="1"/>
        <pt x="897" y="1068" on="0"/>
        <pt x="818" y="1068" on="1"/>
        <pt x="772" y="1068" on="0"/>
        <pt x="676" y="1025" on="0"/>
        <pt x="641" y="994" on="1"/>
        <pt x="568" y="930" on="0"/>
        <pt x="534" y="882" on="1"/>
        <pt x="520" y="860" on="1"/>
        <pt x="261" y="0" on="1"/>
        <pt x="-37" y="0" on="1"/>
        <pt x="212" y="819" on="1"/>
        <pt x="257" y="966" on="0"/>
      </contour>
      <contour>
        <pt x="655" y="737" on="1"/>
        <pt x="685" y="760" on="0"/>
        <pt x="772" y="760" on="0"/>
        <pt x="808" y="719" on="0"/>
        <pt x="808" y="701" on="1"/>
        <pt x="808" y="642" on="0"/>
        <pt x="767" y="610" on="1"/>
        <pt x="736" y="587" on="0"/>
        <pt x="648" y="587" on="0"/>
        <pt x="614" y="625" on="0"/>
        <pt x="614" y="643" on="1"/>
        <pt x="614" y="706" on="0"/>
      </contour>
    </TTGlyph>
    <TTGlyph name="n" xMin="37" yMin="0" xMax="1133" yMax="1139">
      <contour>
        <pt x="829" y="772" on="1"/>
        <pt x="829" y="895" on="0"/>
        <pt x="721" y="895" on="1"/>
        <pt x="629" y="895" on="0"/>
        <pt x="480" y="668" on="0"/>
        <pt x="436" y="463" on="1"/>
        <pt x="338" y="0" on="1"/>
        <pt x="37" y="0" on="1"/>
        <pt x="274" y="1118" on="1"/>
        <pt x="504" y="1118" on="1"/>
        <pt x="483" y="911" on="1"/>
        <pt x="489" y="911" on="1"/>
        <pt x="634" y="1139" on="0"/>
        <pt x="844" y="1139" on="1"/>
        <pt x="982" y="1139" on="0"/>
        <pt x="1133" y="972" on="0"/>
        <pt x="1133" y="817" on="1"/>
        <pt x="1133" y="746" on="0"/>
        <pt x="1110" y="637" on="1"/>
        <pt x="977" y="0" on="1"/>
        <pt x="676" y="0" on="1"/>
        <pt x="813" y="653" on="1"/>
        <pt x="829" y="718" on="0"/>
      </contour>
    </TTGlyph>
    <TTGlyph name="nine" xMin="86" yMin="-20" xMax="1092" yMax="1485">
      <contour>
        <pt x="465" y="514" on="1"/>
        <pt x="302" y="514" on="0"/>
        <pt x="212" y="617" on="1"/>
        <pt x="123" y="721" on="0"/>
        <pt x="123" y="1069" on="0"/>
        <pt x="196" y="1208" on="1"/>
        <pt x="340" y="1485" on="0"/>
        <pt x="678" y="1485" on="1"/>
        <pt x="881" y="1485" on="0"/>
        <pt x="1092" y="1239" on="0"/>
        <pt x="1092" y="1001" on="1"/>
        <pt x="1092" y="722" on="0"/>
        <pt x="895" y="217" on="0"/>
        <pt x="566" y="-20" on="0"/>
        <pt x="326" y="-20" on="1"/>
        <pt x="200" y="-20" on="0"/>
        <pt x="86" y="12" on="1"/>
        <pt x="86" y="268" on="1"/>
        <pt x="198" y="227" on="0"/>
        <pt x="316" y="227" on="1"/>
        <pt x="544" y="227" on="0"/>
        <pt x="664" y="414" on="1"/>
        <pt x="722" y="503" on="0"/>
        <pt x="764" y="672" on="1"/>
        <pt x="760" y="672" on="1"/>
        <pt x="649" y="514" on="0"/>
      </contour>
      <contour>
        <pt x="639" y="1237" on="1"/>
        <pt x="580" y="1237" on="0"/>
        <pt x="478" y="1152" on="0"/>
        <pt x="424" y="1012" on="0"/>
        <pt x="424" y="934" on="1"/>
        <pt x="424" y="931" on="0"/>
        <pt x="424" y="928" on="1"/>
        <pt x="424" y="842" on="0"/>
        <pt x="498" y="752" on="0"/>
        <pt x="567" y="752" on="1"/>
        <pt x="661" y="754" on="0"/>
        <pt x="791" y="911" on="0"/>
        <pt x="791" y="1039" on="1"/>
        <pt x="791" y="1043" on="0"/>
        <pt x="791" y="1047" on="1"/>
        <pt x="791" y="1134" on="0"/>
        <pt x="718" y="1237" on="0"/>
        <pt x="645" y="1237" on="1"/>
        <pt x="642" y="1237" on="0"/>
      </contour>
    </TTGlyph>
    <TTGlyph name="notequal" xMin="109" yMin="143" xMax="1061" yMax="1305">
      <contour>
        <pt x="109" y="418" on="1"/>
        <pt x="109" y="637" on="1"/>
        <pt x="424" y="637" on="1"/>
        <pt x="504" y="807" on="1"/>
        <pt x="109" y="807" on="1"/>
        <pt x="109" y="1024" on="1"/>
        <pt x="604" y="1024" on="1"/>
        <pt x="735" y="1305" on="1"/>
        <pt x="936" y="1219" on="1"/>
        <pt x="844" y="1024" on="1"/>
        <pt x="1061" y="1024" on="1"/>
        <pt x="1061" y="807" on="1"/>
        <pt x="743" y="807" on="1"/>
        <pt x="664" y="637" on="1"/>
        <pt x="1061" y="637" on="1"/>
        <pt x="1061" y="418" on="1"/>
        <pt x="561" y="418" on="1"/>
        <pt x="434" y="143" on="1"/>
        <pt x="233" y="227" on="1"/>
        <pt x="322" y="418" on="1"/>
      </contour>
    </TTGlyph>
    <TTGlyph name="ntilde" xMin="37" yMin="0" xMax="1196" yMax="1550">
      <contour>
        <pt x="909" y="1241" on="1"/>
        <pt x="865" y="1241" on="0"/>
        <pt x="780" y="1274" on="0"/>
        <pt x="752" y="1294" on="1"/>
        <pt x="678" y="1346" on="0"/>
        <pt x="629" y="1346" on="1"/>
        <pt x="598" y="1346" on="0"/>
        <pt x="549" y="1290" on="0"/>
        <pt x="535" y="1239" on="1"/>
        <pt x="358" y="1239" on="1"/>
        <pt x="416" y="1548" on="0"/>
        <pt x="639" y="1548" on="1"/>
        <pt x="683" y="1548" on="0"/>
        <pt x="770" y="1516" on="0"/>
        <pt x="798" y="1496" on="1"/>
        <pt x="871" y="1444" on="0"/>
        <pt x="920" y="1444" on="1"/>
        <pt x="953" y="1444" on="0"/>
        <pt x="1002" y="1494" on="0"/>
        <pt x="1024" y="1550" on="1"/>
        <pt x="1196" y="1550" on="1"/>
        <pt x="1130" y="1241" on="0"/>
      </contour>
      <contour>
        <pt x="829" y="772" on="1"/>
        <pt x="829" y="895" on="0"/>
        <pt x="721" y="895" on="1"/>
        <pt x="629" y="895" on="0"/>
        <pt x="480" y="668" on="0"/>
        <pt x="436" y="463" on="1"/>
        <pt x="338" y="0" on="1"/>
        <pt x="37" y="0" on="1"/>
        <pt x="274" y="1118" on="1"/>
        <pt x="504" y="1118" on="1"/>
        <pt x="483" y="911" on="1"/>
        <pt x="489" y="911" on="1"/>
        <pt x="634" y="1139" on="0"/>
        <pt x="844" y="1139" on="1"/>
        <pt x="982" y="1139" on="0"/>
        <pt x="1133" y="972" on="0"/>
        <pt x="1133" y="817" on="1"/>
        <pt x="1133" y="746" on="0"/>
        <pt x="1110" y="637" on="1"/>
        <pt x="977" y="0" on="1"/>
        <pt x="676" y="0" on="1"/>
        <pt x="813" y="653" on="1"/>
        <pt x="829" y="718" on="0"/>
      </contour>
    </TTGlyph>
    <TTGlyph name="numbersign" xMin="41" yMin="0" xMax="1333" yMax="1462">
      <contour>
        <pt x="967" y="614" on="1"/>
        <pt x="1225" y="614" on="1"/>
        <pt x="1206" y="408" on="1"/>
        <pt x="909" y="408" on="1"/>
        <pt x="793" y="0" on="1"/>
        <pt x="573" y="0" on="1"/>
        <pt x="690" y="408" on="1"/>
        <pt x="496" y="408" on="1"/>
        <pt x="381" y="0" on="1"/>
        <pt x="166" y="0" on="1"/>
        <pt x="279" y="408" on="1"/>
        <pt x="41" y="408" on="1"/>
        <pt x="59" y="614" on="1"/>
        <pt x="336" y="614" on="1"/>
        <pt x="406" y="846" on="1"/>
        <pt x="154" y="846" on="1"/>
        <pt x="172" y="1055" on="1"/>
        <pt x="461" y="1055" on="1"/>
        <pt x="580" y="1462" on="1"/>
        <pt x="797" y="1462" on="1"/>
        <pt x="680" y="1055" on="1"/>
        <pt x="879" y="1055" on="1"/>
        <pt x="995" y="1462" on="1"/>
        <pt x="1210" y="1462" on="1"/>
        <pt x="1094" y="1055" on="1"/>
        <pt x="1333" y="1055" on="1"/>
        <pt x="1315" y="846" on="1"/>
        <pt x="1036" y="846" on="1"/>
      </contour>
      <contour>
        <pt x="750" y="614" on="1"/>
        <pt x="819" y="846" on="1"/>
        <pt x="623" y="846" on="1"/>
        <pt x="553" y="614" on="1"/>
      </contour>
    </TTGlyph>
    <TTGlyph name="nundageshhb" xMin="-47" yMin="0" xMax="797" yMax="1310">
      <contour>
        <pt x="286" y="1292" on="1"/>
        <pt x="376" y="1310" on="0"/>
        <pt x="569" y="1310" on="0"/>
        <pt x="698" y="1269" on="0"/>
        <pt x="733" y="1234" on="1"/>
        <pt x="797" y="1170" on="0"/>
        <pt x="797" y="1053" on="1"/>
        <pt x="797" y="994" on="0"/>
        <pt x="779" y="908" on="1"/>
        <pt x="667" y="383" on="1"/>
        <pt x="647" y="289" on="0"/>
        <pt x="582" y="98" on="0"/>
        <pt x="559" y="49" on="1"/>
        <pt x="536" y="0" on="1"/>
        <pt x="-47" y="0" on="1"/>
        <pt x="2" y="233" on="1"/>
        <pt x="312" y="233" on="1"/>
        <pt x="347" y="310" on="0"/>
        <pt x="379" y="463" on="1"/>
        <pt x="474" y="908" on="1"/>
        <pt x="499" y="1023" on="0"/>
        <pt x="449" y="1055" on="1"/>
        <pt x="427" y="1069" on="0"/>
        <pt x="390" y="1069" on="1"/>
        <pt x="315" y="1069" on="0"/>
        <pt x="235" y="1052" on="1"/>
      </contour>
      <contour>
        <pt x="175" y="737" on="1"/>
        <pt x="205" y="760" on="0"/>
        <pt x="292" y="760" on="0"/>
        <pt x="328" y="719" on="0"/>
        <pt x="328" y="701" on="1"/>
        <pt x="328" y="642" on="0"/>
        <pt x="287" y="610" on="1"/>
        <pt x="256" y="587" on="0"/>
        <pt x="168" y="587" on="0"/>
        <pt x="134" y="625" on="0"/>
        <pt x="134" y="643" on="1"/>
        <pt x="134" y="706" on="0"/>
      </contour>
    </TTGlyph>
    <TTGlyph name="o" xMin="90" yMin="-20" xMax="1108" yMax="1139">
      <contour>
        <pt x="1108" y="688" on="1"/>
        <pt x="1108" y="374" on="0"/>
        <pt x="791" y="-20" on="0"/>
        <pt x="529" y="-20" on="1"/>
        <pt x="523" y="-20" on="0"/>
        <pt x="518" y="-20" on="1"/>
        <pt x="323" y="-20" on="0"/>
        <pt x="206" y="97" on="1"/>
        <pt x="90" y="216" on="0"/>
        <pt x="90" y="621" on="0"/>
        <pt x="161" y="789" on="1"/>
        <pt x="233" y="957" on="0"/>
        <pt x="504" y="1139" on="0"/>
        <pt x="880" y="1139" on="0"/>
        <pt x="1108" y="902" on="0"/>
        <pt x="1108" y="696" on="1"/>
        <pt x="1108" y="692" on="0"/>
      </contour>
      <contour>
        <pt x="805" y="696" on="1"/>
        <pt x="805" y="893" on="0"/>
        <pt x="662" y="893" on="1"/>
        <pt x="587" y="893" on="0"/>
        <pt x="527" y="832" on="1"/>
        <pt x="467" y="768" on="0"/>
        <pt x="393" y="536" on="0"/>
        <pt x="393" y="410" on="1"/>
        <pt x="393" y="225" on="0"/>
        <pt x="543" y="225" on="1"/>
        <pt x="618" y="225" on="0"/>
        <pt x="738" y="348" on="0"/>
        <pt x="805" y="565" on="0"/>
      </contour>
    </TTGlyph>
    <TTGlyph name="oacute" xMin="90" yMin="-20" xMax="1128" yMax="1569">
      <contour>
        <pt x="571" y="1241" on="1"/>
        <pt x="571" y="1266" on="1"/>
        <pt x="650" y="1354" on="0"/>
        <pt x="793" y="1569" on="1"/>
        <pt x="1128" y="1569" on="1"/>
        <pt x="1128" y="1552" on="1"/>
        <pt x="1080" y="1495" on="0"/>
        <pt x="865" y="1302" on="0"/>
        <pt x="780" y="1241" on="1"/>
      </contour>
      <contour>
        <pt x="1108" y="688" on="1"/>
        <pt x="1108" y="374" on="0"/>
        <pt x="791" y="-20" on="0"/>
        <pt x="529" y="-20" on="1"/>
        <pt x="523" y="-20" on="0"/>
        <pt x="518" y="-20" on="1"/>
        <pt x="323" y="-20" on="0"/>
        <pt x="206" y="97" on="1"/>
        <pt x="90" y="216" on="0"/>
        <pt x="90" y="621" on="0"/>
        <pt x="161" y="789" on="1"/>
        <pt x="233" y="957" on="0"/>
        <pt x="504" y="1139" on="0"/>
        <pt x="880" y="1139" on="0"/>
        <pt x="1108" y="902" on="0"/>
        <pt x="1108" y="696" on="1"/>
        <pt x="1108" y="692" on="0"/>
      </contour>
      <contour>
        <pt x="805" y="696" on="1"/>
        <pt x="805" y="893" on="0"/>
        <pt x="662" y="893" on="1"/>
        <pt x="587" y="893" on="0"/>
        <pt x="527" y="832" on="1"/>
        <pt x="467" y="768" on="0"/>
        <pt x="393" y="536" on="0"/>
        <pt x="393" y="410" on="1"/>
        <pt x="393" y="225" on="0"/>
        <pt x="543" y="225" on="1"/>
        <pt x="618" y="225" on="0"/>
        <pt x="738" y="348" on="0"/>
        <pt x="805" y="565" on="0"/>
      </contour>
    </TTGlyph>
    <TTGlyph name="ocircumflex" xMin="90" yMin="-20" xMax="1109" yMax="1569">
      <contour>
        <pt x="933" y="1569" on="1"/>
        <pt x="987" y="1441" on="0"/>
        <pt x="1109" y="1266" on="1"/>
        <pt x="1109" y="1241" on="1"/>
        <pt x="911" y="1241" on="1"/>
        <pt x="848" y="1294" on="0"/>
        <pt x="749" y="1409" on="1"/>
        <pt x="643" y="1319" on="0"/>
        <pt x="517" y="1241" on="1"/>
        <pt x="300" y="1241" on="1"/>
        <pt x="300" y="1266" on="1"/>
        <pt x="363" y="1323" on="0"/>
        <pt x="541" y="1501" on="0"/>
        <pt x="595" y="1569" on="1"/>
      </contour>
      <contour>
        <pt x="1108" y="688" on="1"/>
        <pt x="1108" y="374" on="0"/>
        <pt x="791" y="-20" on="0"/>
        <pt x="529" y="-20" on="1"/>
        <pt x="523" y="-20" on="0"/>
        <pt x="518" y="-20" on="1"/>
        <pt x="323" y="-20" on="0"/>
        <pt x="206" y="97" on="1"/>
        <pt x="90" y="216" on="0"/>
        <pt x="90" y="621" on="0"/>
        <pt x="161" y="789" on="1"/>
        <pt x="233" y="957" on="0"/>
        <pt x="504" y="1139" on="0"/>
        <pt x="880" y="1139" on="0"/>
        <pt x="1108" y="902" on="0"/>
        <pt x="1108" y="696" on="1"/>
        <pt x="1108" y="692" on="0"/>
      </contour>
      <contour>
        <pt x="805" y="696" on="1"/>
        <pt x="805" y="893" on="0"/>
        <pt x="662" y="893" on="1"/>
        <pt x="587" y="893" on="0"/>
        <pt x="527" y="832" on="1"/>
        <pt x="467" y="768" on="0"/>
        <pt x="393" y="536" on="0"/>
        <pt x="393" y="410" on="1"/>
        <pt x="393" y="225" on="0"/>
        <pt x="543" y="225" on="1"/>
        <pt x="618" y="225" on="0"/>
        <pt x="738" y="348" on="0"/>
        <pt x="805" y="565" on="0"/>
      </contour>
    </TTGlyph>
    <TTGlyph name="odieresis" xMin="90" yMin="-20" xMax="1108" yMax="1540">
      <contour>
        <pt x="386" y="1382" on="1"/>
        <pt x="386" y="1459" on="0"/>
        <pt x="470" y="1540" on="0"/>
        <pt x="548" y="1540" on="1"/>
        <pt x="681" y="1540" on="0"/>
        <pt x="681" y="1432" on="1"/>
        <pt x="681" y="1357" on="0"/>
        <pt x="601" y="1272" on="0"/>
        <pt x="521" y="1272" on="1"/>
        <pt x="386" y="1272" on="0"/>
      </contour>
      <contour>
        <pt x="788" y="1382" on="1"/>
        <pt x="788" y="1460" on="0"/>
        <pt x="872" y="1540" on="0"/>
        <pt x="944" y="1540" on="1"/>
        <pt x="1083" y="1540" on="0"/>
        <pt x="1083" y="1432" on="1"/>
        <pt x="1083" y="1357" on="0"/>
        <pt x="1002" y="1272" on="0"/>
        <pt x="923" y="1272" on="1"/>
        <pt x="788" y="1272" on="0"/>
      </contour>
      <contour>
        <pt x="1108" y="688" on="1"/>
        <pt x="1108" y="374" on="0"/>
        <pt x="791" y="-20" on="0"/>
        <pt x="529" y="-20" on="1"/>
        <pt x="523" y="-20" on="0"/>
        <pt x="518" y="-20" on="1"/>
        <pt x="323" y="-20" on="0"/>
        <pt x="206" y="97" on="1"/>
        <pt x="90" y="216" on="0"/>
        <pt x="90" y="621" on="0"/>
        <pt x="161" y="789" on="1"/>
        <pt x="233" y="957" on="0"/>
        <pt x="504" y="1139" on="0"/>
        <pt x="880" y="1139" on="0"/>
        <pt x="1108" y="902" on="0"/>
        <pt x="1108" y="696" on="1"/>
        <pt x="1108" y="692" on="0"/>
      </contour>
      <contour>
        <pt x="805" y="696" on="1"/>
        <pt x="805" y="893" on="0"/>
        <pt x="662" y="893" on="1"/>
        <pt x="587" y="893" on="0"/>
        <pt x="527" y="832" on="1"/>
        <pt x="467" y="768" on="0"/>
        <pt x="393" y="536" on="0"/>
        <pt x="393" y="410" on="1"/>
        <pt x="393" y="225" on="0"/>
        <pt x="543" y="225" on="1"/>
        <pt x="618" y="225" on="0"/>
        <pt x="738" y="348" on="0"/>
        <pt x="805" y="565" on="0"/>
      </contour>
    </TTGlyph>
    <TTGlyph name="oe" xMin="90" yMin="-20" xMax="1755" yMax="1139">
      <contour>
        <pt x="1198" y="-20" on="1"/>
        <pt x="1082" y="-20" on="0"/>
        <pt x="898" y="57" on="0"/>
        <pt x="852" y="125" on="1"/>
        <pt x="718" y="-20" on="0"/>
        <pt x="498" y="-20" on="1"/>
        <pt x="311" y="-20" on="0"/>
        <pt x="200" y="97" on="1"/>
        <pt x="90" y="215" on="0"/>
        <pt x="90" y="414" on="1"/>
        <pt x="90" y="420" on="0"/>
        <pt x="90" y="426" on="1"/>
        <pt x="90" y="633" on="0"/>
        <pt x="228" y="959" on="0"/>
        <pt x="490" y="1139" on="0"/>
        <pt x="660" y="1139" on="1"/>
        <pt x="664" y="1139" on="0"/>
        <pt x="668" y="1139" on="1"/>
        <pt x="878" y="1139" on="0"/>
        <pt x="981" y="979" on="1"/>
        <pt x="1135" y="1139" on="0"/>
        <pt x="1380" y="1139" on="1"/>
        <pt x="1558" y="1139" on="0"/>
        <pt x="1755" y="976" on="0"/>
        <pt x="1755" y="834" on="1"/>
        <pt x="1755" y="647" on="0"/>
        <pt x="1421" y="444" on="0"/>
        <pt x="1112" y="444" on="1"/>
        <pt x="1061" y="444" on="1"/>
        <pt x="1059" y="423" on="1"/>
        <pt x="1059" y="403" on="1"/>
        <pt x="1059" y="311" on="0"/>
        <pt x="1162" y="207" on="0"/>
        <pt x="1346" y="207" on="0"/>
        <pt x="1490" y="247" on="0"/>
        <pt x="1587" y="293" on="1"/>
        <pt x="1587" y="66" on="1"/>
        <pt x="1412" y="-20" on="0"/>
      </contour>
      <contour>
        <pt x="1139" y="647" on="1"/>
        <pt x="1293" y="647" on="0"/>
        <pt x="1466" y="743" on="0"/>
        <pt x="1466" y="827" on="1"/>
        <pt x="1466" y="922" on="0"/>
        <pt x="1362" y="922" on="1"/>
        <pt x="1274" y="922" on="0"/>
        <pt x="1119" y="765" on="0"/>
        <pt x="1094" y="647" on="1"/>
      </contour>
      <contour>
        <pt x="788" y="792" on="0"/>
        <pt x="714" y="893" on="0"/>
        <pt x="573" y="893" on="0"/>
        <pt x="518" y="832" on="1"/>
        <pt x="461" y="771" on="0"/>
        <pt x="393" y="542" on="0"/>
        <pt x="393" y="414" on="1"/>
        <pt x="393" y="322" on="0"/>
        <pt x="467" y="225" on="0"/>
        <pt x="539" y="225" on="1"/>
        <pt x="647" y="225" on="0"/>
        <pt x="718" y="359" on="1"/>
        <pt x="788" y="493" on="0"/>
        <pt x="788" y="696" on="1"/>
      </contour>
    </TTGlyph>
    <TTGlyph name="ogonek" xMin="-172" yMin="-492" xMax="242" yMax="0">
      <contour>
        <pt x="51" y="-250" on="1"/>
        <pt x="51" y="-278" on="0"/>
        <pt x="83" y="-309" on="0"/>
        <pt x="154" y="-309" on="0"/>
        <pt x="213" y="-291" on="1"/>
        <pt x="213" y="-467" on="1"/>
        <pt x="131" y="-492" on="0"/>
        <pt x="-52" y="-492" on="0"/>
        <pt x="-172" y="-385" on="0"/>
        <pt x="-172" y="-215" on="0"/>
        <pt x="-77" y="-77" on="0"/>
        <pt x="43" y="0" on="1"/>
        <pt x="242" y="0" on="1"/>
        <pt x="122" y="-98" on="0"/>
        <pt x="51" y="-200" on="0"/>
      </contour>
    </TTGlyph>
    <TTGlyph name="ograve" xMin="90" yMin="-20" xMax="1108" yMax="1569">
      <contour>
        <pt x="661" y="1241" on="1"/>
        <pt x="492" y="1407" on="0"/>
        <pt x="419" y="1548" on="1"/>
        <pt x="419" y="1569" on="1"/>
        <pt x="730" y="1569" on="1"/>
        <pt x="766" y="1419" on="0"/>
        <pt x="845" y="1266" on="1"/>
        <pt x="845" y="1241" on="1"/>
      </contour>
      <contour>
        <pt x="1108" y="688" on="1"/>
        <pt x="1108" y="374" on="0"/>
        <pt x="791" y="-20" on="0"/>
        <pt x="529" y="-20" on="1"/>
        <pt x="523" y="-20" on="0"/>
        <pt x="518" y="-20" on="1"/>
        <pt x="323" y="-20" on="0"/>
        <pt x="206" y="97" on="1"/>
        <pt x="90" y="216" on="0"/>
        <pt x="90" y="621" on="0"/>
        <pt x="161" y="789" on="1"/>
        <pt x="233" y="957" on="0"/>
        <pt x="504" y="1139" on="0"/>
        <pt x="880" y="1139" on="0"/>
        <pt x="1108" y="902" on="0"/>
        <pt x="1108" y="696" on="1"/>
        <pt x="1108" y="692" on="0"/>
      </contour>
      <contour>
        <pt x="805" y="696" on="1"/>
        <pt x="805" y="893" on="0"/>
        <pt x="662" y="893" on="1"/>
        <pt x="587" y="893" on="0"/>
        <pt x="527" y="832" on="1"/>
        <pt x="467" y="768" on="0"/>
        <pt x="393" y="536" on="0"/>
        <pt x="393" y="410" on="1"/>
        <pt x="393" y="225" on="0"/>
        <pt x="543" y="225" on="1"/>
        <pt x="618" y="225" on="0"/>
        <pt x="738" y="348" on="0"/>
        <pt x="805" y="565" on="0"/>
      </contour>
    </TTGlyph>
    <TTGlyph name="one" xMin="182" yMin="0" xMax="997" yMax="1462">
      <contour>
        <pt x="383" y="0" on="1"/>
        <pt x="563" y="829" on="1"/>
        <pt x="595" y="969" on="0"/>
        <pt x="639" y="1116" on="1"/>
        <pt x="577" y="1069" on="1"/>
        <pt x="518" y="1025" on="0"/>
        <pt x="315" y="899" on="1"/>
        <pt x="182" y="1114" on="1"/>
        <pt x="748" y="1462" on="1"/>
        <pt x="997" y="1462" on="1"/>
        <pt x="688" y="0" on="1"/>
      </contour>
    </TTGlyph>
    <TTGlyph name="ordfeminine" xMin="152" yMin="752" xMax="877" yMax="1479">
      <contour>
        <pt x="369" y="752" on="1"/>
        <pt x="266" y="752" on="0"/>
        <pt x="152" y="892" on="0"/>
        <pt x="152" y="1138" on="0"/>
        <pt x="244" y="1359" on="0"/>
        <pt x="399" y="1479" on="0"/>
        <pt x="498" y="1479" on="1"/>
        <pt x="618" y="1479" on="0"/>
        <pt x="678" y="1376" on="1"/>
        <pt x="684" y="1376" on="1"/>
        <pt x="723" y="1466" on="1"/>
        <pt x="877" y="1466" on="1"/>
        <pt x="719" y="764" on="1"/>
        <pt x="565" y="764" on="1"/>
        <pt x="573" y="856" on="1"/>
        <pt x="571" y="856" on="1"/>
        <pt x="491" y="752" on="0"/>
      </contour>
      <contour>
        <pt x="442" y="903" on="1"/>
        <pt x="487" y="903" on="0"/>
        <pt x="566" y="987" on="0"/>
        <pt x="618" y="1144" on="0"/>
        <pt x="618" y="1219" on="1"/>
        <pt x="618" y="1325" on="0"/>
        <pt x="530" y="1325" on="1"/>
        <pt x="457" y="1325" on="0"/>
        <pt x="406" y="1229" on="1"/>
        <pt x="356" y="1132" on="0"/>
        <pt x="356" y="903" on="0"/>
      </contour>
    </TTGlyph>
    <TTGlyph name="ordmasculine" xMin="162" yMin="752" xMax="809" yMax="1479">
      <contour>
        <pt x="672" y="1479" on="0"/>
        <pt x="809" y="1332" on="0"/>
        <pt x="809" y="1065" on="0"/>
        <pt x="712" y="858" on="0"/>
        <pt x="545" y="752" on="0"/>
        <pt x="432" y="752" on="1"/>
        <pt x="299" y="752" on="0"/>
        <pt x="162" y="901" on="0"/>
        <pt x="162" y="1038" on="1"/>
        <pt x="162" y="1235" on="0"/>
        <pt x="370" y="1479" on="0"/>
        <pt x="543" y="1479" on="1"/>
      </contour>
      <contour>
        <pt x="522" y="1315" on="1"/>
        <pt x="458" y="1315" on="0"/>
        <pt x="371" y="1138" on="0"/>
        <pt x="371" y="915" on="0"/>
        <pt x="451" y="915" on="1"/>
        <pt x="514" y="915" on="0"/>
        <pt x="598" y="1086" on="0"/>
        <pt x="598" y="1208" on="1"/>
        <pt x="598" y="1315" on="0"/>
      </contour>
    </TTGlyph>
    <TTGlyph name="oslash" xMin="43" yMin="-102" xMax="1126" yMax="1171">
      <contour>
        <pt x="1108" y="688" on="1"/>
        <pt x="1108" y="374" on="0"/>
        <pt x="791" y="-20" on="0"/>
        <pt x="529" y="-20" on="1"/>
        <pt x="523" y="-20" on="0"/>
        <pt x="518" y="-20" on="1"/>
        <pt x="396" y="-20" on="0"/>
        <pt x="293" y="33" on="1"/>
        <pt x="184" y="-102" on="1"/>
        <pt x="43" y="6" on="1"/>
        <pt x="162" y="154" on="1"/>
        <pt x="90" y="261" on="0"/>
        <pt x="90" y="410" on="1"/>
        <pt x="90" y="621" on="0"/>
        <pt x="161" y="789" on="1"/>
        <pt x="233" y="957" on="0"/>
        <pt x="504" y="1139" on="0"/>
        <pt x="684" y="1139" on="1"/>
        <pt x="814" y="1139" on="0"/>
        <pt x="911" y="1083" on="1"/>
        <pt x="981" y="1171" on="1"/>
        <pt x="1126" y="1061" on="1"/>
        <pt x="1042" y="956" on="1"/>
        <pt x="1108" y="850" on="0"/>
        <pt x="1108" y="696" on="1"/>
        <pt x="1108" y="692" on="0"/>
      </contour>
      <contour>
        <pt x="657" y="903" on="1"/>
        <pt x="581" y="903" on="0"/>
        <pt x="454" y="777" on="0"/>
        <pt x="385" y="565" on="0"/>
        <pt x="385" y="445" on="1"/>
        <pt x="385" y="441" on="0"/>
        <pt x="385" y="438" on="1"/>
        <pt x="385" y="426" on="1"/>
        <pt x="750" y="879" on="1"/>
        <pt x="715" y="903" on="0"/>
        <pt x="662" y="903" on="1"/>
        <pt x="660" y="903" on="0"/>
      </contour>
      <contour>
        <pt x="543" y="215" on="1"/>
        <pt x="657" y="215" on="0"/>
        <pt x="815" y="481" on="0"/>
        <pt x="815" y="666" on="1"/>
        <pt x="815" y="682" on="1"/>
        <pt x="457" y="238" on="1"/>
        <pt x="488" y="215" on="0"/>
      </contour>
    </TTGlyph>
    <TTGlyph name="otilde" xMin="90" yMin="-20" xMax="1152" yMax="1550">
      <contour>
        <pt x="865" y="1241" on="1"/>
        <pt x="821" y="1241" on="0"/>
        <pt x="736" y="1274" on="0"/>
        <pt x="708" y="1294" on="1"/>
        <pt x="634" y="1346" on="0"/>
        <pt x="585" y="1346" on="1"/>
        <pt x="554" y="1346" on="0"/>
        <pt x="505" y="1290" on="0"/>
        <pt x="491" y="1239" on="1"/>
        <pt x="314" y="1239" on="1"/>
        <pt x="372" y="1548" on="0"/>
        <pt x="595" y="1548" on="1"/>
        <pt x="639" y="1548" on="0"/>
        <pt x="726" y="1516" on="0"/>
        <pt x="754" y="1496" on="1"/>
        <pt x="827" y="1444" on="0"/>
        <pt x="876" y="1444" on="1"/>
        <pt x="909" y="1444" on="0"/>
        <pt x="958" y="1494" on="0"/>
        <pt x="980" y="1550" on="1"/>
        <pt x="1152" y="1550" on="1"/>
        <pt x="1086" y="1241" on="0"/>
      </contour>
      <contour>
        <pt x="1108" y="688" on="1"/>
        <pt x="1108" y="374" on="0"/>
        <pt x="791" y="-20" on="0"/>
        <pt x="529" y="-20" on="1"/>
        <pt x="523" y="-20" on="0"/>
        <pt x="518" y="-20" on="1"/>
        <pt x="323" y="-20" on="0"/>
        <pt x="206" y="97" on="1"/>
        <pt x="90" y="216" on="0"/>
        <pt x="90" y="621" on="0"/>
        <pt x="161" y="789" on="1"/>
        <pt x="233" y="957" on="0"/>
        <pt x="504" y="1139" on="0"/>
        <pt x="880" y="1139" on="0"/>
        <pt x="1108" y="902" on="0"/>
        <pt x="1108" y="696" on="1"/>
        <pt x="1108" y="692" on="0"/>
      </contour>
      <contour>
        <pt x="805" y="696" on="1"/>
        <pt x="805" y="893" on="0"/>
        <pt x="662" y="893" on="1"/>
        <pt x="587" y="893" on="0"/>
        <pt x="527" y="832" on="1"/>
        <pt x="467" y="768" on="0"/>
        <pt x="393" y="536" on="0"/>
        <pt x="393" y="410" on="1"/>
        <pt x="393" y="225" on="0"/>
        <pt x="543" y="225" on="1"/>
        <pt x="618" y="225" on="0"/>
        <pt x="738" y="348" on="0"/>
        <pt x="805" y="565" on="0"/>
      </contour>
    </TTGlyph>
    <TTGlyph name="overscore" xMin="-6" yMin="1556" xMax="1075" yMax="1757">
      <contour>
        <pt x="-6" y="1556" on="1"/>
        <pt x="39" y="1757" on="1"/>
        <pt x="1075" y="1757" on="1"/>
        <pt x="1030" y="1556" on="1"/>
      </contour>
    </TTGlyph>
    <TTGlyph name="p" xMin="-68" yMin="-492" xMax="1128" yMax="1139">
      <contour>
        <pt x="813" y="1139" on="1"/>
        <pt x="959" y="1139" on="0"/>
        <pt x="1043" y="1031" on="1"/>
        <pt x="1128" y="925" on="0"/>
        <pt x="1128" y="540" on="0"/>
        <pt x="991" y="187" on="0"/>
        <pt x="754" y="-20" on="0"/>
        <pt x="610" y="-20" on="1"/>
        <pt x="525" y="-20" on="0"/>
        <pt x="406" y="55" on="0"/>
        <pt x="356" y="143" on="1"/>
        <pt x="348" y="143" on="1"/>
        <pt x="336" y="-18" on="0"/>
        <pt x="305" y="-152" on="1"/>
        <pt x="233" y="-492" on="1"/>
        <pt x="-68" y="-492" on="1"/>
        <pt x="274" y="1118" on="1"/>
        <pt x="504" y="1118" on="1"/>
        <pt x="487" y="948" on="1"/>
        <pt x="496" y="948" on="1"/>
        <pt x="634" y="1139" on="0"/>
      </contour>
      <contour>
        <pt x="690" y="895" on="1"/>
        <pt x="624" y="895" on="0"/>
        <pt x="497" y="762" on="0"/>
        <pt x="420" y="535" on="0"/>
        <pt x="420" y="411" on="1"/>
        <pt x="420" y="405" on="0"/>
        <pt x="420" y="399" on="1"/>
        <pt x="420" y="318" on="0"/>
        <pt x="494" y="223" on="0"/>
        <pt x="626" y="223" on="0"/>
        <pt x="747" y="359" on="0"/>
        <pt x="823" y="604" on="0"/>
        <pt x="823" y="719" on="1"/>
        <pt x="823" y="895" on="0"/>
        <pt x="692" y="895" on="1"/>
        <pt x="691" y="895" on="0"/>
      </contour>
    </TTGlyph>
    <TTGlyph name="paragraph" xMin="147" yMin="-260" xMax="1202" yMax="1556">
      <contour>
        <pt x="1040" y="-260" on="1"/>
        <pt x="1040" y="1356" on="1"/>
        <pt x="874" y="1356" on="1"/>
        <pt x="874" y="-260" on="1"/>
        <pt x="713" y="-260" on="1"/>
        <pt x="713" y="559" on="1"/>
        <pt x="651" y="541" on="0"/>
        <pt x="567" y="541" on="1"/>
        <pt x="352" y="541" on="0"/>
        <pt x="147" y="789" on="0"/>
        <pt x="147" y="1301" on="0"/>
        <pt x="365" y="1556" on="0"/>
        <pt x="598" y="1556" on="1"/>
        <pt x="1202" y="1556" on="1"/>
        <pt x="1202" y="-260" on="1"/>
      </contour>
    </TTGlyph>
    <TTGlyph name="parenleft" xMin="74" yMin="-324" xMax="840" yMax="1462">
      <contour>
        <pt x="223" y="-324" on="1"/>
        <pt x="74" y="-58" on="0"/>
        <pt x="74" y="619" on="0"/>
        <pt x="319" y="1196" on="0"/>
        <pt x="578" y="1462" on="1"/>
        <pt x="840" y="1462" on="1"/>
        <pt x="340" y="916" on="0"/>
        <pt x="340" y="270" on="1"/>
        <pt x="340" y="-38" on="0"/>
        <pt x="457" y="-324" on="1"/>
      </contour>
    </TTGlyph>
</ttFont>
